<?xml version="1.0" encoding="UTF-8" standalone="no"?>
<!DOCTYPE svg PUBLIC "-//W3C//DTD SVG 1.1//EN"
 "http://www.w3.org/Graphics/SVG/1.1/DTD/svg11.dtd">
<!-- Generated by graphviz version 2.43.0 (0)
 -->
<!-- Title: dag Pages: 1 -->
<svg width="733pt" height="1396pt"
 viewBox="0.00 0.00 732.90 1396.00" xmlns="http://www.w3.org/2000/svg" xmlns:xlink="http://www.w3.org/1999/xlink">
<g id="graph0" class="graph" transform="scale(1 1) rotate(0) translate(4 1392)">
<title>dag</title>
<polygon fill="white" stroke="transparent" points="-4,4 -4,-1392 728.9,-1392 728.9,4 -4,4"/>
<!-- p0 -->
<g id="node1" class="node">
<title>p0</title>
<ellipse fill="black" stroke="black" cx="480.5" cy="-1369.4" rx="3.6" ry="3.6"/>
<text text-anchor="middle" x="411.9" y="-1376.8" font-family="Times,serif" font-size="14.00">Channel.fromPath</text>
</g>
<!-- p2 -->
<g id="node2" class="node">
<title>p2</title>
<ellipse fill="none" stroke="black" cx="492.5" cy="-1325.3" rx="3.5" ry="3.5"/>
<text text-anchor="middle" x="465.5" y="-1332.6" font-family="Times,serif" font-size="14.00">concat</text>
</g>
<!-- p0&#45;&gt;p2 -->
<g id="edge1" class="edge">
<title>p0&#45;&gt;p2</title>
<path fill="none" stroke="black" d="M481.29,-1365.64C482.81,-1360.29 486.25,-1348.21 488.93,-1338.84"/>
<polygon fill="black" stroke="black" points="492.32,-1339.7 491.69,-1329.13 485.59,-1337.79 492.32,-1339.7"/>
</g>
<!-- p3 -->
<g id="node4" class="node">
<title>p3</title>
<ellipse fill="none" stroke="black" cx="492.5" cy="-1281.3" rx="3.5" ry="3.5"/>
<text text-anchor="middle" x="465.5" y="-1288.6" font-family="Times,serif" font-size="14.00">collect</text>
</g>
<!-- p2&#45;&gt;p3 -->
<g id="edge3" class="edge">
<title>p2&#45;&gt;p3</title>
<path fill="none" stroke="black" d="M492.5,-1321.54C492.5,-1316.27 492.5,-1304.43 492.5,-1295.12"/>
<polygon fill="black" stroke="black" points="496,-1295.12 492.5,-1285.12 489,-1295.12 496,-1295.12"/>
</g>
<!-- p1 -->
<g id="node3" class="node">
<title>p1</title>
<ellipse fill="black" stroke="black" cx="505.5" cy="-1369.4" rx="3.6" ry="3.6"/>
<text text-anchor="middle" x="463.4" y="-1354.6" font-family="Times,serif" font-size="14.00">Channel.of</text>
</g>
<!-- p1&#45;&gt;p2 -->
<g id="edge2" class="edge">
<title>p1&#45;&gt;p2</title>
<path fill="none" stroke="black" d="M504.65,-1365.64C502.99,-1360.29 499.27,-1348.21 496.37,-1338.84"/>
<polygon fill="black" stroke="black" points="499.67,-1337.65 493.37,-1329.13 492.98,-1339.72 499.67,-1337.65"/>
</g>
<!-- p4 -->
<g id="node5" class="node">
<title>p4</title>
<ellipse fill="none" stroke="black" cx="492.5" cy="-1208.8" rx="59.29" ry="18"/>
<text text-anchor="middle" x="492.5" y="-1205.1" font-family="Times,serif" font-size="14.00">spat_lucas</text>
</g>
<!-- p3&#45;&gt;p4 -->
<g id="edge4" class="edge">
<title>p3&#45;&gt;p4</title>
<path fill="none" stroke="black" d="M492.5,-1277.62C492.5,-1270.96 492.5,-1253.04 492.5,-1237.29"/>
<polygon fill="black" stroke="black" points="496,-1236.9 492.5,-1226.9 489,-1236.9 496,-1236.9"/>
<text text-anchor="middle" x="511" y="-1248.6" font-family="Times,serif" font-size="14.00">lucas</text>
</g>
<!-- p5 -->
<g id="node6" class="node">
<title>p5</title>
<ellipse fill="black" stroke="black" cx="492.5" cy="-1150.3" rx="1.8" ry="1.8"/>
</g>
<!-- p4&#45;&gt;p5 -->
<g id="edge5" class="edge">
<title>p4&#45;&gt;p5</title>
<path fill="none" stroke="black" d="M492.5,-1190.54C492.5,-1181.45 492.5,-1170.57 492.5,-1162.57"/>
<polygon fill="black" stroke="black" points="496,-1162.3 492.5,-1152.3 489,-1162.3 496,-1162.3"/>
</g>
<!-- p6 -->
<g id="node7" class="node">
<title>p6</title>
<ellipse fill="black" stroke="black" cx="291.5" cy="-1004.8" rx="3.6" ry="3.6"/>
<text text-anchor="middle" x="249.4" y="-1012.2" font-family="Times,serif" font-size="14.00">Channel.of</text>
</g>
<!-- p9 -->
<g id="node8" class="node">
<title>p9</title>
<ellipse fill="none" stroke="black" cx="94.5" cy="-932.3" rx="3.5" ry="3.5"/>
<text text-anchor="middle" x="77.5" y="-939.6" font-family="Times,serif" font-size="14.00">mix</text>
</g>
<!-- p6&#45;&gt;p9 -->
<g id="edge6" class="edge">
<title>p6&#45;&gt;p9</title>
<path fill="none" stroke="black" d="M288.13,-1002.99C273.89,-999.55 217.3,-985.49 172.5,-968.8 148.52,-959.87 121.55,-946.91 106.43,-939.37"/>
<polygon fill="black" stroke="black" points="107.64,-936.06 97.14,-934.67 104.48,-942.3 107.64,-936.06"/>
<text text-anchor="middle" x="230" y="-957.6" font-family="Times,serif" font-size="14.00">spectral_indices</text>
</g>
<!-- p14 -->
<g id="node15" class="node">
<title>p14</title>
<ellipse fill="none" stroke="black" cx="291.5" cy="-932.3" rx="3.5" ry="3.5"/>
<text text-anchor="middle" x="274.5" y="-939.6" font-family="Times,serif" font-size="14.00">mix</text>
</g>
<!-- p6&#45;&gt;p14 -->
<g id="edge13" class="edge">
<title>p6&#45;&gt;p14</title>
<path fill="none" stroke="black" d="M291.5,-1001.12C291.5,-992.22 291.5,-963.24 291.5,-946.17"/>
<polygon fill="black" stroke="black" points="295,-945.98 291.5,-935.98 288,-945.98 295,-945.98"/>
<text text-anchor="middle" x="349" y="-957.6" font-family="Times,serif" font-size="14.00">spectral_indices</text>
</g>
<!-- p26 -->
<g id="node30" class="node">
<title>p26</title>
<ellipse fill="none" stroke="black" cx="429.5" cy="-932.3" rx="3.5" ry="3.5"/>
<text text-anchor="middle" x="398.5" y="-939.6" font-family="Times,serif" font-size="14.00">flatMap</text>
</g>
<!-- p6&#45;&gt;p26 -->
<g id="edge28" class="edge">
<title>p6&#45;&gt;p26</title>
<path fill="none" stroke="black" d="M295.13,-1003.62C310.43,-1002.67 370.45,-997.23 407.5,-968.8 415.38,-962.75 421.13,-953 424.77,-945.25"/>
<polygon fill="black" stroke="black" points="428.02,-946.56 428.6,-935.98 421.55,-943.89 428.02,-946.56"/>
<text text-anchor="middle" x="477" y="-957.6" font-family="Times,serif" font-size="14.00">spectral_indices</text>
</g>
<!-- p10 -->
<g id="node12" class="node">
<title>p10</title>
<ellipse fill="none" stroke="black" cx="58.5" cy="-874.2" rx="3.5" ry="3.5"/>
<text text-anchor="middle" x="27.5" y="-881.5" font-family="Times,serif" font-size="14.00">flatMap</text>
</g>
<!-- p9&#45;&gt;p10 -->
<g id="edge9" class="edge">
<title>p9&#45;&gt;p10</title>
<path fill="none" stroke="black" d="M92.95,-928.89C88.28,-921.61 74.1,-899.51 65.46,-886.04"/>
<polygon fill="black" stroke="black" points="68.35,-884.07 60,-877.54 62.46,-887.85 68.35,-884.07"/>
</g>
<!-- p7 -->
<g id="node9" class="node">
<title>p7</title>
<ellipse fill="black" stroke="black" cx="140.5" cy="-874.2" rx="3.6" ry="3.6"/>
<text text-anchor="middle" x="98.4" y="-881.6" font-family="Times,serif" font-size="14.00">Channel.of</text>
</g>
<!-- p11 -->
<g id="node10" class="node">
<title>p11</title>
<ellipse fill="none" stroke="black" cx="80.5" cy="-780.6" rx="3.5" ry="3.5"/>
<text text-anchor="middle" x="46.5" y="-787.9" font-family="Times,serif" font-size="14.00">combine</text>
</g>
<!-- p7&#45;&gt;p11 -->
<g id="edge7" class="edge">
<title>p7&#45;&gt;p11</title>
<path fill="none" stroke="black" d="M136.84,-873.06C126.86,-872.45 99.05,-869.27 86.5,-852.6 73.71,-835.61 75.39,-809.43 77.88,-794.06"/>
<polygon fill="black" stroke="black" points="81.33,-794.62 79.85,-784.13 74.47,-793.25 81.33,-794.62"/>
<text text-anchor="middle" x="130" y="-830.9" font-family="Times,serif" font-size="14.00">stm_choices</text>
</g>
<!-- p16 -->
<g id="node17" class="node">
<title>p16</title>
<ellipse fill="none" stroke="black" cx="275.5" cy="-780.6" rx="3.5" ry="3.5"/>
<text text-anchor="middle" x="241.5" y="-787.9" font-family="Times,serif" font-size="14.00">combine</text>
</g>
<!-- p7&#45;&gt;p16 -->
<g id="edge16" class="edge">
<title>p7&#45;&gt;p16</title>
<path fill="none" stroke="black" d="M143.6,-871.93C149.93,-869.22 164.48,-862.29 173.5,-852.6 185.82,-839.35 179.17,-828.83 192.5,-816.6 212.82,-797.97 244.51,-788.4 262.28,-784.25"/>
<polygon fill="black" stroke="black" points="263.15,-787.64 272.22,-782.16 261.71,-780.79 263.15,-787.64"/>
<text text-anchor="middle" x="236" y="-830.9" font-family="Times,serif" font-size="14.00">stm_choices</text>
</g>
<!-- p12 -->
<g id="node13" class="node">
<title>p12</title>
<ellipse fill="black" stroke="black" cx="80.5" cy="-708.1" rx="1.8" ry="1.8"/>
</g>
<!-- p11&#45;&gt;p12 -->
<g id="edge11" class="edge">
<title>p11&#45;&gt;p12</title>
<path fill="none" stroke="black" d="M80.5,-776.92C80.5,-767.69 80.5,-736.86 80.5,-720.13"/>
<polygon fill="black" stroke="black" points="84,-720.06 80.5,-710.06 77,-720.06 84,-720.06"/>
<text text-anchor="middle" x="173.5" y="-733.4" font-family="Times,serif" font-size="14.00">stm_combination_sentinel</text>
</g>
<!-- p8 -->
<g id="node11" class="node">
<title>p8</title>
<ellipse fill="black" stroke="black" cx="94.5" cy="-1004.8" rx="3.6" ry="3.6"/>
<text text-anchor="middle" x="52.4" y="-1012.2" font-family="Times,serif" font-size="14.00">Channel.of</text>
</g>
<!-- p8&#45;&gt;p9 -->
<g id="edge8" class="edge">
<title>p8&#45;&gt;p9</title>
<path fill="none" stroke="black" d="M94.5,-1001.12C94.5,-992.22 94.5,-963.24 94.5,-946.17"/>
<polygon fill="black" stroke="black" points="98,-945.98 94.5,-935.98 91,-945.98 98,-945.98"/>
</g>
<!-- p10&#45;&gt;p11 -->
<g id="edge10" class="edge">
<title>p10&#45;&gt;p11</title>
<path fill="none" stroke="black" d="M58.65,-870.56C59.15,-862.4 61.08,-836.93 66.5,-816.6 68.61,-808.7 71.99,-800.17 74.91,-793.51"/>
<polygon fill="black" stroke="black" points="78.25,-794.62 79.27,-784.08 71.89,-791.68 78.25,-794.62"/>
</g>
<!-- p13 -->
<g id="node14" class="node">
<title>p13</title>
<ellipse fill="black" stroke="black" cx="120.5" cy="-1004.8" rx="3.6" ry="3.6"/>
<text text-anchor="middle" x="78.4" y="-990" font-family="Times,serif" font-size="14.00">Channel.of</text>
</g>
<!-- p13&#45;&gt;p14 -->
<g id="edge12" class="edge">
<title>p13&#45;&gt;p14</title>
<path fill="none" stroke="black" d="M120.32,-1000.99C119.93,-992.39 120.05,-966.31 134.5,-953.8 155.78,-935.37 243.52,-933.31 277.74,-933.22"/>
<polygon fill="black" stroke="black" points="277.98,-936.72 287.99,-933.25 278,-929.72 277.98,-936.72"/>
</g>
<!-- p15 -->
<g id="node16" class="node">
<title>p15</title>
<ellipse fill="none" stroke="black" cx="294.5" cy="-874.2" rx="3.5" ry="3.5"/>
<text text-anchor="middle" x="263.5" y="-881.5" font-family="Times,serif" font-size="14.00">flatMap</text>
</g>
<!-- p14&#45;&gt;p15 -->
<g id="edge14" class="edge">
<title>p14&#45;&gt;p15</title>
<path fill="none" stroke="black" d="M291.64,-928.59C292.03,-921.36 293.11,-901.23 293.82,-887.86"/>
<polygon fill="black" stroke="black" points="297.32,-887.92 294.36,-877.75 290.33,-887.55 297.32,-887.92"/>
</g>
<!-- p15&#45;&gt;p16 -->
<g id="edge15" class="edge">
<title>p15&#45;&gt;p16</title>
<path fill="none" stroke="black" d="M294.03,-870.6C292.55,-862.55 287.89,-837.36 283.5,-816.6 281.91,-809.07 279.99,-800.67 278.43,-793.98"/>
<polygon fill="black" stroke="black" points="281.81,-793.07 276.11,-784.14 275,-794.68 281.81,-793.07"/>
</g>
<!-- p40 -->
<g id="node18" class="node">
<title>p40</title>
<ellipse fill="none" stroke="black" cx="466.5" cy="-322.1" rx="3.5" ry="3.5"/>
<text text-anchor="middle" x="432.5" y="-329.4" font-family="Times,serif" font-size="14.00">combine</text>
</g>
<!-- p16&#45;&gt;p40 -->
<g id="edge17" class="edge">
<title>p16&#45;&gt;p40</title>
<path fill="none" stroke="black" d="M277.6,-777.1C284.72,-768.36 307.5,-738.13 307.5,-709.1 307.5,-709.1 307.5,-709.1 307.5,-365.1 307.5,-335.09 414.73,-326.04 453.07,-323.77"/>
<polygon fill="black" stroke="black" points="453.38,-327.26 463.18,-323.24 453.01,-320.27 453.38,-327.26"/>
<text text-anchor="middle" x="398" y="-529.4" font-family="Times,serif" font-size="14.00">stm_combination_landsat</text>
</g>
<!-- p41 -->
<g id="node43" class="node">
<title>p41</title>
<ellipse fill="none" stroke="black" cx="466.5" cy="-263.6" rx="45.49" ry="18"/>
<text text-anchor="middle" x="466.5" y="-259.9" font-family="Times,serif" font-size="14.00">stms_ls</text>
</g>
<!-- p40&#45;&gt;p41 -->
<g id="edge44" class="edge">
<title>p40&#45;&gt;p41</title>
<path fill="none" stroke="black" d="M466.5,-318.37C466.5,-313.43 466.5,-302.5 466.5,-291.77"/>
<polygon fill="black" stroke="black" points="470,-291.75 466.5,-281.75 463,-291.75 470,-291.75"/>
</g>
<!-- p17 -->
<g id="node19" class="node">
<title>p17</title>
<ellipse fill="black" stroke="black" cx="561.5" cy="-1369.4" rx="3.6" ry="3.6"/>
<text text-anchor="middle" x="637.9" y="-1376.8" font-family="Times,serif" font-size="14.00">Channel.fromFilePairs</text>
</g>
<!-- p19 -->
<g id="node20" class="node">
<title>p19</title>
<ellipse fill="none" stroke="black" cx="573.5" cy="-1325.3" rx="3.5" ry="3.5"/>
<text text-anchor="middle" x="539.5" y="-1332.6" font-family="Times,serif" font-size="14.00">combine</text>
</g>
<!-- p17&#45;&gt;p19 -->
<g id="edge18" class="edge">
<title>p17&#45;&gt;p19</title>
<path fill="none" stroke="black" d="M562.29,-1365.64C563.81,-1360.29 567.25,-1348.21 569.93,-1338.84"/>
<polygon fill="black" stroke="black" points="573.32,-1339.7 572.69,-1329.13 566.59,-1337.79 573.32,-1339.7"/>
</g>
<!-- p20 -->
<g id="node22" class="node">
<title>p20</title>
<ellipse fill="none" stroke="black" cx="573.5" cy="-1281.3" rx="3.5" ry="3.5"/>
<text text-anchor="middle" x="554.5" y="-1288.6" font-family="Times,serif" font-size="14.00">map</text>
</g>
<!-- p19&#45;&gt;p20 -->
<g id="edge20" class="edge">
<title>p19&#45;&gt;p20</title>
<path fill="none" stroke="black" d="M573.5,-1321.54C573.5,-1316.27 573.5,-1304.43 573.5,-1295.12"/>
<polygon fill="black" stroke="black" points="577,-1295.12 573.5,-1285.12 570,-1295.12 577,-1295.12"/>
</g>
<!-- p18 -->
<g id="node21" class="node">
<title>p18</title>
<ellipse fill="black" stroke="black" cx="586.5" cy="-1369.4" rx="3.6" ry="3.6"/>
</g>
<!-- p18&#45;&gt;p19 -->
<g id="edge19" class="edge">
<title>p18&#45;&gt;p19</title>
<path fill="none" stroke="black" d="M585.65,-1365.64C583.99,-1360.29 580.27,-1348.21 577.37,-1338.84"/>
<polygon fill="black" stroke="black" points="580.67,-1337.65 574.37,-1329.13 573.98,-1339.72 580.67,-1337.65"/>
</g>
<!-- p21 -->
<g id="node23" class="node">
<title>p21</title>
<ellipse fill="none" stroke="black" cx="573.5" cy="-1208.8" rx="3.5" ry="3.5"/>
<text text-anchor="middle" x="587.5" y="-1216.1" font-family="Times,serif" font-size="14.00">filter</text>
</g>
<!-- p20&#45;&gt;p21 -->
<g id="edge21" class="edge">
<title>p20&#45;&gt;p21</title>
<path fill="none" stroke="black" d="M573.5,-1277.62C573.5,-1268.72 573.5,-1239.74 573.5,-1222.67"/>
<polygon fill="black" stroke="black" points="577,-1222.48 573.5,-1212.48 570,-1222.48 577,-1222.48"/>
</g>
<!-- p22 -->
<g id="node24" class="node">
<title>p22</title>
<ellipse fill="none" stroke="black" cx="573.5" cy="-1150.3" rx="3.5" ry="3.5"/>
<text text-anchor="middle" x="554.5" y="-1157.6" font-family="Times,serif" font-size="14.00">take</text>
</g>
<!-- p21&#45;&gt;p22 -->
<g id="edge22" class="edge">
<title>p21&#45;&gt;p22</title>
<path fill="none" stroke="black" d="M573.5,-1205.07C573.5,-1197.79 573.5,-1177.51 573.5,-1164.05"/>
<polygon fill="black" stroke="black" points="577,-1163.87 573.5,-1153.87 570,-1163.87 577,-1163.87"/>
</g>
<!-- p23 -->
<g id="node25" class="node">
<title>p23</title>
<ellipse fill="none" stroke="black" cx="573.5" cy="-1077.8" rx="91.78" ry="18"/>
<text text-anchor="middle" x="573.5" y="-1074.1" font-family="Times,serif" font-size="14.00">mask_layer_stack</text>
</g>
<!-- p22&#45;&gt;p23 -->
<g id="edge23" class="edge">
<title>p22&#45;&gt;p23</title>
<path fill="none" stroke="black" d="M573.5,-1146.62C573.5,-1139.96 573.5,-1122.04 573.5,-1106.29"/>
<polygon fill="black" stroke="black" points="577,-1105.9 573.5,-1095.9 570,-1105.9 577,-1105.9"/>
<text text-anchor="middle" x="606" y="-1117.6" font-family="Times,serif" font-size="14.00">ch_dataP</text>
</g>
<!-- p24 -->
<g id="node26" class="node">
<title>p24</title>
<ellipse fill="none" stroke="black" cx="573.5" cy="-1004.8" rx="86.38" ry="18"/>
<text text-anchor="middle" x="573.5" y="-1001.1" font-family="Times,serif" font-size="14.00">raster_dtype_i2f</text>
</g>
<!-- p23&#45;&gt;p24 -->
<g id="edge24" class="edge">
<title>p23&#45;&gt;p24</title>
<path fill="none" stroke="black" d="M573.5,-1059.61C573.5,-1051.59 573.5,-1041.85 573.5,-1032.87"/>
<polygon fill="black" stroke="black" points="577,-1032.83 573.5,-1022.83 570,-1032.83 577,-1032.83"/>
</g>
<!-- p25 -->
<g id="node27" class="node">
<title>p25</title>
<ellipse fill="none" stroke="black" cx="573.5" cy="-932.3" rx="3.5" ry="3.5"/>
<text text-anchor="middle" x="558" y="-939.6" font-family="Times,serif" font-size="14.00">tap</text>
</g>
<!-- p24&#45;&gt;p25 -->
<g id="edge25" class="edge">
<title>p24&#45;&gt;p25</title>
<path fill="none" stroke="black" d="M573.5,-986.73C573.5,-974.18 573.5,-957.39 573.5,-946"/>
<polygon fill="black" stroke="black" points="577,-945.96 573.5,-935.96 570,-945.96 577,-945.96"/>
</g>
<!-- p29 -->
<g id="node28" class="node">
<title>p29</title>
<ellipse fill="none" stroke="black" cx="587.5" cy="-834.6" rx="96.38" ry="18"/>
<text text-anchor="middle" x="587.5" y="-830.9" font-family="Times,serif" font-size="14.00">explode_base_files</text>
</g>
<!-- p25&#45;&gt;p29 -->
<g id="edge26" class="edge">
<title>p25&#45;&gt;p29</title>
<path fill="none" stroke="black" d="M573.9,-928.54C575.3,-918.98 580.04,-886.59 583.53,-862.72"/>
<polygon fill="black" stroke="black" points="587,-863.19 584.99,-852.79 580.07,-862.18 587,-863.19"/>
<text text-anchor="middle" x="624" y="-899.6" font-family="Times,serif" font-size="14.00">ch_base_files</text>
</g>
<!-- p27 -->
<g id="node29" class="node">
<title>p27</title>
<ellipse fill="none" stroke="black" cx="429.5" cy="-874.2" rx="3.5" ry="3.5"/>
<text text-anchor="middle" x="395.5" y="-881.5" font-family="Times,serif" font-size="14.00">combine</text>
</g>
<!-- p25&#45;&gt;p27 -->
<g id="edge27" class="edge">
<title>p25&#45;&gt;p27</title>
<path fill="none" stroke="black" d="M569.86,-931.38C555.51,-931.55 501.88,-930.73 464.5,-910.8 453.32,-904.84 443.49,-894.07 437.12,-885.93"/>
<polygon fill="black" stroke="black" points="439.76,-883.62 431.05,-877.59 434.1,-887.74 439.76,-883.62"/>
<text text-anchor="middle" x="515" y="-899.6" font-family="Times,serif" font-size="14.00">ch_for_indices</text>
</g>
<!-- p31 -->
<g id="node32" class="node">
<title>p31</title>
<ellipse fill="none" stroke="black" cx="568.5" cy="-708.1" rx="3.5" ry="3.5"/>
<text text-anchor="middle" x="551.5" y="-715.4" font-family="Times,serif" font-size="14.00">mix</text>
</g>
<!-- p29&#45;&gt;p31 -->
<g id="edge32" class="edge">
<title>p29&#45;&gt;p31</title>
<path fill="none" stroke="black" d="M584.9,-816.55C581.02,-791.16 573.83,-744.02 570.41,-721.59"/>
<polygon fill="black" stroke="black" points="573.85,-720.94 568.88,-711.59 566.93,-722 573.85,-720.94"/>
</g>
<!-- p28 -->
<g id="node31" class="node">
<title>p28</title>
<ellipse fill="none" stroke="black" cx="428.5" cy="-780.6" rx="131.08" ry="18"/>
<text text-anchor="middle" x="428.5" y="-776.9" font-family="Times,serif" font-size="14.00">calculate_spectral_indices</text>
</g>
<!-- p27&#45;&gt;p28 -->
<g id="edge30" class="edge">
<title>p27&#45;&gt;p28</title>
<path fill="none" stroke="black" d="M429.47,-870.56C429.37,-861.59 429.05,-831.64 428.8,-808.94"/>
<polygon fill="black" stroke="black" points="432.3,-808.78 428.69,-798.82 425.3,-808.86 432.3,-808.78"/>
</g>
<!-- p26&#45;&gt;p27 -->
<g id="edge29" class="edge">
<title>p26&#45;&gt;p27</title>
<path fill="none" stroke="black" d="M429.5,-928.59C429.5,-921.36 429.5,-901.23 429.5,-887.86"/>
<polygon fill="black" stroke="black" points="433,-887.75 429.5,-877.75 426,-887.75 433,-887.75"/>
</g>
<!-- p28&#45;&gt;p31 -->
<g id="edge31" class="edge">
<title>p28&#45;&gt;p31</title>
<path fill="none" stroke="black" d="M461.32,-763.07C491.87,-747.69 535.73,-725.6 556.6,-715.09"/>
<polygon fill="black" stroke="black" points="558.23,-718.19 565.59,-710.56 555.09,-711.94 558.23,-718.19"/>
</g>
<!-- p32 -->
<g id="node34" class="node">
<title>p32</title>
<ellipse fill="none" stroke="black" cx="548.5" cy="-664.1" rx="3.5" ry="3.5"/>
<text text-anchor="middle" x="504" y="-671.4" font-family="Times,serif" font-size="14.00">groupTuple</text>
</g>
<!-- p31&#45;&gt;p32 -->
<g id="edge34" class="edge">
<title>p31&#45;&gt;p32</title>
<path fill="none" stroke="black" d="M567.19,-704.34C564.57,-698.84 558.56,-686.22 554.05,-676.76"/>
<polygon fill="black" stroke="black" points="557.1,-675.02 549.64,-667.49 550.78,-678.03 557.1,-675.02"/>
</g>
<!-- p30 -->
<g id="node33" class="node">
<title>p30</title>
<ellipse fill="black" stroke="black" cx="619.5" cy="-780.6" rx="3.6" ry="3.6"/>
<text text-anchor="middle" x="670.4" y="-788" font-family="Times,serif" font-size="14.00">Channel.empty</text>
</g>
<!-- p30&#45;&gt;p31 -->
<g id="edge33" class="edge">
<title>p30&#45;&gt;p31</title>
<path fill="none" stroke="black" d="M619.11,-776.56C617.91,-768.2 613.57,-744.52 601.5,-729.6 596.17,-723.02 588.13,-717.96 581.32,-714.52"/>
<polygon fill="black" stroke="black" points="582.28,-711.11 571.72,-710.26 579.44,-717.51 582.28,-711.11"/>
</g>
<!-- p33 -->
<g id="node35" class="node">
<title>p33</title>
<ellipse fill="none" stroke="black" cx="542.5" cy="-620.1" rx="3.5" ry="3.5"/>
<text text-anchor="middle" x="523.5" y="-627.4" font-family="Times,serif" font-size="14.00">map</text>
</g>
<!-- p32&#45;&gt;p33 -->
<g id="edge35" class="edge">
<title>p32&#45;&gt;p33</title>
<path fill="none" stroke="black" d="M548.11,-660.34C547.35,-655.07 545.66,-643.23 544.33,-633.92"/>
<polygon fill="black" stroke="black" points="547.78,-633.33 542.9,-623.92 540.85,-634.32 547.78,-633.33"/>
</g>
<!-- p34 -->
<g id="node36" class="node">
<title>p34</title>
<ellipse fill="none" stroke="black" cx="539.5" cy="-562.1" rx="3.5" ry="3.5"/>
<text text-anchor="middle" x="524" y="-569.4" font-family="Times,serif" font-size="14.00">tap</text>
</g>
<!-- p33&#45;&gt;p34 -->
<g id="edge36" class="edge">
<title>p33&#45;&gt;p34</title>
<path fill="none" stroke="black" d="M542.36,-616.4C541.97,-609.18 540.89,-589.08 540.18,-575.73"/>
<polygon fill="black" stroke="black" points="543.67,-575.44 539.64,-565.64 536.68,-575.82 543.67,-575.44"/>
<text text-anchor="middle" x="607" y="-587.4" font-family="Times,serif" font-size="14.00">ch_grouped_bands</text>
</g>
<!-- p35 -->
<g id="node37" class="node">
<title>p35</title>
<ellipse fill="none" stroke="black" cx="505.5" cy="-504.1" rx="3.5" ry="3.5"/>
<text text-anchor="middle" x="484.5" y="-511.4" font-family="Times,serif" font-size="14.00">filter</text>
</g>
<!-- p34&#45;&gt;p35 -->
<g id="edge37" class="edge">
<title>p34&#45;&gt;p35</title>
<path fill="none" stroke="black" d="M538.04,-558.69C533.67,-551.5 520.5,-529.81 512.32,-516.33"/>
<polygon fill="black" stroke="black" points="515.1,-514.17 506.92,-507.43 509.12,-517.8 515.1,-514.17"/>
</g>
<!-- p42 -->
<g id="node38" class="node">
<title>p42</title>
<ellipse fill="none" stroke="black" cx="539.5" cy="-504.1" rx="3.5" ry="3.5"/>
<text text-anchor="middle" x="511.5" y="-489.4" font-family="Times,serif" font-size="14.00">unique</text>
</g>
<!-- p34&#45;&gt;p42 -->
<g id="edge38" class="edge">
<title>p34&#45;&gt;p42</title>
<path fill="none" stroke="black" d="M539.5,-558.4C539.5,-551.18 539.5,-531.08 539.5,-517.73"/>
<polygon fill="black" stroke="black" points="543,-517.64 539.5,-507.64 536,-517.64 543,-517.64"/>
<text text-anchor="middle" x="604" y="-529.4" font-family="Times,serif" font-size="14.00">ch_stacked_raster</text>
</g>
<!-- p36 -->
<g id="node39" class="node">
<title>p36</title>
<ellipse fill="none" stroke="black" cx="497.5" cy="-460.1" rx="3.5" ry="3.5"/>
<text text-anchor="middle" x="453" y="-467.4" font-family="Times,serif" font-size="14.00">groupTuple</text>
</g>
<!-- p35&#45;&gt;p36 -->
<g id="edge39" class="edge">
<title>p35&#45;&gt;p36</title>
<path fill="none" stroke="black" d="M504.98,-500.34C503.97,-495.07 501.71,-483.23 499.94,-473.92"/>
<polygon fill="black" stroke="black" points="503.35,-473.09 498.04,-463.92 496.47,-474.4 503.35,-473.09"/>
</g>
<!-- p43 -->
<g id="node45" class="node">
<title>p43</title>
<ellipse fill="none" stroke="black" cx="539.5" cy="-435.1" rx="3.5" ry="3.5"/>
<text text-anchor="middle" x="518.5" y="-442.4" font-family="Times,serif" font-size="14.00">filter</text>
</g>
<!-- p42&#45;&gt;p43 -->
<g id="edge46" class="edge">
<title>p42&#45;&gt;p43</title>
<path fill="none" stroke="black" d="M539.5,-500.56C539.5,-492.18 539.5,-465.09 539.5,-448.81"/>
<polygon fill="black" stroke="black" points="543,-448.65 539.5,-438.65 536,-448.65 543,-448.65"/>
</g>
<!-- p37 -->
<g id="node40" class="node">
<title>p37</title>
<ellipse fill="none" stroke="black" cx="495.5" cy="-410.1" rx="3.5" ry="3.5"/>
<text text-anchor="middle" x="476.5" y="-417.4" font-family="Times,serif" font-size="14.00">map</text>
</g>
<!-- p36&#45;&gt;p37 -->
<g id="edge40" class="edge">
<title>p36&#45;&gt;p37</title>
<path fill="none" stroke="black" d="M497.39,-456.52C497.14,-450.52 496.51,-435.3 496.04,-424.12"/>
<polygon fill="black" stroke="black" points="499.53,-423.78 495.62,-413.93 492.54,-424.07 499.53,-423.78"/>
</g>
<!-- p38 -->
<g id="node41" class="node">
<title>p38</title>
<ellipse fill="none" stroke="black" cx="494.5" cy="-366.1" rx="3.5" ry="3.5"/>
<text text-anchor="middle" x="466" y="-373.4" font-family="Times,serif" font-size="14.00">branch</text>
</g>
<!-- p37&#45;&gt;p38 -->
<g id="edge41" class="edge">
<title>p37&#45;&gt;p38</title>
<path fill="none" stroke="black" d="M495.43,-406.34C495.31,-401.07 495.03,-389.23 494.81,-379.92"/>
<polygon fill="black" stroke="black" points="498.3,-379.83 494.57,-369.92 491.31,-380 498.3,-379.83"/>
</g>
<!-- p38&#45;&gt;p40 -->
<g id="edge42" class="edge">
<title>p38&#45;&gt;p40</title>
<path fill="none" stroke="black" d="M492.99,-362.84C489.46,-357.54 480.42,-343.99 473.89,-334.18"/>
<polygon fill="black" stroke="black" points="476.61,-331.96 468.15,-325.58 470.79,-335.84 476.61,-331.96"/>
</g>
<!-- p39 -->
<g id="node42" class="node">
<title>p39</title>
<ellipse fill="black" stroke="black" cx="494.5" cy="-322.1" rx="1.8" ry="1.8"/>
</g>
<!-- p38&#45;&gt;p39 -->
<g id="edge43" class="edge">
<title>p38&#45;&gt;p39</title>
<path fill="none" stroke="black" d="M494.5,-362.34C494.5,-356.79 494.5,-343.96 494.5,-334.47"/>
<polygon fill="black" stroke="black" points="498,-334.4 494.5,-324.4 491,-334.4 498,-334.4"/>
</g>
<!-- p44 -->
<g id="node44" class="node">
<title>p44</title>
<ellipse fill="none" stroke="black" cx="502.5" cy="-205.1" rx="3.5" ry="3.5"/>
<text text-anchor="middle" x="485.5" y="-212.4" font-family="Times,serif" font-size="14.00">mix</text>
</g>
<!-- p41&#45;&gt;p44 -->
<g id="edge45" class="edge">
<title>p41&#45;&gt;p44</title>
<path fill="none" stroke="black" d="M477.11,-245.95C483.11,-236.54 490.43,-225.04 495.67,-216.82"/>
<polygon fill="black" stroke="black" points="498.64,-218.66 501.07,-208.35 492.74,-214.9 498.64,-218.66"/>
</g>
<!-- p45 -->
<g id="node46" class="node">
<title>p45</title>
<ellipse fill="none" stroke="black" cx="502.5" cy="-161.1" rx="3.5" ry="3.5"/>
<text text-anchor="middle" x="458" y="-168.4" font-family="Times,serif" font-size="14.00">groupTuple</text>
</g>
<!-- p44&#45;&gt;p45 -->
<g id="edge48" class="edge">
<title>p44&#45;&gt;p45</title>
<path fill="none" stroke="black" d="M502.5,-201.34C502.5,-196.07 502.5,-184.23 502.5,-174.92"/>
<polygon fill="black" stroke="black" points="506,-174.92 502.5,-164.92 499,-174.92 506,-174.92"/>
</g>
<!-- p43&#45;&gt;p44 -->
<g id="edge47" class="edge">
<title>p43&#45;&gt;p44</title>
<path fill="none" stroke="black" d="M539.5,-431.23C539.5,-424.04 539.5,-404.71 539.5,-388.6 539.5,-388.6 539.5,-388.6 539.5,-262.6 539.5,-243.01 523.74,-224.93 512.79,-214.73"/>
<polygon fill="black" stroke="black" points="514.79,-211.83 504.93,-207.95 510.22,-217.13 514.79,-211.83"/>
</g>
<!-- p46 -->
<g id="node47" class="node">
<title>p46</title>
<ellipse fill="none" stroke="black" cx="502.5" cy="-117.1" rx="3.5" ry="3.5"/>
<text text-anchor="middle" x="483.5" y="-124.4" font-family="Times,serif" font-size="14.00">map</text>
</g>
<!-- p45&#45;&gt;p46 -->
<g id="edge49" class="edge">
<title>p45&#45;&gt;p46</title>
<path fill="none" stroke="black" d="M502.5,-157.34C502.5,-152.07 502.5,-140.23 502.5,-130.92"/>
<polygon fill="black" stroke="black" points="506,-130.92 502.5,-120.92 499,-130.92 506,-130.92"/>
</g>
<!-- p47 -->
<g id="node48" class="node">
<title>p47</title>
<ellipse fill="none" stroke="black" cx="502.5" cy="-58.6" rx="35.19" ry="18"/>
<text text-anchor="middle" x="502.5" y="-54.9" font-family="Times,serif" font-size="14.00">stack</text>
</g>
<!-- p46&#45;&gt;p47 -->
<g id="edge50" class="edge">
<title>p46&#45;&gt;p47</title>
<path fill="none" stroke="black" d="M502.5,-113.37C502.5,-108.43 502.5,-97.5 502.5,-86.77"/>
<polygon fill="black" stroke="black" points="506,-86.75 502.5,-76.75 499,-86.75 506,-86.75"/>
</g>
<!-- p48 -->
<g id="node49" class="node">
<title>p48</title>
<ellipse fill="black" stroke="black" cx="502.5" cy="-1.8" rx="1.8" ry="1.8"/>
</g>
<!-- p47&#45;&gt;p48 -->
<g id="edge51" class="edge">
<title>p47&#45;&gt;p48</title>
<path fill="none" stroke="black" d="M502.5,-40.56C502.5,-31.87 502.5,-21.56 502.5,-13.9"/>
<polygon fill="black" stroke="black" points="506,-13.76 502.5,-3.76 499,-13.76 506,-13.76"/>
</g>
</g>
</svg>
