<?xml version="1.0" encoding="UTF-8" standalone="no"?>
<!DOCTYPE svg PUBLIC "-//W3C//DTD SVG 1.1//EN"
 "http://www.w3.org/Graphics/SVG/1.1/DTD/svg11.dtd">
<!-- Generated by graphviz version 2.43.0 (0)
 -->
<!-- Title: dag Pages: 1 -->
<svg width="879pt" height="1975pt"
 viewBox="0.00 0.00 878.84 1975.40" xmlns="http://www.w3.org/2000/svg" xmlns:xlink="http://www.w3.org/1999/xlink">
<g id="graph0" class="graph" transform="scale(1 1) rotate(0) translate(4 1971.4)">
<title>dag</title>
<polygon fill="white" stroke="transparent" points="-4,4 -4,-1971.4 874.84,-1971.4 874.84,4 -4,4"/>
<!-- p0 -->
<g id="node1" class="node">
<title>p0</title>
<ellipse fill="black" stroke="black" cx="158.84" cy="-825.6" rx="3.6" ry="3.6"/>
<text text-anchor="middle" x="90.24" y="-833" font-family="Times,serif" font-size="14.00">Channel.fromPath</text>
</g>
<!-- p2 -->
<g id="node2" class="node">
<title>p2</title>
<ellipse fill="none" stroke="black" cx="167.84" cy="-767.1" rx="3.5" ry="3.5"/>
<text text-anchor="middle" x="140.84" y="-774.4" font-family="Times,serif" font-size="14.00">concat</text>
</g>
<!-- p0&#45;&gt;p2 -->
<g id="edge1" class="edge">
<title>p0&#45;&gt;p2</title>
<path fill="none" stroke="black" d="M159.27,-821.87C160.43,-814.59 163.66,-794.31 165.81,-780.85"/>
<polygon fill="black" stroke="black" points="169.31,-781.09 167.43,-770.67 162.4,-779.99 169.31,-781.09"/>
</g>
<!-- p3 -->
<g id="node4" class="node">
<title>p3</title>
<ellipse fill="none" stroke="black" cx="167.84" cy="-708.6" rx="3.5" ry="3.5"/>
<text text-anchor="middle" x="140.84" y="-715.9" font-family="Times,serif" font-size="14.00">collect</text>
</g>
<!-- p2&#45;&gt;p3 -->
<g id="edge3" class="edge">
<title>p2&#45;&gt;p3</title>
<path fill="none" stroke="black" d="M167.84,-763.37C167.84,-756.09 167.84,-735.81 167.84,-722.35"/>
<polygon fill="black" stroke="black" points="171.34,-722.17 167.84,-712.17 164.34,-722.17 171.34,-722.17"/>
</g>
<!-- p1 -->
<g id="node3" class="node">
<title>p1</title>
<ellipse fill="black" stroke="black" cx="183.84" cy="-825.6" rx="3.6" ry="3.6"/>
<text text-anchor="middle" x="141.74" y="-810.8" font-family="Times,serif" font-size="14.00">Channel.of</text>
</g>
<!-- p1&#45;&gt;p2 -->
<g id="edge2" class="edge">
<title>p1&#45;&gt;p2</title>
<path fill="none" stroke="black" d="M183.07,-821.87C180.98,-814.52 175.14,-793.89 171.33,-780.43"/>
<polygon fill="black" stroke="black" points="174.66,-779.34 168.56,-770.67 167.92,-781.24 174.66,-779.34"/>
</g>
<!-- p4 -->
<g id="node5" class="node">
<title>p4</title>
<ellipse fill="none" stroke="black" cx="167.84" cy="-621.6" rx="59.29" ry="18"/>
<text text-anchor="middle" x="167.84" y="-617.9" font-family="Times,serif" font-size="14.00">spat_lucas</text>
</g>
<!-- p3&#45;&gt;p4 -->
<g id="edge4" class="edge">
<title>p3&#45;&gt;p4</title>
<path fill="none" stroke="black" d="M167.84,-704.77C167.84,-696.28 167.84,-670.35 167.84,-649.87"/>
<polygon fill="black" stroke="black" points="171.34,-649.77 167.84,-639.77 164.34,-649.77 171.34,-649.77"/>
<text text-anchor="middle" x="186.34" y="-661.4" font-family="Times,serif" font-size="14.00">lucas</text>
</g>
<!-- p49 -->
<g id="node6" class="node">
<title>p49</title>
<ellipse fill="none" stroke="black" cx="167.84" cy="-549.1" rx="3.5" ry="3.5"/>
<text text-anchor="middle" x="133.84" y="-556.4" font-family="Times,serif" font-size="14.00">combine</text>
</g>
<!-- p4&#45;&gt;p49 -->
<g id="edge5" class="edge">
<title>p4&#45;&gt;p49</title>
<path fill="none" stroke="black" d="M167.84,-603.53C167.84,-590.98 167.84,-574.19 167.84,-562.8"/>
<polygon fill="black" stroke="black" points="171.34,-562.76 167.84,-552.76 164.34,-562.76 171.34,-562.76"/>
</g>
<!-- p50 -->
<g id="node52" class="node">
<title>p50</title>
<ellipse fill="none" stroke="black" cx="153.84" cy="-490.6" rx="143.77" ry="18"/>
<text text-anchor="middle" x="153.84" y="-486.9" font-family="Times,serif" font-size="14.00">create_classification_dataset</text>
</g>
<!-- p49&#45;&gt;p50 -->
<g id="edge55" class="edge">
<title>p49&#45;&gt;p50</title>
<path fill="none" stroke="black" d="M167.16,-545.37C165.94,-540.43 163.23,-529.5 160.57,-518.77"/>
<polygon fill="black" stroke="black" points="163.89,-517.62 158.09,-508.75 157.1,-519.3 163.89,-517.62"/>
</g>
<!-- p5 -->
<g id="node7" class="node">
<title>p5</title>
<ellipse fill="black" stroke="black" cx="521.84" cy="-1627" rx="3.6" ry="3.6"/>
<text text-anchor="middle" x="556.74" y="-1634.4" font-family="Times,serif" font-size="14.00">Channel.of</text>
</g>
<!-- p8 -->
<g id="node8" class="node">
<title>p8</title>
<ellipse fill="none" stroke="black" cx="221.84" cy="-1554.5" rx="3.5" ry="3.5"/>
<text text-anchor="middle" x="204.84" y="-1561.8" font-family="Times,serif" font-size="14.00">mix</text>
</g>
<!-- p5&#45;&gt;p8 -->
<g id="edge6" class="edge">
<title>p5&#45;&gt;p8</title>
<path fill="none" stroke="black" d="M519.52,-1623.84C515.47,-1620.17 506.66,-1612.77 497.84,-1609 491.63,-1606.35 289.97,-1568.31 235.36,-1558.04"/>
<polygon fill="black" stroke="black" points="235.71,-1554.55 225.24,-1556.14 234.42,-1561.43 235.71,-1554.55"/>
<text text-anchor="middle" x="462.34" y="-1579.8" font-family="Times,serif" font-size="14.00">spectral_indices</text>
</g>
<!-- p13 -->
<g id="node15" class="node">
<title>p13</title>
<ellipse fill="none" stroke="black" cx="689.84" cy="-1554.5" rx="3.5" ry="3.5"/>
<text text-anchor="middle" x="672.84" y="-1561.8" font-family="Times,serif" font-size="14.00">mix</text>
</g>
<!-- p5&#45;&gt;p13 -->
<g id="edge13" class="edge">
<title>p5&#45;&gt;p13</title>
<path fill="none" stroke="black" d="M525.28,-1625.69C540.86,-1624.15 606.07,-1616.43 651.84,-1591 663.51,-1584.52 674.37,-1573.68 681.47,-1565.68"/>
<polygon fill="black" stroke="black" points="684.32,-1567.73 688.06,-1557.81 678.96,-1563.23 684.32,-1567.73"/>
<text text-anchor="middle" x="728.34" y="-1579.8" font-family="Times,serif" font-size="14.00">spectral_indices</text>
</g>
<!-- p23 -->
<g id="node29" class="node">
<title>p23</title>
<ellipse fill="none" stroke="black" cx="543.84" cy="-1554.5" rx="3.5" ry="3.5"/>
<text text-anchor="middle" x="512.84" y="-1561.8" font-family="Times,serif" font-size="14.00">flatMap</text>
</g>
<!-- p5&#45;&gt;p23 -->
<g id="edge26" class="edge">
<title>p5&#45;&gt;p23</title>
<path fill="none" stroke="black" d="M522.18,-1623.21C523.17,-1615.51 526.42,-1593.34 532.84,-1576 534.01,-1572.84 535.58,-1569.57 537.17,-1566.59"/>
<polygon fill="black" stroke="black" points="540.29,-1568.19 542.33,-1557.8 534.25,-1564.65 540.29,-1568.19"/>
<text text-anchor="middle" x="590.34" y="-1579.8" font-family="Times,serif" font-size="14.00">spectral_indices</text>
</g>
<!-- p9 -->
<g id="node12" class="node">
<title>p9</title>
<ellipse fill="none" stroke="black" cx="137.84" cy="-1496.4" rx="3.5" ry="3.5"/>
<text text-anchor="middle" x="106.84" y="-1481.7" font-family="Times,serif" font-size="14.00">flatMap</text>
</g>
<!-- p8&#45;&gt;p9 -->
<g id="edge9" class="edge">
<title>p8&#45;&gt;p9</title>
<path fill="none" stroke="black" d="M219.41,-1551.88C209.11,-1545 168.54,-1517.91 148.78,-1504.71"/>
<polygon fill="black" stroke="black" points="150.69,-1501.78 140.43,-1499.13 146.81,-1507.6 150.69,-1501.78"/>
</g>
<!-- p6 -->
<g id="node9" class="node">
<title>p6</title>
<ellipse fill="black" stroke="black" cx="204.84" cy="-1496.4" rx="3.6" ry="3.6"/>
<text text-anchor="middle" x="162.74" y="-1503.8" font-family="Times,serif" font-size="14.00">Channel.of</text>
</g>
<!-- p10 -->
<g id="node10" class="node">
<title>p10</title>
<ellipse fill="none" stroke="black" cx="110.84" cy="-1402.8" rx="3.5" ry="3.5"/>
<text text-anchor="middle" x="76.84" y="-1410.1" font-family="Times,serif" font-size="14.00">combine</text>
</g>
<!-- p6&#45;&gt;p10 -->
<g id="edge7" class="edge">
<title>p6&#45;&gt;p10</title>
<path fill="none" stroke="black" d="M201.39,-1495.13C191.42,-1494.19 162.11,-1490.18 144.84,-1474.8 135.5,-1466.49 122.15,-1433.82 115.29,-1415.84"/>
<polygon fill="black" stroke="black" points="118.53,-1414.52 111.76,-1406.37 111.98,-1416.97 118.53,-1414.52"/>
<text text-anchor="middle" x="188.34" y="-1453.1" font-family="Times,serif" font-size="14.00">stm_choices</text>
</g>
<!-- p44 -->
<g id="node46" class="node">
<title>p44</title>
<ellipse fill="none" stroke="black" cx="257.84" cy="-884.1" rx="3.5" ry="3.5"/>
<text text-anchor="middle" x="223.84" y="-891.4" font-family="Times,serif" font-size="14.00">combine</text>
</g>
<!-- p6&#45;&gt;p44 -->
<g id="edge48" class="edge">
<title>p6&#45;&gt;p44</title>
<path fill="none" stroke="black" d="M207.93,-1493.98C213.66,-1491.19 225.85,-1484.41 231.84,-1474.8 248.84,-1447.5 245.84,-1435.96 245.84,-1403.8 245.84,-1403.8 245.84,-1403.8 245.84,-927.1 245.84,-916.71 249.28,-905.4 252.47,-897.14"/>
<polygon fill="black" stroke="black" points="255.81,-898.25 256.55,-887.68 249.38,-895.48 255.81,-898.25"/>
<text text-anchor="middle" x="289.34" y="-1143.4" font-family="Times,serif" font-size="14.00">stm_choices</text>
</g>
<!-- p11 -->
<g id="node13" class="node">
<title>p11</title>
<ellipse fill="black" stroke="black" cx="44.84" cy="-1330.2" rx="1.8" ry="1.8"/>
</g>
<!-- p10&#45;&gt;p11 -->
<g id="edge11" class="edge">
<title>p10&#45;&gt;p11</title>
<path fill="none" stroke="black" d="M107.64,-1401.23C96.65,-1399.08 60.37,-1390.37 45.84,-1366.8 41.29,-1359.43 41.42,-1349.48 42.47,-1341.97"/>
<polygon fill="black" stroke="black" points="45.89,-1342.68 44.54,-1332.18 39.05,-1341.24 45.89,-1342.68"/>
<text text-anchor="middle" x="138.84" y="-1355.6" font-family="Times,serif" font-size="14.00">stm_combination_sentinel</text>
</g>
<!-- p7 -->
<g id="node11" class="node">
<title>p7</title>
<ellipse fill="black" stroke="black" cx="221.84" cy="-1627" rx="3.6" ry="3.6"/>
<text text-anchor="middle" x="179.74" y="-1634.4" font-family="Times,serif" font-size="14.00">Channel.of</text>
</g>
<!-- p7&#45;&gt;p8 -->
<g id="edge8" class="edge">
<title>p7&#45;&gt;p8</title>
<path fill="none" stroke="black" d="M221.84,-1623.32C221.84,-1614.42 221.84,-1585.44 221.84,-1568.37"/>
<polygon fill="black" stroke="black" points="225.34,-1568.18 221.84,-1558.18 218.34,-1568.18 225.34,-1568.18"/>
</g>
<!-- p9&#45;&gt;p10 -->
<g id="edge10" class="edge">
<title>p9&#45;&gt;p10</title>
<path fill="none" stroke="black" d="M136.01,-1493.14C133.17,-1489.51 127.71,-1482.03 124.84,-1474.8 117.08,-1455.32 113.49,-1431.06 111.93,-1416.53"/>
<polygon fill="black" stroke="black" points="115.39,-1415.99 111,-1406.35 108.42,-1416.62 115.39,-1415.99"/>
</g>
<!-- p12 -->
<g id="node14" class="node">
<title>p12</title>
<ellipse fill="black" stroke="black" cx="814.84" cy="-1627" rx="3.6" ry="3.6"/>
<text text-anchor="middle" x="772.74" y="-1634.4" font-family="Times,serif" font-size="14.00">Channel.of</text>
</g>
<!-- p12&#45;&gt;p13 -->
<g id="edge12" class="edge">
<title>p12&#45;&gt;p13</title>
<path fill="none" stroke="black" d="M814.99,-1623.22C815.29,-1614.72 814.95,-1588.89 800.84,-1576 786.79,-1563.17 730.17,-1558.01 703.66,-1556.26"/>
<polygon fill="black" stroke="black" points="703.57,-1552.75 693.38,-1555.66 703.16,-1559.74 703.57,-1552.75"/>
</g>
<!-- p14 -->
<g id="node16" class="node">
<title>p14</title>
<ellipse fill="none" stroke="black" cx="689.84" cy="-1456.8" rx="3.5" ry="3.5"/>
<text text-anchor="middle" x="658.84" y="-1464.1" font-family="Times,serif" font-size="14.00">flatMap</text>
</g>
<!-- p13&#45;&gt;p14 -->
<g id="edge14" class="edge">
<title>p13&#45;&gt;p14</title>
<path fill="none" stroke="black" d="M689.84,-1550.74C689.84,-1539.06 689.84,-1493.25 689.84,-1470.61"/>
<polygon fill="black" stroke="black" points="693.34,-1470.39 689.84,-1460.39 686.34,-1470.39 693.34,-1470.39"/>
</g>
<!-- p43 -->
<g id="node17" class="node">
<title>p43</title>
<ellipse fill="none" stroke="black" cx="457.84" cy="-928.1" rx="3.5" ry="3.5"/>
<text text-anchor="middle" x="423.84" y="-935.4" font-family="Times,serif" font-size="14.00">combine</text>
</g>
<!-- p14&#45;&gt;p43 -->
<g id="edge15" class="edge">
<title>p14&#45;&gt;p43</title>
<path fill="none" stroke="black" d="M689.84,-1453.14C689.84,-1441.89 689.84,-1397.11 689.84,-1360.3 689.84,-1360.3 689.84,-1360.3 689.84,-985.1 689.84,-957.85 665.3,-959.32 639.84,-949.6 609.01,-937.83 508.56,-931.67 471.62,-929.76"/>
<polygon fill="black" stroke="black" points="471.59,-926.25 461.43,-929.26 471.24,-933.25 471.59,-926.25"/>
<text text-anchor="middle" x="780.34" y="-1176.4" font-family="Times,serif" font-size="14.00">stm_combination_landsat</text>
</g>
<!-- p43&#45;&gt;p44 -->
<g id="edge47" class="edge">
<title>p43&#45;&gt;p44</title>
<path fill="none" stroke="black" d="M454.7,-926.44C433.57,-922 311.86,-896.45 271.12,-887.89"/>
<polygon fill="black" stroke="black" points="271.63,-884.42 261.12,-885.79 270.19,-891.27 271.63,-884.42"/>
</g>
<!-- p15 -->
<g id="node18" class="node">
<title>p15</title>
<ellipse fill="black" stroke="black" cx="447.84" cy="-1948.8" rx="3.6" ry="3.6"/>
<text text-anchor="middle" x="364.24" y="-1956.2" font-family="Times,serif" font-size="14.00">Channel.fromFilePairs</text>
</g>
<!-- p16 -->
<g id="node19" class="node">
<title>p16</title>
<ellipse fill="none" stroke="black" cx="447.84" cy="-1904.7" rx="3.5" ry="3.5"/>
<text text-anchor="middle" x="428.84" y="-1912" font-family="Times,serif" font-size="14.00">map</text>
</g>
<!-- p15&#45;&gt;p16 -->
<g id="edge16" class="edge">
<title>p15&#45;&gt;p16</title>
<path fill="none" stroke="black" d="M447.84,-1945.04C447.84,-1939.75 447.84,-1927.88 447.84,-1918.55"/>
<polygon fill="black" stroke="black" points="451.34,-1918.53 447.84,-1908.53 444.34,-1918.53 451.34,-1918.53"/>
</g>
<!-- p17 -->
<g id="node20" class="node">
<title>p17</title>
<ellipse fill="none" stroke="black" cx="447.84" cy="-1860.7" rx="3.5" ry="3.5"/>
<text text-anchor="middle" x="426.84" y="-1868" font-family="Times,serif" font-size="14.00">filter</text>
</g>
<!-- p16&#45;&gt;p17 -->
<g id="edge17" class="edge">
<title>p16&#45;&gt;p17</title>
<path fill="none" stroke="black" d="M447.84,-1900.94C447.84,-1895.67 447.84,-1883.83 447.84,-1874.52"/>
<polygon fill="black" stroke="black" points="451.34,-1874.52 447.84,-1864.52 444.34,-1874.52 451.34,-1874.52"/>
</g>
<!-- p18 -->
<g id="node21" class="node">
<title>p18</title>
<ellipse fill="none" stroke="black" cx="447.84" cy="-1816.7" rx="3.5" ry="3.5"/>
<text text-anchor="middle" x="426.84" y="-1824" font-family="Times,serif" font-size="14.00">filter</text>
</g>
<!-- p17&#45;&gt;p18 -->
<g id="edge18" class="edge">
<title>p17&#45;&gt;p18</title>
<path fill="none" stroke="black" d="M447.84,-1856.94C447.84,-1851.67 447.84,-1839.83 447.84,-1830.52"/>
<polygon fill="black" stroke="black" points="451.34,-1830.52 447.84,-1820.52 444.34,-1830.52 451.34,-1830.52"/>
</g>
<!-- p19 -->
<g id="node22" class="node">
<title>p19</title>
<ellipse fill="none" stroke="black" cx="447.84" cy="-1772.6" rx="3.5" ry="3.5"/>
<text text-anchor="middle" x="432.34" y="-1779.9" font-family="Times,serif" font-size="14.00">tap</text>
</g>
<!-- p18&#45;&gt;p19 -->
<g id="edge19" class="edge">
<title>p18&#45;&gt;p19</title>
<path fill="none" stroke="black" d="M447.84,-1812.94C447.84,-1807.65 447.84,-1795.78 447.84,-1786.45"/>
<polygon fill="black" stroke="black" points="451.34,-1786.43 447.84,-1776.43 444.34,-1786.43 451.34,-1786.43"/>
</g>
<!-- p28 -->
<g id="node23" class="node">
<title>p28</title>
<ellipse fill="none" stroke="black" cx="651.84" cy="-1700" rx="3.5" ry="3.5"/>
<text text-anchor="middle" x="617.84" y="-1707.3" font-family="Times,serif" font-size="14.00">combine</text>
</g>
<!-- p19&#45;&gt;p28 -->
<g id="edge20" class="edge">
<title>p19&#45;&gt;p28</title>
<path fill="none" stroke="black" d="M449.88,-1769.62C456.25,-1763.58 476.53,-1745.2 496.84,-1736 545.87,-1713.8 610.19,-1705.11 638.02,-1702.23"/>
<polygon fill="black" stroke="black" points="638.66,-1705.69 648.29,-1701.27 638.01,-1698.72 638.66,-1705.69"/>
<text text-anchor="middle" x="574.84" y="-1739.8" font-family="Times,serif" font-size="14.00">predetermined_group</text>
</g>
<!-- p20 -->
<g id="node24" class="node">
<title>p20</title>
<ellipse fill="none" stroke="black" cx="403.84" cy="-1700" rx="91.78" ry="18"/>
<text text-anchor="middle" x="403.84" y="-1696.3" font-family="Times,serif" font-size="14.00">mask_layer_stack</text>
</g>
<!-- p19&#45;&gt;p20 -->
<g id="edge21" class="edge">
<title>p19&#45;&gt;p20</title>
<path fill="none" stroke="black" d="M444.61,-1771.19C436.29,-1769.94 414.07,-1765.34 404.84,-1751 400.52,-1744.3 399.17,-1735.98 399.22,-1728.06"/>
<polygon fill="black" stroke="black" points="402.71,-1728.27 399.95,-1718.05 395.73,-1727.77 402.71,-1728.27"/>
<text text-anchor="middle" x="437.34" y="-1739.8" font-family="Times,serif" font-size="14.00">ch_dataP</text>
</g>
<!-- p29 -->
<g id="node33" class="node">
<title>p29</title>
<ellipse fill="none" stroke="black" cx="651.84" cy="-1627" rx="3.5" ry="3.5"/>
<text text-anchor="middle" x="632.84" y="-1634.3" font-family="Times,serif" font-size="14.00">map</text>
</g>
<!-- p28&#45;&gt;p29 -->
<g id="edge32" class="edge">
<title>p28&#45;&gt;p29</title>
<path fill="none" stroke="black" d="M651.84,-1696.3C651.84,-1687.3 651.84,-1657.86 651.84,-1640.71"/>
<polygon fill="black" stroke="black" points="655.34,-1640.7 651.84,-1630.7 648.34,-1640.7 655.34,-1640.7"/>
</g>
<!-- p21 -->
<g id="node25" class="node">
<title>p21</title>
<ellipse fill="none" stroke="black" cx="403.84" cy="-1627" rx="85.29" ry="18"/>
<text text-anchor="middle" x="403.84" y="-1623.3" font-family="Times,serif" font-size="14.00">set_raster_scale</text>
</g>
<!-- p20&#45;&gt;p21 -->
<g id="edge22" class="edge">
<title>p20&#45;&gt;p21</title>
<path fill="none" stroke="black" d="M403.84,-1681.81C403.84,-1673.79 403.84,-1664.05 403.84,-1655.07"/>
<polygon fill="black" stroke="black" points="407.34,-1655.03 403.84,-1645.03 400.34,-1655.03 407.34,-1655.03"/>
</g>
<!-- p22 -->
<g id="node26" class="node">
<title>p22</title>
<ellipse fill="none" stroke="black" cx="403.84" cy="-1554.5" rx="3.5" ry="3.5"/>
<text text-anchor="middle" x="388.34" y="-1561.8" font-family="Times,serif" font-size="14.00">tap</text>
</g>
<!-- p21&#45;&gt;p22 -->
<g id="edge23" class="edge">
<title>p21&#45;&gt;p22</title>
<path fill="none" stroke="black" d="M403.84,-1608.93C403.84,-1596.38 403.84,-1579.59 403.84,-1568.2"/>
<polygon fill="black" stroke="black" points="407.34,-1568.16 403.84,-1558.16 400.34,-1568.16 407.34,-1568.16"/>
</g>
<!-- p24 -->
<g id="node27" class="node">
<title>p24</title>
<ellipse fill="none" stroke="black" cx="492.84" cy="-1496.4" rx="3.5" ry="3.5"/>
<text text-anchor="middle" x="458.84" y="-1503.7" font-family="Times,serif" font-size="14.00">combine</text>
</g>
<!-- p22&#45;&gt;p24 -->
<g id="edge24" class="edge">
<title>p22&#45;&gt;p24</title>
<path fill="none" stroke="black" d="M406.81,-1552.45C414.21,-1549.76 433.94,-1542.21 448.84,-1533 450.65,-1531.88 470.24,-1515.91 482.66,-1505.74"/>
<polygon fill="black" stroke="black" points="485.09,-1508.27 490.61,-1499.23 480.65,-1502.86 485.09,-1508.27"/>
<text text-anchor="middle" x="516.34" y="-1521.8" font-family="Times,serif" font-size="14.00">ch_for_indices</text>
</g>
<!-- p26 -->
<g id="node28" class="node">
<title>p26</title>
<ellipse fill="none" stroke="black" cx="356.84" cy="-1456.8" rx="96.38" ry="18"/>
<text text-anchor="middle" x="356.84" y="-1453.1" font-family="Times,serif" font-size="14.00">explode_base_files</text>
</g>
<!-- p22&#45;&gt;p26 -->
<g id="edge25" class="edge">
<title>p22&#45;&gt;p26</title>
<path fill="none" stroke="black" d="M400.51,-1553.38C390.95,-1552.85 363.3,-1549.85 351.84,-1533 342.39,-1519.11 343.67,-1500.24 347.3,-1484.88"/>
<polygon fill="black" stroke="black" points="350.77,-1485.48 350.09,-1474.91 344.02,-1483.6 350.77,-1485.48"/>
<text text-anchor="middle" x="398.34" y="-1521.8" font-family="Times,serif" font-size="14.00">ch_base_files</text>
</g>
<!-- p25 -->
<g id="node30" class="node">
<title>p25</title>
<ellipse fill="none" stroke="black" cx="492.84" cy="-1402.8" rx="131.08" ry="18"/>
<text text-anchor="middle" x="492.84" y="-1399.1" font-family="Times,serif" font-size="14.00">calculate_spectral_indices</text>
</g>
<!-- p24&#45;&gt;p25 -->
<g id="edge28" class="edge">
<title>p24&#45;&gt;p25</title>
<path fill="none" stroke="black" d="M492.84,-1492.76C492.84,-1483.79 492.84,-1453.84 492.84,-1431.14"/>
<polygon fill="black" stroke="black" points="496.34,-1431.02 492.84,-1421.02 489.34,-1431.02 496.34,-1431.02"/>
</g>
<!-- p34 -->
<g id="node31" class="node">
<title>p34</title>
<ellipse fill="none" stroke="black" cx="342.84" cy="-1330.2" rx="3.5" ry="3.5"/>
<text text-anchor="middle" x="325.84" y="-1337.5" font-family="Times,serif" font-size="14.00">mix</text>
</g>
<!-- p26&#45;&gt;p34 -->
<g id="edge30" class="edge">
<title>p26&#45;&gt;p34</title>
<path fill="none" stroke="black" d="M338.19,-1438.9C333.59,-1433.61 329.28,-1427.41 326.84,-1420.8 316.86,-1393.83 329.16,-1359.92 337.1,-1342.57"/>
<polygon fill="black" stroke="black" points="340.29,-1344.01 341.57,-1333.49 334.01,-1340.91 340.29,-1344.01"/>
</g>
<!-- p23&#45;&gt;p24 -->
<g id="edge27" class="edge">
<title>p23&#45;&gt;p24</title>
<path fill="none" stroke="black" d="M546.95,-1552.42C553.23,-1550.05 567.28,-1543.73 572.84,-1533 575.9,-1527.08 576.92,-1523.27 572.84,-1518 564.76,-1507.58 527.03,-1501.5 506.4,-1498.9"/>
<polygon fill="black" stroke="black" points="506.51,-1495.39 496.18,-1497.73 505.71,-1502.35 506.51,-1495.39"/>
</g>
<!-- p25&#45;&gt;p34 -->
<g id="edge29" class="edge">
<title>p25&#45;&gt;p34</title>
<path fill="none" stroke="black" d="M458.05,-1385.43C424.89,-1369.82 376.84,-1347.2 354.76,-1336.81"/>
<polygon fill="black" stroke="black" points="356.14,-1333.59 345.6,-1332.5 353.16,-1339.93 356.14,-1333.59"/>
</g>
<!-- p36 -->
<g id="node39" class="node">
<title>p36</title>
<ellipse fill="none" stroke="black" cx="408.84" cy="-1286.1" rx="3.5" ry="3.5"/>
<text text-anchor="middle" x="374.84" y="-1293.4" font-family="Times,serif" font-size="14.00">combine</text>
</g>
<!-- p34&#45;&gt;p36 -->
<g id="edge38" class="edge">
<title>p34&#45;&gt;p36</title>
<path fill="none" stroke="black" d="M345.34,-1327.6C353.84,-1322.18 381.88,-1304.29 397.71,-1294.2"/>
<polygon fill="black" stroke="black" points="399.78,-1297.03 406.33,-1288.7 396.01,-1291.13 399.78,-1297.03"/>
</g>
<!-- p27 -->
<g id="node32" class="node">
<title>p27</title>
<ellipse fill="black" stroke="black" cx="662.84" cy="-1772.6" rx="3.6" ry="3.6"/>
</g>
<!-- p27&#45;&gt;p28 -->
<g id="edge31" class="edge">
<title>p27&#45;&gt;p28</title>
<path fill="none" stroke="black" d="M662.42,-1768.92C661.03,-1760.01 656.51,-1730.98 653.85,-1713.89"/>
<polygon fill="black" stroke="black" points="657.25,-1713.03 652.25,-1703.68 650.34,-1714.1 657.25,-1713.03"/>
</g>
<!-- p30 -->
<g id="node34" class="node">
<title>p30</title>
<ellipse fill="none" stroke="black" cx="651.84" cy="-1554.5" rx="3.5" ry="3.5"/>
<text text-anchor="middle" x="630.84" y="-1561.8" font-family="Times,serif" font-size="14.00">filter</text>
</g>
<!-- p29&#45;&gt;p30 -->
<g id="edge33" class="edge">
<title>p29&#45;&gt;p30</title>
<path fill="none" stroke="black" d="M651.84,-1623.32C651.84,-1614.42 651.84,-1585.44 651.84,-1568.37"/>
<polygon fill="black" stroke="black" points="655.34,-1568.18 651.84,-1558.18 648.34,-1568.18 655.34,-1568.18"/>
</g>
<!-- p31 -->
<g id="node35" class="node">
<title>p31</title>
<ellipse fill="none" stroke="black" cx="651.84" cy="-1496.4" rx="3.5" ry="3.5"/>
<text text-anchor="middle" x="607.34" y="-1503.7" font-family="Times,serif" font-size="14.00">groupTuple</text>
</g>
<!-- p30&#45;&gt;p31 -->
<g id="edge34" class="edge">
<title>p30&#45;&gt;p31</title>
<path fill="none" stroke="black" d="M651.84,-1550.79C651.84,-1543.56 651.84,-1523.43 651.84,-1510.06"/>
<polygon fill="black" stroke="black" points="655.34,-1509.95 651.84,-1499.95 648.34,-1509.95 655.34,-1509.95"/>
</g>
<!-- p32 -->
<g id="node36" class="node">
<title>p32</title>
<ellipse fill="none" stroke="black" cx="561.84" cy="-1359.3" rx="3.5" ry="3.5"/>
<text text-anchor="middle" x="542.84" y="-1366.6" font-family="Times,serif" font-size="14.00">map</text>
</g>
<!-- p31&#45;&gt;p32 -->
<g id="edge35" class="edge">
<title>p31&#45;&gt;p32</title>
<path fill="none" stroke="black" d="M652.29,-1492.58C654.33,-1478.86 661.35,-1418.35 632.84,-1384.8 618.44,-1367.85 591.72,-1362.61 575.48,-1361"/>
<polygon fill="black" stroke="black" points="575.69,-1357.51 565.48,-1360.34 575.23,-1364.49 575.69,-1357.51"/>
</g>
<!-- p39 -->
<g id="node37" class="node">
<title>p39</title>
<ellipse fill="none" stroke="black" cx="457.84" cy="-1118.1" rx="3.5" ry="3.5"/>
<text text-anchor="middle" x="423.84" y="-1125.4" font-family="Times,serif" font-size="14.00">combine</text>
</g>
<!-- p32&#45;&gt;p39 -->
<g id="edge36" class="edge">
<title>p32&#45;&gt;p39</title>
<path fill="none" stroke="black" d="M558.42,-1358.07C541.98,-1356.79 471.84,-1348.94 471.84,-1308.6 471.84,-1308.6 471.84,-1308.6 471.84,-1179.1 471.84,-1162.27 466.55,-1143.46 462.47,-1131.47"/>
<polygon fill="black" stroke="black" points="465.66,-1129.99 458.94,-1121.8 459.08,-1132.39 465.66,-1129.99"/>
<text text-anchor="middle" x="570.84" y="-1253.4" font-family="Times,serif" font-size="14.00">predetermined_group_sizes</text>
</g>
<!-- p40 -->
<g id="node43" class="node">
<title>p40</title>
<ellipse fill="none" stroke="black" cx="457.84" cy="-1074.1" rx="3.5" ry="3.5"/>
<text text-anchor="middle" x="438.84" y="-1081.4" font-family="Times,serif" font-size="14.00">map</text>
</g>
<!-- p39&#45;&gt;p40 -->
<g id="edge43" class="edge">
<title>p39&#45;&gt;p40</title>
<path fill="none" stroke="black" d="M457.84,-1114.34C457.84,-1109.07 457.84,-1097.23 457.84,-1087.92"/>
<polygon fill="black" stroke="black" points="461.34,-1087.92 457.84,-1077.92 454.34,-1087.92 461.34,-1087.92"/>
</g>
<!-- p33 -->
<g id="node38" class="node">
<title>p33</title>
<ellipse fill="black" stroke="black" cx="339.84" cy="-1402.8" rx="3.6" ry="3.6"/>
<text text-anchor="middle" x="281.74" y="-1410.2" font-family="Times,serif" font-size="14.00">Channel.empty</text>
</g>
<!-- p33&#45;&gt;p34 -->
<g id="edge37" class="edge">
<title>p33&#45;&gt;p34</title>
<path fill="none" stroke="black" d="M339.95,-1399.12C340.33,-1390.21 341.56,-1361.18 342.29,-1344.09"/>
<polygon fill="black" stroke="black" points="345.79,-1344.02 342.72,-1333.88 338.8,-1343.73 345.79,-1344.02"/>
</g>
<!-- p37 -->
<g id="node41" class="node">
<title>p37</title>
<ellipse fill="none" stroke="black" cx="434.84" cy="-1228.1" rx="3.5" ry="3.5"/>
<text text-anchor="middle" x="415.84" y="-1235.4" font-family="Times,serif" font-size="14.00">map</text>
</g>
<!-- p36&#45;&gt;p37 -->
<g id="edge40" class="edge">
<title>p36&#45;&gt;p37</title>
<path fill="none" stroke="black" d="M409.95,-1282.69C413.26,-1275.57 423.17,-1254.24 429.44,-1240.73"/>
<polygon fill="black" stroke="black" points="432.72,-1241.98 433.75,-1231.43 426.37,-1239.03 432.72,-1241.98"/>
</g>
<!-- p35 -->
<g id="node40" class="node">
<title>p35</title>
<ellipse fill="black" stroke="black" cx="408.84" cy="-1330.2" rx="3.6" ry="3.6"/>
</g>
<!-- p35&#45;&gt;p36 -->
<g id="edge39" class="edge">
<title>p35&#45;&gt;p36</title>
<path fill="none" stroke="black" d="M408.84,-1326.44C408.84,-1321.15 408.84,-1309.28 408.84,-1299.95"/>
<polygon fill="black" stroke="black" points="412.34,-1299.93 408.84,-1289.93 405.34,-1299.93 412.34,-1299.93"/>
</g>
<!-- p38 -->
<g id="node42" class="node">
<title>p38</title>
<ellipse fill="none" stroke="black" cx="437.84" cy="-1180.1" rx="3.5" ry="3.5"/>
<text text-anchor="middle" x="416.84" y="-1187.4" font-family="Times,serif" font-size="14.00">filter</text>
</g>
<!-- p37&#45;&gt;p38 -->
<g id="edge41" class="edge">
<title>p37&#45;&gt;p38</title>
<path fill="none" stroke="black" d="M435.02,-1224.36C435.4,-1218.53 436.31,-1204.57 436.99,-1194.07"/>
<polygon fill="black" stroke="black" points="440.5,-1193.97 437.66,-1183.77 433.52,-1193.52 440.5,-1193.97"/>
</g>
<!-- p38&#45;&gt;p39 -->
<g id="edge42" class="edge">
<title>p38&#45;&gt;p39</title>
<path fill="none" stroke="black" d="M438.7,-1176.52C441.27,-1168.81 449.01,-1145.57 453.83,-1131.13"/>
<polygon fill="black" stroke="black" points="457.16,-1132.2 457,-1121.6 450.52,-1129.98 457.16,-1132.2"/>
</g>
<!-- p41 -->
<g id="node44" class="node">
<title>p41</title>
<ellipse fill="none" stroke="black" cx="457.84" cy="-1030.1" rx="3.5" ry="3.5"/>
<text text-anchor="middle" x="413.34" y="-1037.4" font-family="Times,serif" font-size="14.00">groupTuple</text>
</g>
<!-- p40&#45;&gt;p41 -->
<g id="edge44" class="edge">
<title>p40&#45;&gt;p41</title>
<path fill="none" stroke="black" d="M457.84,-1070.34C457.84,-1065.07 457.84,-1053.23 457.84,-1043.92"/>
<polygon fill="black" stroke="black" points="461.34,-1043.92 457.84,-1033.92 454.34,-1043.92 461.34,-1043.92"/>
</g>
<!-- p42 -->
<g id="node45" class="node">
<title>p42</title>
<ellipse fill="none" stroke="black" cx="457.84" cy="-986.1" rx="3.5" ry="3.5"/>
<text text-anchor="middle" x="438.84" y="-993.4" font-family="Times,serif" font-size="14.00">map</text>
</g>
<!-- p41&#45;&gt;p42 -->
<g id="edge45" class="edge">
<title>p41&#45;&gt;p42</title>
<path fill="none" stroke="black" d="M457.84,-1026.34C457.84,-1021.07 457.84,-1009.23 457.84,-999.92"/>
<polygon fill="black" stroke="black" points="461.34,-999.92 457.84,-989.92 454.34,-999.92 461.34,-999.92"/>
</g>
<!-- p42&#45;&gt;p43 -->
<g id="edge46" class="edge">
<title>p42&#45;&gt;p43</title>
<path fill="none" stroke="black" d="M457.84,-982.4C457.84,-975.18 457.84,-955.08 457.84,-941.73"/>
<polygon fill="black" stroke="black" points="461.34,-941.64 457.84,-931.64 454.34,-941.64 461.34,-941.64"/>
<text text-anchor="middle" x="546.84" y="-953.4" font-family="Times,serif" font-size="14.00">ch_group_stacked_raster</text>
</g>
<!-- p45 -->
<g id="node47" class="node">
<title>p45</title>
<ellipse fill="none" stroke="black" cx="257.84" cy="-825.6" rx="45.49" ry="18"/>
<text text-anchor="middle" x="257.84" y="-821.9" font-family="Times,serif" font-size="14.00">stms_ls</text>
</g>
<!-- p44&#45;&gt;p45 -->
<g id="edge49" class="edge">
<title>p44&#45;&gt;p45</title>
<path fill="none" stroke="black" d="M257.84,-880.37C257.84,-875.43 257.84,-864.5 257.84,-853.77"/>
<polygon fill="black" stroke="black" points="261.34,-853.75 257.84,-843.75 254.34,-853.75 261.34,-853.75"/>
</g>
<!-- p46 -->
<g id="node48" class="node">
<title>p46</title>
<ellipse fill="none" stroke="black" cx="257.84" cy="-767.1" rx="3.5" ry="3.5"/>
<text text-anchor="middle" x="213.34" y="-774.4" font-family="Times,serif" font-size="14.00">groupTuple</text>
</g>
<!-- p45&#45;&gt;p46 -->
<g id="edge50" class="edge">
<title>p45&#45;&gt;p46</title>
<path fill="none" stroke="black" d="M257.84,-807.34C257.84,-798.76 257.84,-788.57 257.84,-780.72"/>
<polygon fill="black" stroke="black" points="261.34,-780.66 257.84,-770.66 254.34,-780.66 261.34,-780.66"/>
</g>
<!-- p47 -->
<g id="node49" class="node">
<title>p47</title>
<ellipse fill="none" stroke="black" cx="257.84" cy="-708.6" rx="35.19" ry="18"/>
<text text-anchor="middle" x="257.84" y="-704.9" font-family="Times,serif" font-size="14.00">stack</text>
</g>
<!-- p46&#45;&gt;p47 -->
<g id="edge51" class="edge">
<title>p46&#45;&gt;p47</title>
<path fill="none" stroke="black" d="M257.84,-763.37C257.84,-758.43 257.84,-747.5 257.84,-736.77"/>
<polygon fill="black" stroke="black" points="261.34,-736.75 257.84,-726.75 254.34,-736.75 261.34,-736.75"/>
</g>
<!-- p48 -->
<g id="node50" class="node">
<title>p48</title>
<ellipse fill="none" stroke="black" cx="257.84" cy="-621.6" rx="3.5" ry="3.5"/>
<text text-anchor="middle" x="242.34" y="-628.9" font-family="Times,serif" font-size="14.00">tap</text>
</g>
<!-- p47&#45;&gt;p48 -->
<g id="edge52" class="edge">
<title>p47&#45;&gt;p48</title>
<path fill="none" stroke="black" d="M257.84,-690.4C257.84,-674.21 257.84,-650.31 257.84,-635.64"/>
<polygon fill="black" stroke="black" points="261.34,-635.24 257.84,-625.24 254.34,-635.24 261.34,-635.24"/>
</g>
<!-- p48&#45;&gt;p49 -->
<g id="edge53" class="edge">
<title>p48&#45;&gt;p49</title>
<path fill="none" stroke="black" d="M255.55,-618.77C251.59,-615.62 243.16,-608.96 235.84,-603.6 224.49,-595.3 220.99,-594.15 209.84,-585.6 198.51,-576.92 186.09,-566.27 177.71,-558.91"/>
<polygon fill="black" stroke="black" points="179.85,-556.13 170.05,-552.1 175.2,-561.36 179.85,-556.13"/>
<text text-anchor="middle" x="260.84" y="-574.4" font-family="Times,serif" font-size="14.00">training_stack</text>
</g>
<!-- p54 -->
<g id="node51" class="node">
<title>p54</title>
<ellipse fill="none" stroke="black" cx="265.84" cy="-234.1" rx="3.5" ry="3.5"/>
<text text-anchor="middle" x="231.84" y="-241.4" font-family="Times,serif" font-size="14.00">combine</text>
</g>
<!-- p48&#45;&gt;p54 -->
<g id="edge54" class="edge">
<title>p48&#45;&gt;p54</title>
<path fill="none" stroke="black" d="M260.74,-619.48C269.65,-615.9 296.84,-603.93 311.84,-585.6 322.58,-572.47 325.84,-567.06 325.84,-550.1 325.84,-550.1 325.84,-550.1 325.84,-291.6 325.84,-265.79 296.05,-248.3 278.45,-240.22"/>
<polygon fill="black" stroke="black" points="279.31,-236.79 268.73,-236.14 276.6,-243.24 279.31,-236.79"/>
<text text-anchor="middle" x="394.34" y="-424.4" font-family="Times,serif" font-size="14.00">classification_stack</text>
</g>
<!-- p55 -->
<g id="node56" class="node">
<title>p55</title>
<ellipse fill="none" stroke="black" cx="265.84" cy="-175.6" rx="89.88" ry="18"/>
<text text-anchor="middle" x="265.84" y="-171.9" font-family="Times,serif" font-size="14.00">predict_classifier</text>
</g>
<!-- p54&#45;&gt;p55 -->
<g id="edge60" class="edge">
<title>p54&#45;&gt;p55</title>
<path fill="none" stroke="black" d="M265.84,-230.37C265.84,-225.43 265.84,-214.5 265.84,-203.77"/>
<polygon fill="black" stroke="black" points="269.34,-203.75 265.84,-193.75 262.34,-203.75 269.34,-203.75"/>
</g>
<!-- p51 -->
<g id="node53" class="node">
<title>p51</title>
<ellipse fill="none" stroke="black" cx="150.84" cy="-428.1" rx="3.5" ry="3.5"/>
<text text-anchor="middle" x="123.84" y="-435.4" font-family="Times,serif" font-size="14.00">collect</text>
</g>
<!-- p50&#45;&gt;p51 -->
<g id="edge56" class="edge">
<title>p50&#45;&gt;p51</title>
<path fill="none" stroke="black" d="M152.99,-472.42C152.51,-462.85 151.93,-451.11 151.49,-442.26"/>
<polygon fill="black" stroke="black" points="154.97,-441.79 150.98,-431.97 147.98,-442.13 154.97,-441.79"/>
</g>
<!-- p52 -->
<g id="node54" class="node">
<title>p52</title>
<ellipse fill="none" stroke="black" cx="148.84" cy="-365.6" rx="148.67" ry="18"/>
<text text-anchor="middle" x="148.84" y="-361.9" font-family="Times,serif" font-size="14.00">merge_classification_datasets</text>
</g>
<!-- p51&#45;&gt;p52 -->
<g id="edge57" class="edge">
<title>p51&#45;&gt;p52</title>
<path fill="none" stroke="black" d="M150.75,-424.5C150.57,-419.15 150.15,-406.37 149.75,-394.18"/>
<polygon fill="black" stroke="black" points="153.23,-393.69 149.41,-383.82 146.24,-393.93 153.23,-393.69"/>
</g>
<!-- p53 -->
<g id="node55" class="node">
<title>p53</title>
<ellipse fill="none" stroke="black" cx="192.84" cy="-292.6" rx="90.98" ry="18"/>
<text text-anchor="middle" x="192.84" y="-288.9" font-family="Times,serif" font-size="14.00">train_rf_classifier</text>
</g>
<!-- p52&#45;&gt;p53 -->
<g id="edge58" class="edge">
<title>p52&#45;&gt;p53</title>
<path fill="none" stroke="black" d="M159.49,-347.41C164.73,-338.95 171.16,-328.58 176.96,-319.21"/>
<polygon fill="black" stroke="black" points="179.99,-320.97 182.28,-310.63 174.04,-317.29 179.99,-320.97"/>
</g>
<!-- p53&#45;&gt;p54 -->
<g id="edge59" class="edge">
<title>p53&#45;&gt;p54</title>
<path fill="none" stroke="black" d="M214.34,-274.95C227.86,-264.49 244.69,-251.47 255.35,-243.21"/>
<polygon fill="black" stroke="black" points="257.61,-245.89 263.38,-237 253.33,-240.36 257.61,-245.89"/>
</g>
<!-- p56 -->
<g id="node57" class="node">
<title>p56</title>
<ellipse fill="none" stroke="black" cx="265.84" cy="-117.1" rx="3.5" ry="3.5"/>
<text text-anchor="middle" x="238.84" y="-124.4" font-family="Times,serif" font-size="14.00">collect</text>
</g>
<!-- p55&#45;&gt;p56 -->
<g id="edge61" class="edge">
<title>p55&#45;&gt;p56</title>
<path fill="none" stroke="black" d="M265.84,-157.34C265.84,-148.76 265.84,-138.57 265.84,-130.72"/>
<polygon fill="black" stroke="black" points="269.34,-130.66 265.84,-120.66 262.34,-130.66 269.34,-130.66"/>
</g>
<!-- p57 -->
<g id="node58" class="node">
<title>p57</title>
<ellipse fill="none" stroke="black" cx="265.84" cy="-58.6" rx="79.09" ry="18"/>
<text text-anchor="middle" x="265.84" y="-54.9" font-family="Times,serif" font-size="14.00">build_class_vrt</text>
</g>
<!-- p56&#45;&gt;p57 -->
<g id="edge62" class="edge">
<title>p56&#45;&gt;p57</title>
<path fill="none" stroke="black" d="M265.84,-113.37C265.84,-108.43 265.84,-97.5 265.84,-86.77"/>
<polygon fill="black" stroke="black" points="269.34,-86.75 265.84,-76.75 262.34,-86.75 269.34,-86.75"/>
</g>
<!-- p58 -->
<g id="node59" class="node">
<title>p58</title>
<ellipse fill="black" stroke="black" cx="265.84" cy="-1.8" rx="1.8" ry="1.8"/>
</g>
<!-- p57&#45;&gt;p58 -->
<g id="edge63" class="edge">
<title>p57&#45;&gt;p58</title>
<path fill="none" stroke="black" d="M265.84,-40.56C265.84,-31.87 265.84,-21.56 265.84,-13.9"/>
<polygon fill="black" stroke="black" points="269.34,-13.76 265.84,-3.76 262.34,-13.76 269.34,-13.76"/>
</g>
</g>
</svg>
