<?xml version="1.0" encoding="UTF-8" standalone="no"?>
<!DOCTYPE svg PUBLIC "-//W3C//DTD SVG 1.1//EN"
 "http://www.w3.org/Graphics/SVG/1.1/DTD/svg11.dtd">
<!-- Generated by graphviz version 2.43.0 (0)
 -->
<!-- Title: dag Pages: 1 -->
<svg width="719pt" height="1164pt"
 viewBox="0.00 0.00 719.09 1164.00" xmlns="http://www.w3.org/2000/svg" xmlns:xlink="http://www.w3.org/1999/xlink">
<g id="graph0" class="graph" transform="scale(1 1) rotate(0) translate(4 1160)">
<title>dag</title>
<polygon fill="white" stroke="transparent" points="-4,4 -4,-1160 715.09,-1160 715.09,4 -4,4"/>
<!-- p0 -->
<g id="node1" class="node">
<title>p0</title>
<ellipse fill="black" stroke="black" cx="489.6" cy="-1137.4" rx="3.6" ry="3.6"/>
<text text-anchor="middle" x="421" y="-1144.8" font-family="Times,serif" font-size="14.00">Channel.fromPath</text>
</g>
<!-- p2 -->
<g id="node2" class="node">
<title>p2</title>
<ellipse fill="none" stroke="black" cx="501.6" cy="-1093.3" rx="3.5" ry="3.5"/>
<text text-anchor="middle" x="474.6" y="-1100.6" font-family="Times,serif" font-size="14.00">concat</text>
</g>
<!-- p0&#45;&gt;p2 -->
<g id="edge1" class="edge">
<title>p0&#45;&gt;p2</title>
<path fill="none" stroke="black" d="M490.39,-1133.64C491.91,-1128.29 495.35,-1116.21 498.03,-1106.84"/>
<polygon fill="black" stroke="black" points="501.42,-1107.7 500.79,-1097.13 494.69,-1105.79 501.42,-1107.7"/>
</g>
<!-- p3 -->
<g id="node4" class="node">
<title>p3</title>
<ellipse fill="none" stroke="black" cx="501.6" cy="-1049.3" rx="3.5" ry="3.5"/>
<text text-anchor="middle" x="474.6" y="-1056.6" font-family="Times,serif" font-size="14.00">collect</text>
</g>
<!-- p2&#45;&gt;p3 -->
<g id="edge3" class="edge">
<title>p2&#45;&gt;p3</title>
<path fill="none" stroke="black" d="M501.6,-1089.54C501.6,-1084.27 501.6,-1072.43 501.6,-1063.12"/>
<polygon fill="black" stroke="black" points="505.1,-1063.12 501.6,-1053.12 498.1,-1063.12 505.1,-1063.12"/>
</g>
<!-- p1 -->
<g id="node3" class="node">
<title>p1</title>
<ellipse fill="black" stroke="black" cx="514.6" cy="-1137.4" rx="3.6" ry="3.6"/>
<text text-anchor="middle" x="472.5" y="-1122.6" font-family="Times,serif" font-size="14.00">Channel.of</text>
</g>
<!-- p1&#45;&gt;p2 -->
<g id="edge2" class="edge">
<title>p1&#45;&gt;p2</title>
<path fill="none" stroke="black" d="M513.75,-1133.64C512.09,-1128.29 508.37,-1116.21 505.47,-1106.84"/>
<polygon fill="black" stroke="black" points="508.77,-1105.65 502.47,-1097.13 502.08,-1107.72 508.77,-1105.65"/>
</g>
<!-- p4 -->
<g id="node5" class="node">
<title>p4</title>
<ellipse fill="black" stroke="black" cx="501.6" cy="-991.3" rx="1.8" ry="1.8"/>
</g>
<!-- p3&#45;&gt;p4 -->
<g id="edge4" class="edge">
<title>p3&#45;&gt;p4</title>
<path fill="none" stroke="black" d="M501.6,-1045.6C501.6,-1038.15 501.6,-1017.01 501.6,-1003.7"/>
<polygon fill="black" stroke="black" points="505.1,-1003.35 501.6,-993.35 498.1,-1003.35 505.1,-1003.35"/>
<text text-anchor="middle" x="520.1" y="-1016.6" font-family="Times,serif" font-size="14.00">lucas</text>
</g>
<!-- p5 -->
<g id="node6" class="node">
<title>p5</title>
<ellipse fill="black" stroke="black" cx="276.6" cy="-874.8" rx="3.6" ry="3.6"/>
<text text-anchor="middle" x="234.5" y="-882.2" font-family="Times,serif" font-size="14.00">Channel.of</text>
</g>
<!-- p8 -->
<g id="node7" class="node">
<title>p8</title>
<ellipse fill="none" stroke="black" cx="276.6" cy="-802.3" rx="3.5" ry="3.5"/>
<text text-anchor="middle" x="259.6" y="-809.6" font-family="Times,serif" font-size="14.00">mix</text>
</g>
<!-- p5&#45;&gt;p8 -->
<g id="edge5" class="edge">
<title>p5&#45;&gt;p8</title>
<path fill="none" stroke="black" d="M276.6,-871.12C276.6,-862.22 276.6,-833.24 276.6,-816.17"/>
<polygon fill="black" stroke="black" points="280.1,-815.98 276.6,-805.98 273.1,-815.98 280.1,-815.98"/>
<text text-anchor="middle" x="334.1" y="-827.6" font-family="Times,serif" font-size="14.00">spectral_indices</text>
</g>
<!-- p13 -->
<g id="node14" class="node">
<title>p13</title>
<ellipse fill="none" stroke="black" cx="95.6" cy="-802.3" rx="3.5" ry="3.5"/>
<text text-anchor="middle" x="78.6" y="-809.6" font-family="Times,serif" font-size="14.00">mix</text>
</g>
<!-- p5&#45;&gt;p13 -->
<g id="edge12" class="edge">
<title>p5&#45;&gt;p13</title>
<path fill="none" stroke="black" d="M273.19,-873.1C258.77,-870.1 201.58,-857.55 157.6,-838.8 139.08,-830.9 119.12,-818.75 106.99,-810.91"/>
<polygon fill="black" stroke="black" points="108.59,-807.77 98.32,-805.17 104.73,-813.61 108.59,-807.77"/>
<text text-anchor="middle" x="215.1" y="-827.6" font-family="Times,serif" font-size="14.00">spectral_indices</text>
</g>
<!-- p24 -->
<g id="node28" class="node">
<title>p24</title>
<ellipse fill="none" stroke="black" cx="406.6" cy="-802.3" rx="3.5" ry="3.5"/>
<text text-anchor="middle" x="375.6" y="-809.6" font-family="Times,serif" font-size="14.00">flatMap</text>
</g>
<!-- p5&#45;&gt;p24 -->
<g id="edge26" class="edge">
<title>p5&#45;&gt;p24</title>
<path fill="none" stroke="black" d="M280.38,-873.79C296.24,-873.52 358.24,-870.43 392.6,-838.8 399.05,-832.86 402.57,-823.58 404.47,-816"/>
<polygon fill="black" stroke="black" points="407.95,-816.44 406.33,-805.97 401.07,-815.16 407.95,-816.44"/>
<text text-anchor="middle" x="459.1" y="-827.6" font-family="Times,serif" font-size="14.00">spectral_indices</text>
</g>
<!-- p9 -->
<g id="node11" class="node">
<title>p9</title>
<ellipse fill="none" stroke="black" cx="324.6" cy="-744.2" rx="3.5" ry="3.5"/>
<text text-anchor="middle" x="293.6" y="-751.5" font-family="Times,serif" font-size="14.00">flatMap</text>
</g>
<!-- p8&#45;&gt;p9 -->
<g id="edge8" class="edge">
<title>p8&#45;&gt;p9</title>
<path fill="none" stroke="black" d="M278.66,-798.89C285.01,-791.47 304.52,-768.67 315.97,-755.28"/>
<polygon fill="black" stroke="black" points="318.96,-757.17 322.81,-747.3 313.65,-752.62 318.96,-757.17"/>
</g>
<!-- p6 -->
<g id="node8" class="node">
<title>p6</title>
<ellipse fill="black" stroke="black" cx="183.6" cy="-744.2" rx="3.6" ry="3.6"/>
<text text-anchor="middle" x="141.5" y="-751.6" font-family="Times,serif" font-size="14.00">Channel.of</text>
</g>
<!-- p10 -->
<g id="node9" class="node">
<title>p10</title>
<ellipse fill="none" stroke="black" cx="242.6" cy="-650.6" rx="3.5" ry="3.5"/>
<text text-anchor="middle" x="208.6" y="-657.9" font-family="Times,serif" font-size="14.00">combine</text>
</g>
<!-- p6&#45;&gt;p10 -->
<g id="edge6" class="edge">
<title>p6&#45;&gt;p10</title>
<path fill="none" stroke="black" d="M186.81,-742.03C193.35,-739.49 208.26,-732.88 216.6,-722.6 230.68,-705.26 237.53,-679.6 240.54,-664.35"/>
<polygon fill="black" stroke="black" points="244.06,-664.53 242.28,-654.09 237.16,-663.36 244.06,-664.53"/>
<text text-anchor="middle" x="277.1" y="-700.9" font-family="Times,serif" font-size="14.00">stm_choices</text>
</g>
<!-- p15 -->
<g id="node16" class="node">
<title>p15</title>
<ellipse fill="none" stroke="black" cx="128.6" cy="-650.6" rx="3.5" ry="3.5"/>
<text text-anchor="middle" x="94.6" y="-657.9" font-family="Times,serif" font-size="14.00">combine</text>
</g>
<!-- p6&#45;&gt;p15 -->
<g id="edge15" class="edge">
<title>p6&#45;&gt;p15</title>
<path fill="none" stroke="black" d="M180.17,-743.12C170.28,-742.67 141.67,-739.87 129.6,-722.6 117.46,-705.24 121.17,-679.18 124.92,-663.94"/>
<polygon fill="black" stroke="black" points="128.35,-664.68 127.73,-654.1 121.62,-662.75 128.35,-664.68"/>
<text text-anchor="middle" x="173.1" y="-700.9" font-family="Times,serif" font-size="14.00">stm_choices</text>
</g>
<!-- p11 -->
<g id="node12" class="node">
<title>p11</title>
<ellipse fill="black" stroke="black" cx="242.6" cy="-578.1" rx="1.8" ry="1.8"/>
</g>
<!-- p10&#45;&gt;p11 -->
<g id="edge10" class="edge">
<title>p10&#45;&gt;p11</title>
<path fill="none" stroke="black" d="M242.6,-646.92C242.6,-637.69 242.6,-606.86 242.6,-590.13"/>
<polygon fill="black" stroke="black" points="246.1,-590.06 242.6,-580.06 239.1,-590.06 246.1,-590.06"/>
<text text-anchor="middle" x="335.6" y="-603.4" font-family="Times,serif" font-size="14.00">stm_combination_sentinel</text>
</g>
<!-- p7 -->
<g id="node10" class="node">
<title>p7</title>
<ellipse fill="black" stroke="black" cx="105.6" cy="-874.8" rx="3.6" ry="3.6"/>
<text text-anchor="middle" x="63.5" y="-882.2" font-family="Times,serif" font-size="14.00">Channel.of</text>
</g>
<!-- p7&#45;&gt;p8 -->
<g id="edge7" class="edge">
<title>p7&#45;&gt;p8</title>
<path fill="none" stroke="black" d="M105.42,-870.99C105.03,-862.39 105.15,-836.31 119.6,-823.8 140.88,-805.37 228.62,-803.31 262.84,-803.22"/>
<polygon fill="black" stroke="black" points="263.08,-806.72 273.09,-803.25 263.1,-799.72 263.08,-806.72"/>
</g>
<!-- p9&#45;&gt;p10 -->
<g id="edge9" class="edge">
<title>p9&#45;&gt;p10</title>
<path fill="none" stroke="black" d="M325.55,-740.72C328.64,-732.16 337.52,-703.44 324.6,-686.6 305.84,-662.13 283.8,-684.85 257.6,-668.6 254.81,-666.87 252.25,-664.46 250.06,-662.01"/>
<polygon fill="black" stroke="black" points="252.83,-659.87 244.03,-653.97 247.23,-664.07 252.83,-659.87"/>
</g>
<!-- p12 -->
<g id="node13" class="node">
<title>p12</title>
<ellipse fill="black" stroke="black" cx="80.6" cy="-874.8" rx="3.6" ry="3.6"/>
<text text-anchor="middle" x="38.5" y="-860" font-family="Times,serif" font-size="14.00">Channel.of</text>
</g>
<!-- p12&#45;&gt;p13 -->
<g id="edge11" class="edge">
<title>p12&#45;&gt;p13</title>
<path fill="none" stroke="black" d="M81.17,-871.12C83.06,-862.22 89.23,-833.24 92.86,-816.17"/>
<polygon fill="black" stroke="black" points="96.37,-816.49 95.03,-805.98 89.53,-815.03 96.37,-816.49"/>
</g>
<!-- p14 -->
<g id="node15" class="node">
<title>p14</title>
<ellipse fill="none" stroke="black" cx="95.6" cy="-744.2" rx="3.5" ry="3.5"/>
<text text-anchor="middle" x="64.6" y="-751.5" font-family="Times,serif" font-size="14.00">flatMap</text>
</g>
<!-- p13&#45;&gt;p14 -->
<g id="edge13" class="edge">
<title>p13&#45;&gt;p14</title>
<path fill="none" stroke="black" d="M95.6,-798.59C95.6,-791.36 95.6,-771.23 95.6,-757.86"/>
<polygon fill="black" stroke="black" points="99.1,-757.75 95.6,-747.75 92.1,-757.75 99.1,-757.75"/>
</g>
<!-- p14&#45;&gt;p15 -->
<g id="edge14" class="edge">
<title>p14&#45;&gt;p15</title>
<path fill="none" stroke="black" d="M96.01,-740.53C97.33,-732.29 101.84,-706.61 109.6,-686.6 112.8,-678.34 117.56,-669.58 121.51,-662.89"/>
<polygon fill="black" stroke="black" points="124.7,-664.39 126.99,-654.04 118.75,-660.7 124.7,-664.39"/>
</g>
<!-- p40 -->
<g id="node17" class="node">
<title>p40</title>
<ellipse fill="none" stroke="black" cx="178.6" cy="-117.1" rx="3.5" ry="3.5"/>
<text text-anchor="middle" x="144.6" y="-124.4" font-family="Times,serif" font-size="14.00">combine</text>
</g>
<!-- p15&#45;&gt;p40 -->
<g id="edge16" class="edge">
<title>p15&#45;&gt;p40</title>
<path fill="none" stroke="black" d="M130.64,-647.62C138.54,-639.77 166.6,-609.69 166.6,-579.1 166.6,-579.1 166.6,-579.1 166.6,-160.1 166.6,-149.71 170.04,-138.4 173.24,-130.14"/>
<polygon fill="black" stroke="black" points="176.57,-131.25 177.32,-120.68 170.14,-128.48 176.57,-131.25"/>
<text text-anchor="middle" x="257.1" y="-351.4" font-family="Times,serif" font-size="14.00">stm_combination_landsat</text>
</g>
<!-- p41 -->
<g id="node42" class="node">
<title>p41</title>
<ellipse fill="none" stroke="black" cx="178.6" cy="-58.6" rx="45.49" ry="18"/>
<text text-anchor="middle" x="178.6" y="-54.9" font-family="Times,serif" font-size="14.00">stms_ls</text>
</g>
<!-- p40&#45;&gt;p41 -->
<g id="edge43" class="edge">
<title>p40&#45;&gt;p41</title>
<path fill="none" stroke="black" d="M178.6,-113.37C178.6,-108.43 178.6,-97.5 178.6,-86.77"/>
<polygon fill="black" stroke="black" points="182.1,-86.75 178.6,-76.75 175.1,-86.75 182.1,-86.75"/>
</g>
<!-- p16 -->
<g id="node18" class="node">
<title>p16</title>
<ellipse fill="black" stroke="black" cx="546.6" cy="-1137.4" rx="3.6" ry="3.6"/>
<text text-anchor="middle" x="623" y="-1144.8" font-family="Times,serif" font-size="14.00">Channel.fromFilePairs</text>
</g>
<!-- p18 -->
<g id="node19" class="node">
<title>p18</title>
<ellipse fill="none" stroke="black" cx="553.6" cy="-1093.3" rx="3.5" ry="3.5"/>
<text text-anchor="middle" x="519.6" y="-1078.6" font-family="Times,serif" font-size="14.00">combine</text>
</g>
<!-- p16&#45;&gt;p18 -->
<g id="edge17" class="edge">
<title>p16&#45;&gt;p18</title>
<path fill="none" stroke="black" d="M547.06,-1133.64C547.94,-1128.35 549.91,-1116.48 551.46,-1107.15"/>
<polygon fill="black" stroke="black" points="554.94,-1107.57 553.13,-1097.13 548.04,-1106.42 554.94,-1107.57"/>
</g>
<!-- p19 -->
<g id="node21" class="node">
<title>p19</title>
<ellipse fill="none" stroke="black" cx="553.6" cy="-1049.3" rx="3.5" ry="3.5"/>
<text text-anchor="middle" x="534.6" y="-1056.6" font-family="Times,serif" font-size="14.00">map</text>
</g>
<!-- p18&#45;&gt;p19 -->
<g id="edge19" class="edge">
<title>p18&#45;&gt;p19</title>
<path fill="none" stroke="black" d="M553.6,-1089.54C553.6,-1084.27 553.6,-1072.43 553.6,-1063.12"/>
<polygon fill="black" stroke="black" points="557.1,-1063.12 553.6,-1053.12 550.1,-1063.12 557.1,-1063.12"/>
</g>
<!-- p17 -->
<g id="node20" class="node">
<title>p17</title>
<ellipse fill="black" stroke="black" cx="571.6" cy="-1137.4" rx="3.6" ry="3.6"/>
</g>
<!-- p17&#45;&gt;p18 -->
<g id="edge18" class="edge">
<title>p17&#45;&gt;p18</title>
<path fill="none" stroke="black" d="M570.42,-1133.64C568.06,-1128.12 562.65,-1115.47 558.6,-1105.99"/>
<polygon fill="black" stroke="black" points="561.78,-1104.52 554.63,-1096.7 555.34,-1107.27 561.78,-1104.52"/>
</g>
<!-- p20 -->
<g id="node22" class="node">
<title>p20</title>
<ellipse fill="none" stroke="black" cx="553.6" cy="-991.3" rx="3.5" ry="3.5"/>
<text text-anchor="middle" x="532.6" y="-998.6" font-family="Times,serif" font-size="14.00">filter</text>
</g>
<!-- p19&#45;&gt;p20 -->
<g id="edge20" class="edge">
<title>p19&#45;&gt;p20</title>
<path fill="none" stroke="black" d="M553.6,-1045.6C553.6,-1038.38 553.6,-1018.28 553.6,-1004.93"/>
<polygon fill="black" stroke="black" points="557.1,-1004.84 553.6,-994.84 550.1,-1004.84 557.1,-1004.84"/>
</g>
<!-- p21 -->
<g id="node23" class="node">
<title>p21</title>
<ellipse fill="none" stroke="black" cx="553.6" cy="-947.3" rx="3.5" ry="3.5"/>
<text text-anchor="middle" x="534.6" y="-954.6" font-family="Times,serif" font-size="14.00">take</text>
</g>
<!-- p20&#45;&gt;p21 -->
<g id="edge21" class="edge">
<title>p20&#45;&gt;p21</title>
<path fill="none" stroke="black" d="M553.6,-987.54C553.6,-982.27 553.6,-970.43 553.6,-961.12"/>
<polygon fill="black" stroke="black" points="557.1,-961.12 553.6,-951.12 550.1,-961.12 557.1,-961.12"/>
</g>
<!-- p22 -->
<g id="node24" class="node">
<title>p22</title>
<ellipse fill="none" stroke="black" cx="553.6" cy="-874.8" rx="91.78" ry="18"/>
<text text-anchor="middle" x="553.6" y="-871.1" font-family="Times,serif" font-size="14.00">mask_layer_stack</text>
</g>
<!-- p21&#45;&gt;p22 -->
<g id="edge22" class="edge">
<title>p21&#45;&gt;p22</title>
<path fill="none" stroke="black" d="M553.6,-943.62C553.6,-936.96 553.6,-919.04 553.6,-903.29"/>
<polygon fill="black" stroke="black" points="557.1,-902.9 553.6,-892.9 550.1,-902.9 557.1,-902.9"/>
<text text-anchor="middle" x="586.1" y="-914.6" font-family="Times,serif" font-size="14.00">ch_dataP</text>
</g>
<!-- p23 -->
<g id="node25" class="node">
<title>p23</title>
<ellipse fill="none" stroke="black" cx="553.6" cy="-802.3" rx="3.5" ry="3.5"/>
<text text-anchor="middle" x="538.1" y="-809.6" font-family="Times,serif" font-size="14.00">tap</text>
</g>
<!-- p22&#45;&gt;p23 -->
<g id="edge23" class="edge">
<title>p22&#45;&gt;p23</title>
<path fill="none" stroke="black" d="M553.6,-856.73C553.6,-844.18 553.6,-827.39 553.6,-816"/>
<polygon fill="black" stroke="black" points="557.1,-815.96 553.6,-805.96 550.1,-815.96 557.1,-815.96"/>
</g>
<!-- p25 -->
<g id="node26" class="node">
<title>p25</title>
<ellipse fill="none" stroke="black" cx="404.6" cy="-744.2" rx="3.5" ry="3.5"/>
<text text-anchor="middle" x="370.6" y="-751.5" font-family="Times,serif" font-size="14.00">combine</text>
</g>
<!-- p23&#45;&gt;p25 -->
<g id="edge24" class="edge">
<title>p23&#45;&gt;p25</title>
<path fill="none" stroke="black" d="M550.15,-801.44C535.62,-801.87 478.27,-802.08 438.6,-780.8 427.59,-774.89 418.06,-764.11 411.92,-755.96"/>
<polygon fill="black" stroke="black" points="414.68,-753.8 406.09,-747.6 408.93,-757.8 414.68,-753.8"/>
<text text-anchor="middle" x="489.1" y="-769.6" font-family="Times,serif" font-size="14.00">ch_for_indices</text>
</g>
<!-- p27 -->
<g id="node27" class="node">
<title>p27</title>
<ellipse fill="none" stroke="black" cx="561.6" cy="-704.6" rx="149.47" ry="18"/>
<text text-anchor="middle" x="561.6" y="-700.9" font-family="Times,serif" font-size="14.00">explode_base_files:explode_pr</text>
</g>
<!-- p23&#45;&gt;p27 -->
<g id="edge25" class="edge">
<title>p23&#45;&gt;p27</title>
<path fill="none" stroke="black" d="M553.83,-798.54C554.63,-789.02 557.31,-756.88 559.31,-733.04"/>
<polygon fill="black" stroke="black" points="562.82,-733.05 560.16,-722.79 555.84,-732.46 562.82,-733.05"/>
<text text-anchor="middle" x="571.6" y="-769.6" font-family="Times,serif" font-size="14.00">data</text>
</g>
<!-- p26 -->
<g id="node29" class="node">
<title>p26</title>
<ellipse fill="none" stroke="black" cx="397.6" cy="-650.6" rx="131.08" ry="18"/>
<text text-anchor="middle" x="397.6" y="-646.9" font-family="Times,serif" font-size="14.00">calculate_spectral_indices</text>
</g>
<!-- p25&#45;&gt;p26 -->
<g id="edge28" class="edge">
<title>p25&#45;&gt;p26</title>
<path fill="none" stroke="black" d="M404.4,-740.56C403.71,-731.59 401.42,-701.64 399.69,-678.94"/>
<polygon fill="black" stroke="black" points="403.17,-678.52 398.92,-668.82 396.19,-679.06 403.17,-678.52"/>
</g>
<!-- p29 -->
<g id="node30" class="node">
<title>p29</title>
<ellipse fill="none" stroke="black" cx="526.6" cy="-578.1" rx="3.5" ry="3.5"/>
<text text-anchor="middle" x="509.6" y="-585.4" font-family="Times,serif" font-size="14.00">mix</text>
</g>
<!-- p27&#45;&gt;p29 -->
<g id="edge30" class="edge">
<title>p27&#45;&gt;p29</title>
<path fill="none" stroke="black" d="M556.81,-686.55C549.64,-661.05 536.29,-613.58 530.02,-591.27"/>
<polygon fill="black" stroke="black" points="533.37,-590.26 527.3,-581.59 526.64,-592.16 533.37,-590.26"/>
</g>
<!-- p24&#45;&gt;p25 -->
<g id="edge27" class="edge">
<title>p24&#45;&gt;p25</title>
<path fill="none" stroke="black" d="M406.5,-798.59C406.25,-791.36 405.53,-771.23 405.05,-757.86"/>
<polygon fill="black" stroke="black" points="408.55,-757.62 404.69,-747.75 401.55,-757.87 408.55,-757.62"/>
</g>
<!-- p26&#45;&gt;p29 -->
<g id="edge29" class="edge">
<title>p26&#45;&gt;p29</title>
<path fill="none" stroke="black" d="M427.84,-633.07C455.73,-617.83 495.66,-596.01 515.09,-585.39"/>
<polygon fill="black" stroke="black" points="516.82,-588.43 523.92,-580.56 513.47,-582.29 516.82,-588.43"/>
</g>
<!-- p30 -->
<g id="node32" class="node">
<title>p30</title>
<ellipse fill="none" stroke="black" cx="507.6" cy="-534.1" rx="3.5" ry="3.5"/>
<text text-anchor="middle" x="463.1" y="-541.4" font-family="Times,serif" font-size="14.00">groupTuple</text>
</g>
<!-- p29&#45;&gt;p30 -->
<g id="edge32" class="edge">
<title>p29&#45;&gt;p30</title>
<path fill="none" stroke="black" d="M525.35,-574.34C522.86,-568.84 517.15,-556.22 512.88,-546.76"/>
<polygon fill="black" stroke="black" points="515.99,-545.16 508.68,-537.49 509.62,-548.05 515.99,-545.16"/>
</g>
<!-- p28 -->
<g id="node31" class="node">
<title>p28</title>
<ellipse fill="black" stroke="black" cx="588.6" cy="-650.6" rx="3.6" ry="3.6"/>
<text text-anchor="middle" x="639.5" y="-658" font-family="Times,serif" font-size="14.00">Channel.empty</text>
</g>
<!-- p28&#45;&gt;p29 -->
<g id="edge31" class="edge">
<title>p28&#45;&gt;p29</title>
<path fill="none" stroke="black" d="M588.36,-646.96C587.48,-638.85 583.79,-614.04 570.6,-599.6 562.36,-590.58 549.33,-585.2 539.59,-582.23"/>
<polygon fill="black" stroke="black" points="540.43,-578.83 529.87,-579.72 538.68,-585.61 540.43,-578.83"/>
</g>
<!-- p31 -->
<g id="node33" class="node">
<title>p31</title>
<ellipse fill="none" stroke="black" cx="494.6" cy="-490.1" rx="3.5" ry="3.5"/>
<text text-anchor="middle" x="475.6" y="-497.4" font-family="Times,serif" font-size="14.00">map</text>
</g>
<!-- p30&#45;&gt;p31 -->
<g id="edge33" class="edge">
<title>p30&#45;&gt;p31</title>
<path fill="none" stroke="black" d="M506.75,-530.34C505.09,-525.01 501.37,-512.96 498.47,-503.61"/>
<polygon fill="black" stroke="black" points="501.77,-502.44 495.47,-493.92 495.09,-504.51 501.77,-502.44"/>
</g>
<!-- p32 -->
<g id="node34" class="node">
<title>p32</title>
<ellipse fill="none" stroke="black" cx="470.6" cy="-417.6" rx="194.17" ry="18"/>
<text text-anchor="middle" x="470.6" y="-413.9" font-family="Times,serif" font-size="14.00">build_vrt_stack:build_vrt_stack_process</text>
</g>
<!-- p31&#45;&gt;p32 -->
<g id="edge34" class="edge">
<title>p31&#45;&gt;p32</title>
<path fill="none" stroke="black" d="M493.69,-486.42C491.38,-479.63 485.08,-461.15 479.65,-445.19"/>
<polygon fill="black" stroke="black" points="482.96,-444.04 476.42,-435.7 476.33,-446.3 482.96,-444.04"/>
<text text-anchor="middle" x="502.6" y="-457.4" font-family="Times,serif" font-size="14.00">data</text>
</g>
<!-- p33 -->
<g id="node35" class="node">
<title>p33</title>
<ellipse fill="none" stroke="black" cx="404.6" cy="-355.1" rx="3.5" ry="3.5"/>
<text text-anchor="middle" x="389.1" y="-362.4" font-family="Times,serif" font-size="14.00">tap</text>
</g>
<!-- p32&#45;&gt;p33 -->
<g id="edge35" class="edge">
<title>p32&#45;&gt;p33</title>
<path fill="none" stroke="black" d="M451.86,-399.42C439.62,-388.2 424.13,-374 414.29,-364.98"/>
<polygon fill="black" stroke="black" points="416.61,-362.36 406.88,-358.19 411.88,-367.52 416.61,-362.36"/>
</g>
<!-- p35 -->
<g id="node36" class="node">
<title>p35</title>
<ellipse fill="none" stroke="black" cx="343.6" cy="-293.1" rx="3.5" ry="3.5"/>
<text text-anchor="middle" x="322.6" y="-300.4" font-family="Times,serif" font-size="14.00">filter</text>
</g>
<!-- p33&#45;&gt;p35 -->
<g id="edge36" class="edge">
<title>p33&#45;&gt;p35</title>
<path fill="none" stroke="black" d="M404.35,-351.22C403.6,-344.09 400.72,-325.46 390.6,-314.6 381.61,-304.96 367.3,-299.61 356.83,-296.82"/>
<polygon fill="black" stroke="black" points="357.37,-293.35 346.85,-294.61 355.85,-300.19 357.37,-293.35"/>
</g>
<!-- p34 -->
<g id="node37" class="node">
<title>p34</title>
<ellipse fill="black" stroke="black" cx="260.6" cy="-293.1" rx="1.8" ry="1.8"/>
</g>
<!-- p33&#45;&gt;p34 -->
<g id="edge37" class="edge">
<title>p33&#45;&gt;p34</title>
<path fill="none" stroke="black" d="M401.37,-353.68C380.25,-350.93 262.47,-335.35 257.6,-329.6 251.79,-322.75 253.54,-312.24 256.14,-304.43"/>
<polygon fill="black" stroke="black" points="259.4,-305.7 260.05,-295.13 252.95,-302.99 259.4,-305.7"/>
<text text-anchor="middle" x="322.1" y="-318.4" font-family="Times,serif" font-size="14.00">ch_stacked_raster</text>
</g>
<!-- p36 -->
<g id="node38" class="node">
<title>p36</title>
<ellipse fill="none" stroke="black" cx="318.6" cy="-249.1" rx="3.5" ry="3.5"/>
<text text-anchor="middle" x="274.1" y="-256.4" font-family="Times,serif" font-size="14.00">groupTuple</text>
</g>
<!-- p35&#45;&gt;p36 -->
<g id="edge38" class="edge">
<title>p35&#45;&gt;p36</title>
<path fill="none" stroke="black" d="M342.26,-289.84C339.1,-284.54 331.03,-270.99 325.2,-261.18"/>
<polygon fill="black" stroke="black" points="328.2,-259.38 320.08,-252.58 322.18,-262.96 328.2,-259.38"/>
</g>
<!-- p37 -->
<g id="node39" class="node">
<title>p37</title>
<ellipse fill="none" stroke="black" cx="292.6" cy="-205.1" rx="3.5" ry="3.5"/>
<text text-anchor="middle" x="273.6" y="-212.4" font-family="Times,serif" font-size="14.00">map</text>
</g>
<!-- p36&#45;&gt;p37 -->
<g id="edge39" class="edge">
<title>p36&#45;&gt;p37</title>
<path fill="none" stroke="black" d="M317.2,-245.84C313.92,-240.54 305.53,-226.99 299.46,-217.18"/>
<polygon fill="black" stroke="black" points="302.37,-215.24 294.13,-208.58 296.42,-218.92 302.37,-215.24"/>
</g>
<!-- p38 -->
<g id="node40" class="node">
<title>p38</title>
<ellipse fill="none" stroke="black" cx="240.6" cy="-161.1" rx="3.5" ry="3.5"/>
<text text-anchor="middle" x="212.1" y="-168.4" font-family="Times,serif" font-size="14.00">branch</text>
</g>
<!-- p37&#45;&gt;p38 -->
<g id="edge40" class="edge">
<title>p37&#45;&gt;p38</title>
<path fill="none" stroke="black" d="M290.37,-202.3C283.62,-196.84 263.14,-180.3 250.65,-170.22"/>
<polygon fill="black" stroke="black" points="252.75,-167.41 242.77,-163.85 248.35,-172.86 252.75,-167.41"/>
</g>
<!-- p38&#45;&gt;p40 -->
<g id="edge41" class="edge">
<title>p38&#45;&gt;p40</title>
<path fill="none" stroke="black" d="M238.25,-158.5C230.34,-153.15 204.43,-135.59 189.48,-125.47"/>
<polygon fill="black" stroke="black" points="191.2,-122.41 180.96,-119.7 187.27,-128.2 191.2,-122.41"/>
</g>
<!-- p39 -->
<g id="node41" class="node">
<title>p39</title>
<ellipse fill="black" stroke="black" cx="240.6" cy="-117.1" rx="1.8" ry="1.8"/>
</g>
<!-- p38&#45;&gt;p39 -->
<g id="edge42" class="edge">
<title>p38&#45;&gt;p39</title>
<path fill="none" stroke="black" d="M240.6,-157.34C240.6,-151.79 240.6,-138.96 240.6,-129.47"/>
<polygon fill="black" stroke="black" points="244.1,-129.4 240.6,-119.4 237.1,-129.4 244.1,-129.4"/>
</g>
<!-- p42 -->
<g id="node43" class="node">
<title>p42</title>
<ellipse fill="black" stroke="black" cx="178.6" cy="-1.8" rx="1.8" ry="1.8"/>
</g>
<!-- p41&#45;&gt;p42 -->
<g id="edge44" class="edge">
<title>p41&#45;&gt;p42</title>
<path fill="none" stroke="black" d="M178.6,-40.56C178.6,-31.87 178.6,-21.56 178.6,-13.9"/>
<polygon fill="black" stroke="black" points="182.1,-13.76 178.6,-3.76 175.1,-13.76 182.1,-13.76"/>
</g>
</g>
</svg>
