<?xml version="1.0" encoding="UTF-8" standalone="no"?>
<!DOCTYPE svg PUBLIC "-//W3C//DTD SVG 1.1//EN"
 "http://www.w3.org/Graphics/SVG/1.1/DTD/svg11.dtd">
<!-- Generated by graphviz version 2.43.0 (0)
 -->
<!-- Title: dag Pages: 1 -->
<svg width="711pt" height="1164pt"
 viewBox="0.00 0.00 711.00 1164.00" xmlns="http://www.w3.org/2000/svg" xmlns:xlink="http://www.w3.org/1999/xlink">
<g id="graph0" class="graph" transform="scale(1 1) rotate(0) translate(4 1160)">
<title>dag</title>
<polygon fill="white" stroke="transparent" points="-4,4 -4,-1160 707,-1160 707,4 -4,4"/>
<!-- p0 -->
<g id="node1" class="node">
<title>p0</title>
<ellipse fill="black" stroke="black" cx="489.6" cy="-1137.4" rx="3.6" ry="3.6"/>
<text text-anchor="middle" x="421" y="-1144.8" font-family="Times,serif" font-size="14.00">Channel.fromPath</text>
</g>
<!-- p2 -->
<g id="node2" class="node">
<title>p2</title>
<ellipse fill="none" stroke="black" cx="501.6" cy="-1093.3" rx="3.5" ry="3.5"/>
<text text-anchor="middle" x="474.6" y="-1100.6" font-family="Times,serif" font-size="14.00">concat</text>
</g>
<!-- p0&#45;&gt;p2 -->
<g id="edge1" class="edge">
<title>p0&#45;&gt;p2</title>
<path fill="none" stroke="black" d="M490.39,-1133.64C491.91,-1128.29 495.35,-1116.21 498.03,-1106.84"/>
<polygon fill="black" stroke="black" points="501.42,-1107.7 500.79,-1097.13 494.69,-1105.79 501.42,-1107.7"/>
</g>
<!-- p3 -->
<g id="node4" class="node">
<title>p3</title>
<ellipse fill="none" stroke="black" cx="501.6" cy="-1049.3" rx="3.5" ry="3.5"/>
<text text-anchor="middle" x="474.6" y="-1056.6" font-family="Times,serif" font-size="14.00">collect</text>
</g>
<!-- p2&#45;&gt;p3 -->
<g id="edge3" class="edge">
<title>p2&#45;&gt;p3</title>
<path fill="none" stroke="black" d="M501.6,-1089.54C501.6,-1084.27 501.6,-1072.43 501.6,-1063.12"/>
<polygon fill="black" stroke="black" points="505.1,-1063.12 501.6,-1053.12 498.1,-1063.12 505.1,-1063.12"/>
</g>
<!-- p1 -->
<g id="node3" class="node">
<title>p1</title>
<ellipse fill="black" stroke="black" cx="514.6" cy="-1137.4" rx="3.6" ry="3.6"/>
<text text-anchor="middle" x="472.5" y="-1122.6" font-family="Times,serif" font-size="14.00">Channel.of</text>
</g>
<!-- p1&#45;&gt;p2 -->
<g id="edge2" class="edge">
<title>p1&#45;&gt;p2</title>
<path fill="none" stroke="black" d="M513.75,-1133.64C512.09,-1128.29 508.37,-1116.21 505.47,-1106.84"/>
<polygon fill="black" stroke="black" points="508.77,-1105.65 502.47,-1097.13 502.08,-1107.72 508.77,-1105.65"/>
</g>
<!-- p4 -->
<g id="node5" class="node">
<title>p4</title>
<ellipse fill="black" stroke="black" cx="501.6" cy="-991.3" rx="1.8" ry="1.8"/>
</g>
<!-- p3&#45;&gt;p4 -->
<g id="edge4" class="edge">
<title>p3&#45;&gt;p4</title>
<path fill="none" stroke="black" d="M501.6,-1045.6C501.6,-1038.15 501.6,-1017.01 501.6,-1003.7"/>
<polygon fill="black" stroke="black" points="505.1,-1003.35 501.6,-993.35 498.1,-1003.35 505.1,-1003.35"/>
<text text-anchor="middle" x="520.1" y="-1016.6" font-family="Times,serif" font-size="14.00">lucas</text>
</g>
<!-- p5 -->
<g id="node6" class="node">
<title>p5</title>
<ellipse fill="black" stroke="black" cx="276.6" cy="-874.8" rx="3.6" ry="3.6"/>
<text text-anchor="middle" x="234.5" y="-882.2" font-family="Times,serif" font-size="14.00">Channel.of</text>
</g>
<!-- p8 -->
<g id="node7" class="node">
<title>p8</title>
<ellipse fill="none" stroke="black" cx="276.6" cy="-802.3" rx="3.5" ry="3.5"/>
<text text-anchor="middle" x="259.6" y="-809.6" font-family="Times,serif" font-size="14.00">mix</text>
</g>
<!-- p5&#45;&gt;p8 -->
<g id="edge5" class="edge">
<title>p5&#45;&gt;p8</title>
<path fill="none" stroke="black" d="M276.6,-871.12C276.6,-862.22 276.6,-833.24 276.6,-816.17"/>
<polygon fill="black" stroke="black" points="280.1,-815.98 276.6,-805.98 273.1,-815.98 280.1,-815.98"/>
<text text-anchor="middle" x="334.1" y="-827.6" font-family="Times,serif" font-size="14.00">spectral_indices</text>
</g>
<!-- p13 -->
<g id="node14" class="node">
<title>p13</title>
<ellipse fill="none" stroke="black" cx="98.6" cy="-802.3" rx="3.5" ry="3.5"/>
<text text-anchor="middle" x="81.6" y="-809.6" font-family="Times,serif" font-size="14.00">mix</text>
</g>
<!-- p5&#45;&gt;p13 -->
<g id="edge12" class="edge">
<title>p5&#45;&gt;p13</title>
<path fill="none" stroke="black" d="M273.18,-873.13C258.72,-870.23 201.37,-858.03 157.6,-838.8 139.83,-831 120.88,-818.82 109.38,-810.95"/>
<polygon fill="black" stroke="black" points="111.37,-808.07 101.17,-805.18 107.35,-813.79 111.37,-808.07"/>
<text text-anchor="middle" x="215.1" y="-827.6" font-family="Times,serif" font-size="14.00">spectral_indices</text>
</g>
<!-- p24 -->
<g id="node28" class="node">
<title>p24</title>
<ellipse fill="none" stroke="black" cx="405.6" cy="-802.3" rx="3.5" ry="3.5"/>
<text text-anchor="middle" x="374.6" y="-809.6" font-family="Times,serif" font-size="14.00">flatMap</text>
</g>
<!-- p5&#45;&gt;p24 -->
<g id="edge26" class="edge">
<title>p5&#45;&gt;p24</title>
<path fill="none" stroke="black" d="M280.4,-873.81C296.34,-873.63 358.64,-870.85 392.6,-838.8 398.91,-832.84 402.17,-823.56 403.85,-815.98"/>
<polygon fill="black" stroke="black" points="407.33,-816.38 405.41,-805.96 400.41,-815.3 407.33,-816.38"/>
<text text-anchor="middle" x="458.1" y="-827.6" font-family="Times,serif" font-size="14.00">spectral_indices</text>
</g>
<!-- p9 -->
<g id="node11" class="node">
<title>p9</title>
<ellipse fill="none" stroke="black" cx="310.6" cy="-744.2" rx="3.5" ry="3.5"/>
<text text-anchor="middle" x="279.6" y="-751.5" font-family="Times,serif" font-size="14.00">flatMap</text>
</g>
<!-- p8&#45;&gt;p9 -->
<g id="edge8" class="edge">
<title>p8&#45;&gt;p9</title>
<path fill="none" stroke="black" d="M278.06,-798.89C282.43,-791.68 295.6,-769.95 303.78,-756.45"/>
<polygon fill="black" stroke="black" points="306.99,-757.91 309.18,-747.54 301.01,-754.28 306.99,-757.91"/>
</g>
<!-- p6 -->
<g id="node8" class="node">
<title>p6</title>
<ellipse fill="black" stroke="black" cx="186.6" cy="-744.2" rx="3.6" ry="3.6"/>
<text text-anchor="middle" x="144.5" y="-751.6" font-family="Times,serif" font-size="14.00">Channel.of</text>
</g>
<!-- p10 -->
<g id="node9" class="node">
<title>p10</title>
<ellipse fill="none" stroke="black" cx="245.6" cy="-650.6" rx="3.5" ry="3.5"/>
<text text-anchor="middle" x="211.6" y="-657.9" font-family="Times,serif" font-size="14.00">combine</text>
</g>
<!-- p6&#45;&gt;p10 -->
<g id="edge6" class="edge">
<title>p6&#45;&gt;p10</title>
<path fill="none" stroke="black" d="M189.81,-742.03C196.35,-739.49 211.26,-732.88 219.6,-722.6 233.68,-705.26 240.53,-679.6 243.54,-664.35"/>
<polygon fill="black" stroke="black" points="247.06,-664.53 245.28,-654.09 240.16,-663.36 247.06,-664.53"/>
<text text-anchor="middle" x="280.1" y="-700.9" font-family="Times,serif" font-size="14.00">stm_choices</text>
</g>
<!-- p15 -->
<g id="node16" class="node">
<title>p15</title>
<ellipse fill="none" stroke="black" cx="131.6" cy="-650.6" rx="3.5" ry="3.5"/>
<text text-anchor="middle" x="97.6" y="-657.9" font-family="Times,serif" font-size="14.00">combine</text>
</g>
<!-- p6&#45;&gt;p15 -->
<g id="edge15" class="edge">
<title>p6&#45;&gt;p15</title>
<path fill="none" stroke="black" d="M183.17,-743.12C173.28,-742.67 144.67,-739.87 132.6,-722.6 120.46,-705.24 124.17,-679.18 127.92,-663.94"/>
<polygon fill="black" stroke="black" points="131.35,-664.68 130.73,-654.1 124.62,-662.75 131.35,-664.68"/>
<text text-anchor="middle" x="176.1" y="-700.9" font-family="Times,serif" font-size="14.00">stm_choices</text>
</g>
<!-- p11 -->
<g id="node12" class="node">
<title>p11</title>
<ellipse fill="black" stroke="black" cx="245.6" cy="-578.1" rx="1.8" ry="1.8"/>
</g>
<!-- p10&#45;&gt;p11 -->
<g id="edge10" class="edge">
<title>p10&#45;&gt;p11</title>
<path fill="none" stroke="black" d="M245.6,-646.92C245.6,-637.69 245.6,-606.86 245.6,-590.13"/>
<polygon fill="black" stroke="black" points="249.1,-590.06 245.6,-580.06 242.1,-590.06 249.1,-590.06"/>
<text text-anchor="middle" x="338.6" y="-603.4" font-family="Times,serif" font-size="14.00">stm_combination_sentinel</text>
</g>
<!-- p7 -->
<g id="node10" class="node">
<title>p7</title>
<ellipse fill="black" stroke="black" cx="105.6" cy="-874.8" rx="3.6" ry="3.6"/>
<text text-anchor="middle" x="63.5" y="-882.2" font-family="Times,serif" font-size="14.00">Channel.of</text>
</g>
<!-- p7&#45;&gt;p8 -->
<g id="edge7" class="edge">
<title>p7&#45;&gt;p8</title>
<path fill="none" stroke="black" d="M105.42,-870.99C105.03,-862.39 105.15,-836.31 119.6,-823.8 140.88,-805.37 228.62,-803.31 262.84,-803.22"/>
<polygon fill="black" stroke="black" points="263.08,-806.72 273.09,-803.25 263.1,-799.72 263.08,-806.72"/>
</g>
<!-- p9&#45;&gt;p10 -->
<g id="edge9" class="edge">
<title>p9&#45;&gt;p10</title>
<path fill="none" stroke="black" d="M312.94,-741.35C316.87,-738.07 324.65,-730.8 327.6,-722.6 333.01,-707.54 337.31,-699.32 327.6,-686.6 309.14,-662.44 287.66,-684.26 261.6,-668.6 258.7,-666.86 256,-664.45 253.66,-661.99"/>
<polygon fill="black" stroke="black" points="256.18,-659.54 247.17,-653.97 250.74,-663.94 256.18,-659.54"/>
</g>
<!-- p12 -->
<g id="node13" class="node">
<title>p12</title>
<ellipse fill="black" stroke="black" cx="80.6" cy="-874.8" rx="3.6" ry="3.6"/>
<text text-anchor="middle" x="38.5" y="-860" font-family="Times,serif" font-size="14.00">Channel.of</text>
</g>
<!-- p12&#45;&gt;p13 -->
<g id="edge11" class="edge">
<title>p12&#45;&gt;p13</title>
<path fill="none" stroke="black" d="M81.28,-871.12C83.58,-862.14 91.1,-832.67 95.44,-815.67"/>
<polygon fill="black" stroke="black" points="98.83,-816.54 97.92,-805.98 92.05,-814.8 98.83,-816.54"/>
</g>
<!-- p14 -->
<g id="node15" class="node">
<title>p14</title>
<ellipse fill="none" stroke="black" cx="98.6" cy="-744.2" rx="3.5" ry="3.5"/>
<text text-anchor="middle" x="67.6" y="-751.5" font-family="Times,serif" font-size="14.00">flatMap</text>
</g>
<!-- p13&#45;&gt;p14 -->
<g id="edge13" class="edge">
<title>p13&#45;&gt;p14</title>
<path fill="none" stroke="black" d="M98.6,-798.59C98.6,-791.36 98.6,-771.23 98.6,-757.86"/>
<polygon fill="black" stroke="black" points="102.1,-757.75 98.6,-747.75 95.1,-757.75 102.1,-757.75"/>
</g>
<!-- p14&#45;&gt;p15 -->
<g id="edge14" class="edge">
<title>p14&#45;&gt;p15</title>
<path fill="none" stroke="black" d="M99.01,-740.53C100.33,-732.29 104.84,-706.61 112.6,-686.6 115.8,-678.34 120.56,-669.58 124.51,-662.89"/>
<polygon fill="black" stroke="black" points="127.7,-664.39 129.99,-654.04 121.75,-660.7 127.7,-664.39"/>
</g>
<!-- p40 -->
<g id="node17" class="node">
<title>p40</title>
<ellipse fill="none" stroke="black" cx="181.6" cy="-117.1" rx="3.5" ry="3.5"/>
<text text-anchor="middle" x="147.6" y="-124.4" font-family="Times,serif" font-size="14.00">combine</text>
</g>
<!-- p15&#45;&gt;p40 -->
<g id="edge16" class="edge">
<title>p15&#45;&gt;p40</title>
<path fill="none" stroke="black" d="M133.64,-647.62C141.54,-639.77 169.6,-609.69 169.6,-579.1 169.6,-579.1 169.6,-579.1 169.6,-160.1 169.6,-149.71 173.04,-138.4 176.24,-130.14"/>
<polygon fill="black" stroke="black" points="179.57,-131.25 180.32,-120.68 173.14,-128.48 179.57,-131.25"/>
<text text-anchor="middle" x="260.1" y="-351.4" font-family="Times,serif" font-size="14.00">stm_combination_landsat</text>
</g>
<!-- p41 -->
<g id="node42" class="node">
<title>p41</title>
<ellipse fill="none" stroke="black" cx="181.6" cy="-58.6" rx="45.49" ry="18"/>
<text text-anchor="middle" x="181.6" y="-54.9" font-family="Times,serif" font-size="14.00">stms_ls</text>
</g>
<!-- p40&#45;&gt;p41 -->
<g id="edge43" class="edge">
<title>p40&#45;&gt;p41</title>
<path fill="none" stroke="black" d="M181.6,-113.37C181.6,-108.43 181.6,-97.5 181.6,-86.77"/>
<polygon fill="black" stroke="black" points="185.1,-86.75 181.6,-76.75 178.1,-86.75 185.1,-86.75"/>
</g>
<!-- p16 -->
<g id="node18" class="node">
<title>p16</title>
<ellipse fill="black" stroke="black" cx="546.6" cy="-1137.4" rx="3.6" ry="3.6"/>
<text text-anchor="middle" x="623" y="-1144.8" font-family="Times,serif" font-size="14.00">Channel.fromFilePairs</text>
</g>
<!-- p18 -->
<g id="node19" class="node">
<title>p18</title>
<ellipse fill="none" stroke="black" cx="553.6" cy="-1093.3" rx="3.5" ry="3.5"/>
<text text-anchor="middle" x="519.6" y="-1078.6" font-family="Times,serif" font-size="14.00">combine</text>
</g>
<!-- p16&#45;&gt;p18 -->
<g id="edge17" class="edge">
<title>p16&#45;&gt;p18</title>
<path fill="none" stroke="black" d="M547.06,-1133.64C547.94,-1128.35 549.91,-1116.48 551.46,-1107.15"/>
<polygon fill="black" stroke="black" points="554.94,-1107.57 553.13,-1097.13 548.04,-1106.42 554.94,-1107.57"/>
</g>
<!-- p19 -->
<g id="node21" class="node">
<title>p19</title>
<ellipse fill="none" stroke="black" cx="553.6" cy="-1049.3" rx="3.5" ry="3.5"/>
<text text-anchor="middle" x="534.6" y="-1056.6" font-family="Times,serif" font-size="14.00">map</text>
</g>
<!-- p18&#45;&gt;p19 -->
<g id="edge19" class="edge">
<title>p18&#45;&gt;p19</title>
<path fill="none" stroke="black" d="M553.6,-1089.54C553.6,-1084.27 553.6,-1072.43 553.6,-1063.12"/>
<polygon fill="black" stroke="black" points="557.1,-1063.12 553.6,-1053.12 550.1,-1063.12 557.1,-1063.12"/>
</g>
<!-- p17 -->
<g id="node20" class="node">
<title>p17</title>
<ellipse fill="black" stroke="black" cx="571.6" cy="-1137.4" rx="3.6" ry="3.6"/>
</g>
<!-- p17&#45;&gt;p18 -->
<g id="edge18" class="edge">
<title>p17&#45;&gt;p18</title>
<path fill="none" stroke="black" d="M570.42,-1133.64C568.06,-1128.12 562.65,-1115.47 558.6,-1105.99"/>
<polygon fill="black" stroke="black" points="561.78,-1104.52 554.63,-1096.7 555.34,-1107.27 561.78,-1104.52"/>
</g>
<!-- p20 -->
<g id="node22" class="node">
<title>p20</title>
<ellipse fill="none" stroke="black" cx="553.6" cy="-991.3" rx="3.5" ry="3.5"/>
<text text-anchor="middle" x="532.6" y="-998.6" font-family="Times,serif" font-size="14.00">filter</text>
</g>
<!-- p19&#45;&gt;p20 -->
<g id="edge20" class="edge">
<title>p19&#45;&gt;p20</title>
<path fill="none" stroke="black" d="M553.6,-1045.6C553.6,-1038.38 553.6,-1018.28 553.6,-1004.93"/>
<polygon fill="black" stroke="black" points="557.1,-1004.84 553.6,-994.84 550.1,-1004.84 557.1,-1004.84"/>
</g>
<!-- p21 -->
<g id="node23" class="node">
<title>p21</title>
<ellipse fill="none" stroke="black" cx="553.6" cy="-947.3" rx="3.5" ry="3.5"/>
<text text-anchor="middle" x="534.6" y="-954.6" font-family="Times,serif" font-size="14.00">take</text>
</g>
<!-- p20&#45;&gt;p21 -->
<g id="edge21" class="edge">
<title>p20&#45;&gt;p21</title>
<path fill="none" stroke="black" d="M553.6,-987.54C553.6,-982.27 553.6,-970.43 553.6,-961.12"/>
<polygon fill="black" stroke="black" points="557.1,-961.12 553.6,-951.12 550.1,-961.12 557.1,-961.12"/>
</g>
<!-- p22 -->
<g id="node24" class="node">
<title>p22</title>
<ellipse fill="none" stroke="black" cx="553.6" cy="-874.8" rx="91.78" ry="18"/>
<text text-anchor="middle" x="553.6" y="-871.1" font-family="Times,serif" font-size="14.00">mask_layer_stack</text>
</g>
<!-- p21&#45;&gt;p22 -->
<g id="edge22" class="edge">
<title>p21&#45;&gt;p22</title>
<path fill="none" stroke="black" d="M553.6,-943.62C553.6,-936.96 553.6,-919.04 553.6,-903.29"/>
<polygon fill="black" stroke="black" points="557.1,-902.9 553.6,-892.9 550.1,-902.9 557.1,-902.9"/>
<text text-anchor="middle" x="586.1" y="-914.6" font-family="Times,serif" font-size="14.00">ch_dataP</text>
</g>
<!-- p23 -->
<g id="node25" class="node">
<title>p23</title>
<ellipse fill="none" stroke="black" cx="553.6" cy="-802.3" rx="3.5" ry="3.5"/>
<text text-anchor="middle" x="538.1" y="-809.6" font-family="Times,serif" font-size="14.00">tap</text>
</g>
<!-- p22&#45;&gt;p23 -->
<g id="edge23" class="edge">
<title>p22&#45;&gt;p23</title>
<path fill="none" stroke="black" d="M553.6,-856.73C553.6,-844.18 553.6,-827.39 553.6,-816"/>
<polygon fill="black" stroke="black" points="557.1,-815.96 553.6,-805.96 550.1,-815.96 557.1,-815.96"/>
</g>
<!-- p27 -->
<g id="node26" class="node">
<title>p27</title>
<ellipse fill="none" stroke="black" cx="560.6" cy="-704.6" rx="96.38" ry="18"/>
<text text-anchor="middle" x="560.6" y="-700.9" font-family="Times,serif" font-size="14.00">explode_base_files</text>
</g>
<!-- p23&#45;&gt;p27 -->
<g id="edge24" class="edge">
<title>p23&#45;&gt;p27</title>
<path fill="none" stroke="black" d="M553.8,-798.54C554.5,-789.02 556.85,-756.88 558.59,-733.04"/>
<polygon fill="black" stroke="black" points="562.1,-733.02 559.34,-722.79 555.12,-732.51 562.1,-733.02"/>
<text text-anchor="middle" x="602.1" y="-769.6" font-family="Times,serif" font-size="14.00">ch_base_files</text>
</g>
<!-- p25 -->
<g id="node27" class="node">
<title>p25</title>
<ellipse fill="none" stroke="black" cx="403.6" cy="-744.2" rx="3.5" ry="3.5"/>
<text text-anchor="middle" x="369.6" y="-751.5" font-family="Times,serif" font-size="14.00">combine</text>
</g>
<!-- p23&#45;&gt;p25 -->
<g id="edge25" class="edge">
<title>p23&#45;&gt;p25</title>
<path fill="none" stroke="black" d="M550.12,-801.45C535.46,-801.91 477.62,-802.23 437.6,-780.8 426.58,-774.9 417.06,-764.12 410.91,-755.97"/>
<polygon fill="black" stroke="black" points="413.67,-753.8 405.08,-747.6 407.93,-757.81 413.67,-753.8"/>
<text text-anchor="middle" x="488.1" y="-769.6" font-family="Times,serif" font-size="14.00">ch_for_indices</text>
</g>
<!-- p29 -->
<g id="node30" class="node">
<title>p29</title>
<ellipse fill="none" stroke="black" cx="530.6" cy="-578.1" rx="3.5" ry="3.5"/>
<text text-anchor="middle" x="513.6" y="-585.4" font-family="Times,serif" font-size="14.00">mix</text>
</g>
<!-- p27&#45;&gt;p29 -->
<g id="edge30" class="edge">
<title>p27&#45;&gt;p29</title>
<path fill="none" stroke="black" d="M556.49,-686.55C550.37,-661.16 539.01,-614.02 533.61,-591.59"/>
<polygon fill="black" stroke="black" points="536.94,-590.49 531.2,-581.59 530.14,-592.13 536.94,-590.49"/>
</g>
<!-- p26 -->
<g id="node29" class="node">
<title>p26</title>
<ellipse fill="none" stroke="black" cx="401.6" cy="-650.6" rx="131.08" ry="18"/>
<text text-anchor="middle" x="401.6" y="-646.9" font-family="Times,serif" font-size="14.00">calculate_spectral_indices</text>
</g>
<!-- p25&#45;&gt;p26 -->
<g id="edge28" class="edge">
<title>p25&#45;&gt;p26</title>
<path fill="none" stroke="black" d="M403.54,-740.56C403.35,-731.59 402.69,-701.64 402.2,-678.94"/>
<polygon fill="black" stroke="black" points="405.69,-678.74 401.98,-668.82 398.7,-678.89 405.69,-678.74"/>
</g>
<!-- p24&#45;&gt;p25 -->
<g id="edge27" class="edge">
<title>p24&#45;&gt;p25</title>
<path fill="none" stroke="black" d="M405.5,-798.59C405.25,-791.36 404.53,-771.23 404.05,-757.86"/>
<polygon fill="black" stroke="black" points="407.55,-757.62 403.69,-747.75 400.55,-757.87 407.55,-757.62"/>
</g>
<!-- p26&#45;&gt;p29 -->
<g id="edge29" class="edge">
<title>p26&#45;&gt;p29</title>
<path fill="none" stroke="black" d="M431.84,-633.07C459.73,-617.83 499.66,-596.01 519.09,-585.39"/>
<polygon fill="black" stroke="black" points="520.82,-588.43 527.92,-580.56 517.47,-582.29 520.82,-588.43"/>
</g>
<!-- p30 -->
<g id="node32" class="node">
<title>p30</title>
<ellipse fill="none" stroke="black" cx="511.6" cy="-534.1" rx="3.5" ry="3.5"/>
<text text-anchor="middle" x="467.1" y="-541.4" font-family="Times,serif" font-size="14.00">groupTuple</text>
</g>
<!-- p29&#45;&gt;p30 -->
<g id="edge32" class="edge">
<title>p29&#45;&gt;p30</title>
<path fill="none" stroke="black" d="M529.35,-574.34C526.86,-568.84 521.15,-556.22 516.88,-546.76"/>
<polygon fill="black" stroke="black" points="519.99,-545.16 512.68,-537.49 513.62,-548.05 519.99,-545.16"/>
</g>
<!-- p28 -->
<g id="node31" class="node">
<title>p28</title>
<ellipse fill="black" stroke="black" cx="592.6" cy="-650.6" rx="3.6" ry="3.6"/>
<text text-anchor="middle" x="643.5" y="-658" font-family="Times,serif" font-size="14.00">Channel.empty</text>
</g>
<!-- p28&#45;&gt;p29 -->
<g id="edge31" class="edge">
<title>p28&#45;&gt;p29</title>
<path fill="none" stroke="black" d="M592.36,-646.96C591.48,-638.85 587.79,-614.04 574.6,-599.6 566.36,-590.58 553.33,-585.2 543.59,-582.23"/>
<polygon fill="black" stroke="black" points="544.43,-578.83 533.87,-579.72 542.68,-585.61 544.43,-578.83"/>
</g>
<!-- p31 -->
<g id="node33" class="node">
<title>p31</title>
<ellipse fill="none" stroke="black" cx="498.6" cy="-490.1" rx="3.5" ry="3.5"/>
<text text-anchor="middle" x="479.6" y="-497.4" font-family="Times,serif" font-size="14.00">map</text>
</g>
<!-- p30&#45;&gt;p31 -->
<g id="edge33" class="edge">
<title>p30&#45;&gt;p31</title>
<path fill="none" stroke="black" d="M510.75,-530.34C509.09,-525.01 505.37,-512.96 502.47,-503.61"/>
<polygon fill="black" stroke="black" points="505.77,-502.44 499.47,-493.92 499.09,-504.51 505.77,-502.44"/>
</g>
<!-- p32 -->
<g id="node34" class="node">
<title>p32</title>
<ellipse fill="none" stroke="black" cx="474.6" cy="-417.6" rx="81.49" ry="18"/>
<text text-anchor="middle" x="474.6" y="-413.9" font-family="Times,serif" font-size="14.00">build_vrt_stack</text>
</g>
<!-- p31&#45;&gt;p32 -->
<g id="edge34" class="edge">
<title>p31&#45;&gt;p32</title>
<path fill="none" stroke="black" d="M497.69,-486.42C495.38,-479.63 489.08,-461.15 483.65,-445.19"/>
<polygon fill="black" stroke="black" points="486.96,-444.04 480.42,-435.7 480.33,-446.3 486.96,-444.04"/>
<text text-anchor="middle" x="557.1" y="-457.4" font-family="Times,serif" font-size="14.00">ch_grouped_bands</text>
</g>
<!-- p33 -->
<g id="node35" class="node">
<title>p33</title>
<ellipse fill="none" stroke="black" cx="407.6" cy="-355.1" rx="3.5" ry="3.5"/>
<text text-anchor="middle" x="392.1" y="-362.4" font-family="Times,serif" font-size="14.00">tap</text>
</g>
<!-- p32&#45;&gt;p33 -->
<g id="edge35" class="edge">
<title>p32&#45;&gt;p33</title>
<path fill="none" stroke="black" d="M455.94,-399.75C443.5,-388.51 427.63,-374.19 417.54,-365.08"/>
<polygon fill="black" stroke="black" points="419.71,-362.32 409.94,-358.21 415.01,-367.51 419.71,-362.32"/>
</g>
<!-- p34 -->
<g id="node36" class="node">
<title>p34</title>
<ellipse fill="black" stroke="black" cx="263.6" cy="-293.1" rx="1.8" ry="1.8"/>
</g>
<!-- p33&#45;&gt;p34 -->
<g id="edge36" class="edge">
<title>p33&#45;&gt;p34</title>
<path fill="none" stroke="black" d="M404.37,-353.68C383.25,-350.93 265.47,-335.35 260.6,-329.6 254.79,-322.75 256.54,-312.24 259.14,-304.43"/>
<polygon fill="black" stroke="black" points="262.4,-305.7 263.05,-295.13 255.95,-302.99 262.4,-305.7"/>
<text text-anchor="middle" x="325.1" y="-318.4" font-family="Times,serif" font-size="14.00">ch_stacked_raster</text>
</g>
<!-- p35 -->
<g id="node37" class="node">
<title>p35</title>
<ellipse fill="none" stroke="black" cx="346.6" cy="-293.1" rx="3.5" ry="3.5"/>
<text text-anchor="middle" x="325.6" y="-300.4" font-family="Times,serif" font-size="14.00">filter</text>
</g>
<!-- p33&#45;&gt;p35 -->
<g id="edge37" class="edge">
<title>p33&#45;&gt;p35</title>
<path fill="none" stroke="black" d="M407.35,-351.22C406.6,-344.09 403.72,-325.46 393.6,-314.6 384.61,-304.96 370.3,-299.61 359.83,-296.82"/>
<polygon fill="black" stroke="black" points="360.37,-293.35 349.85,-294.61 358.85,-300.19 360.37,-293.35"/>
</g>
<!-- p36 -->
<g id="node38" class="node">
<title>p36</title>
<ellipse fill="none" stroke="black" cx="321.6" cy="-249.1" rx="3.5" ry="3.5"/>
<text text-anchor="middle" x="277.1" y="-256.4" font-family="Times,serif" font-size="14.00">groupTuple</text>
</g>
<!-- p35&#45;&gt;p36 -->
<g id="edge38" class="edge">
<title>p35&#45;&gt;p36</title>
<path fill="none" stroke="black" d="M345.26,-289.84C342.1,-284.54 334.03,-270.99 328.2,-261.18"/>
<polygon fill="black" stroke="black" points="331.2,-259.38 323.08,-252.58 325.18,-262.96 331.2,-259.38"/>
</g>
<!-- p37 -->
<g id="node39" class="node">
<title>p37</title>
<ellipse fill="none" stroke="black" cx="295.6" cy="-205.1" rx="3.5" ry="3.5"/>
<text text-anchor="middle" x="276.6" y="-212.4" font-family="Times,serif" font-size="14.00">map</text>
</g>
<!-- p36&#45;&gt;p37 -->
<g id="edge39" class="edge">
<title>p36&#45;&gt;p37</title>
<path fill="none" stroke="black" d="M320.2,-245.84C316.92,-240.54 308.53,-226.99 302.46,-217.18"/>
<polygon fill="black" stroke="black" points="305.37,-215.24 297.13,-208.58 299.42,-218.92 305.37,-215.24"/>
</g>
<!-- p38 -->
<g id="node40" class="node">
<title>p38</title>
<ellipse fill="none" stroke="black" cx="243.6" cy="-161.1" rx="3.5" ry="3.5"/>
<text text-anchor="middle" x="215.1" y="-168.4" font-family="Times,serif" font-size="14.00">branch</text>
</g>
<!-- p37&#45;&gt;p38 -->
<g id="edge40" class="edge">
<title>p37&#45;&gt;p38</title>
<path fill="none" stroke="black" d="M293.37,-202.3C286.62,-196.84 266.14,-180.3 253.65,-170.22"/>
<polygon fill="black" stroke="black" points="255.75,-167.41 245.77,-163.85 251.35,-172.86 255.75,-167.41"/>
</g>
<!-- p38&#45;&gt;p40 -->
<g id="edge41" class="edge">
<title>p38&#45;&gt;p40</title>
<path fill="none" stroke="black" d="M241.25,-158.5C233.34,-153.15 207.43,-135.59 192.48,-125.47"/>
<polygon fill="black" stroke="black" points="194.2,-122.41 183.96,-119.7 190.27,-128.2 194.2,-122.41"/>
</g>
<!-- p39 -->
<g id="node41" class="node">
<title>p39</title>
<ellipse fill="black" stroke="black" cx="243.6" cy="-117.1" rx="1.8" ry="1.8"/>
</g>
<!-- p38&#45;&gt;p39 -->
<g id="edge42" class="edge">
<title>p38&#45;&gt;p39</title>
<path fill="none" stroke="black" d="M243.6,-157.34C243.6,-151.79 243.6,-138.96 243.6,-129.47"/>
<polygon fill="black" stroke="black" points="247.1,-129.4 243.6,-119.4 240.1,-129.4 247.1,-129.4"/>
</g>
<!-- p42 -->
<g id="node43" class="node">
<title>p42</title>
<ellipse fill="black" stroke="black" cx="181.6" cy="-1.8" rx="1.8" ry="1.8"/>
</g>
<!-- p41&#45;&gt;p42 -->
<g id="edge44" class="edge">
<title>p41&#45;&gt;p42</title>
<path fill="none" stroke="black" d="M181.6,-40.56C181.6,-31.87 181.6,-21.56 181.6,-13.9"/>
<polygon fill="black" stroke="black" points="185.1,-13.76 181.6,-3.76 178.1,-13.76 185.1,-13.76"/>
</g>
</g>
</svg>
