<?xml version="1.0" encoding="UTF-8" standalone="no"?>
<!DOCTYPE svg PUBLIC "-//W3C//DTD SVG 1.1//EN"
 "http://www.w3.org/Graphics/SVG/1.1/DTD/svg11.dtd">
<!-- Generated by graphviz version 2.43.0 (0)
 -->
<!-- Title: dag Pages: 1 -->
<svg width="886pt" height="1180pt"
 viewBox="0.00 0.00 885.60 1180.00" xmlns="http://www.w3.org/2000/svg" xmlns:xlink="http://www.w3.org/1999/xlink">
<g id="graph0" class="graph" transform="scale(1 1) rotate(0) translate(4 1176)">
<title>dag</title>
<polygon fill="white" stroke="transparent" points="-4,4 -4,-1176 881.6,-1176 881.6,4 -4,4"/>
<!-- p0 -->
<g id="node1" class="node">
<title>p0</title>
<ellipse fill="black" stroke="black" cx="465.6" cy="-948.8" rx="3.6" ry="3.6"/>
<text text-anchor="middle" x="423.5" y="-956.2" font-family="Times,serif" font-size="14.00">Channel.of</text>
</g>
<!-- p3 -->
<g id="node2" class="node">
<title>p3</title>
<ellipse fill="none" stroke="black" cx="460.6" cy="-876.3" rx="3.5" ry="3.5"/>
<text text-anchor="middle" x="443.6" y="-883.6" font-family="Times,serif" font-size="14.00">mix</text>
</g>
<!-- p0&#45;&gt;p3 -->
<g id="edge1" class="edge">
<title>p0&#45;&gt;p3</title>
<path fill="none" stroke="black" d="M465.41,-945.12C464.78,-936.22 462.72,-907.24 461.51,-890.17"/>
<polygon fill="black" stroke="black" points="464.99,-889.71 460.79,-879.98 458.01,-890.2 464.99,-889.71"/>
<text text-anchor="middle" x="520.1" y="-901.6" font-family="Times,serif" font-size="14.00">spectral_indices</text>
</g>
<!-- p7 -->
<g id="node9" class="node">
<title>p7</title>
<ellipse fill="none" stroke="black" cx="705.6" cy="-876.3" rx="3.5" ry="3.5"/>
<text text-anchor="middle" x="688.6" y="-883.6" font-family="Times,serif" font-size="14.00">mix</text>
</g>
<!-- p0&#45;&gt;p7 -->
<g id="edge8" class="edge">
<title>p0&#45;&gt;p7</title>
<path fill="none" stroke="black" d="M469,-947.25C483.37,-944.86 540.19,-934.39 581.6,-912.8 591.14,-907.83 590.82,-902.29 600.6,-897.8 631.35,-883.68 671.51,-879.27 692.12,-877.91"/>
<polygon fill="black" stroke="black" points="692.35,-881.4 702.16,-877.39 691.99,-874.41 692.35,-881.4"/>
<text text-anchor="middle" x="658.1" y="-901.6" font-family="Times,serif" font-size="14.00">spectral_indices</text>
</g>
<!-- p16 -->
<g id="node21" class="node">
<title>p16</title>
<ellipse fill="none" stroke="black" cx="327.6" cy="-876.3" rx="3.5" ry="3.5"/>
<text text-anchor="middle" x="296.1" y="-883.6" font-family="Times,serif" font-size="14.00">flatMap</text>
</g>
<!-- p0&#45;&gt;p16 -->
<g id="edge20" class="edge">
<title>p0&#45;&gt;p16</title>
<path fill="none" stroke="black" d="M462.06,-947.84C446.09,-947.83 379.85,-945.75 342.6,-912.8 335.89,-906.87 332.1,-897.43 330,-889.78"/>
<polygon fill="black" stroke="black" points="333.43,-889.04 327.94,-879.98 326.58,-890.49 333.43,-889.04"/>
<text text-anchor="middle" x="400.1" y="-901.6" font-family="Times,serif" font-size="14.00">spectral_indices</text>
</g>
<!-- p4 -->
<g id="node6" class="node">
<title>p4</title>
<ellipse fill="none" stroke="black" cx="460.6" cy="-818.2" rx="3.5" ry="3.5"/>
<text text-anchor="middle" x="429.1" y="-825.5" font-family="Times,serif" font-size="14.00">flatMap</text>
</g>
<!-- p3&#45;&gt;p4 -->
<g id="edge4" class="edge">
<title>p3&#45;&gt;p4</title>
<path fill="none" stroke="black" d="M460.6,-872.59C460.6,-865.36 460.6,-845.23 460.6,-831.86"/>
<polygon fill="black" stroke="black" points="464.1,-831.75 460.6,-821.75 457.1,-831.75 464.1,-831.75"/>
</g>
<!-- p1 -->
<g id="node3" class="node">
<title>p1</title>
<ellipse fill="black" stroke="black" cx="548.6" cy="-818.2" rx="3.6" ry="3.6"/>
<text text-anchor="middle" x="506.5" y="-825.6" font-family="Times,serif" font-size="14.00">Channel.of</text>
</g>
<!-- p5 -->
<g id="node4" class="node">
<title>p5</title>
<ellipse fill="none" stroke="black" cx="474.6" cy="-724.6" rx="3.5" ry="3.5"/>
<text text-anchor="middle" x="440.6" y="-731.9" font-family="Times,serif" font-size="14.00">combine</text>
</g>
<!-- p1&#45;&gt;p5 -->
<g id="edge2" class="edge">
<title>p1&#45;&gt;p5</title>
<path fill="none" stroke="black" d="M545.1,-816.92C535.53,-815.98 508.68,-812.01 494.6,-796.6 479.75,-780.35 475.83,-753.92 474.85,-738.3"/>
<polygon fill="black" stroke="black" points="478.34,-738.07 474.55,-728.18 471.35,-738.28 478.34,-738.07"/>
<text text-anchor="middle" x="538.1" y="-774.9" font-family="Times,serif" font-size="14.00">stm_choices</text>
</g>
<!-- p9 -->
<g id="node11" class="node">
<title>p9</title>
<ellipse fill="none" stroke="black" cx="696.6" cy="-724.6" rx="3.5" ry="3.5"/>
<text text-anchor="middle" x="662.6" y="-731.9" font-family="Times,serif" font-size="14.00">combine</text>
</g>
<!-- p1&#45;&gt;p9 -->
<g id="edge11" class="edge">
<title>p1&#45;&gt;p9</title>
<path fill="none" stroke="black" d="M551.58,-815.81C557.68,-812.87 571.85,-805.55 581.6,-796.6 596.33,-783.07 592.71,-772.75 608.6,-760.6 631.73,-742.91 664.98,-732.94 683.27,-728.48"/>
<polygon fill="black" stroke="black" points="684.25,-731.85 693.24,-726.25 682.72,-725.02 684.25,-731.85"/>
<text text-anchor="middle" x="652.1" y="-774.9" font-family="Times,serif" font-size="14.00">stm_choices</text>
</g>
<!-- p37 -->
<g id="node7" class="node">
<title>p37</title>
<ellipse fill="none" stroke="black" cx="449.6" cy="-117.1" rx="3.5" ry="3.5"/>
<text text-anchor="middle" x="415.6" y="-124.4" font-family="Times,serif" font-size="14.00">combine</text>
</g>
<!-- p5&#45;&gt;p37 -->
<g id="edge6" class="edge">
<title>p5&#45;&gt;p37</title>
<path fill="none" stroke="black" d="M474.6,-721.01C474.6,-713 474.6,-687.9 474.6,-667.1 474.6,-667.1 474.6,-667.1 474.6,-160.1 474.6,-147.41 466.07,-135.22 458.98,-127.27"/>
<polygon fill="black" stroke="black" points="461.43,-124.77 451.91,-120.11 456.45,-129.69 461.43,-124.77"/>
<text text-anchor="middle" x="567.6" y="-395.4" font-family="Times,serif" font-size="14.00">stm_combination_sentinel</text>
</g>
<!-- p2 -->
<g id="node5" class="node">
<title>p2</title>
<ellipse fill="black" stroke="black" cx="294.6" cy="-948.8" rx="3.6" ry="3.6"/>
<text text-anchor="middle" x="329.5" y="-956.2" font-family="Times,serif" font-size="14.00">Channel.of</text>
</g>
<!-- p2&#45;&gt;p3 -->
<g id="edge3" class="edge">
<title>p2&#45;&gt;p3</title>
<path fill="none" stroke="black" d="M295.6,-944.93C298.82,-936.18 309.79,-909.69 328.6,-897.8 348.15,-885.44 417.39,-879.89 447.01,-878.05"/>
<polygon fill="black" stroke="black" points="447.23,-881.54 457.01,-877.47 446.83,-874.55 447.23,-881.54"/>
</g>
<!-- p4&#45;&gt;p5 -->
<g id="edge5" class="edge">
<title>p4&#45;&gt;p5</title>
<path fill="none" stroke="black" d="M461,-814.56C462.7,-803.43 469.35,-759.94 472.68,-738.17"/>
<polygon fill="black" stroke="black" points="476.17,-738.49 474.22,-728.08 469.25,-737.44 476.17,-738.49"/>
</g>
<!-- p38 -->
<g id="node39" class="node">
<title>p38</title>
<ellipse fill="none" stroke="black" cx="449.6" cy="-58.6" rx="53.89" ry="18"/>
<text text-anchor="middle" x="449.6" y="-54.9" font-family="Times,serif" font-size="14.00">stms_sen</text>
</g>
<!-- p37&#45;&gt;p38 -->
<g id="edge42" class="edge">
<title>p37&#45;&gt;p38</title>
<path fill="none" stroke="black" d="M449.6,-113.37C449.6,-108.43 449.6,-97.5 449.6,-86.77"/>
<polygon fill="black" stroke="black" points="453.1,-86.75 449.6,-76.75 446.1,-86.75 453.1,-86.75"/>
</g>
<!-- p6 -->
<g id="node8" class="node">
<title>p6</title>
<ellipse fill="black" stroke="black" cx="733.6" cy="-948.8" rx="3.6" ry="3.6"/>
<text text-anchor="middle" x="691.5" y="-956.2" font-family="Times,serif" font-size="14.00">Channel.of</text>
</g>
<!-- p6&#45;&gt;p7 -->
<g id="edge7" class="edge">
<title>p6&#45;&gt;p7</title>
<path fill="none" stroke="black" d="M733.14,-944.98C731.81,-937.18 727.52,-914.8 719.6,-897.8 717.98,-894.32 715.79,-890.78 713.62,-887.64"/>
<polygon fill="black" stroke="black" points="716.33,-885.41 707.5,-879.55 710.74,-889.63 716.33,-885.41"/>
</g>
<!-- p8 -->
<g id="node10" class="node">
<title>p8</title>
<ellipse fill="none" stroke="black" cx="705.6" cy="-818.2" rx="3.5" ry="3.5"/>
<text text-anchor="middle" x="674.1" y="-825.5" font-family="Times,serif" font-size="14.00">flatMap</text>
</g>
<!-- p7&#45;&gt;p8 -->
<g id="edge9" class="edge">
<title>p7&#45;&gt;p8</title>
<path fill="none" stroke="black" d="M705.6,-872.59C705.6,-865.36 705.6,-845.23 705.6,-831.86"/>
<polygon fill="black" stroke="black" points="709.1,-831.75 705.6,-821.75 702.1,-831.75 709.1,-831.75"/>
</g>
<!-- p8&#45;&gt;p9 -->
<g id="edge10" class="edge">
<title>p8&#45;&gt;p9</title>
<path fill="none" stroke="black" d="M705.34,-814.56C704.25,-803.47 700.01,-760.3 697.86,-738.44"/>
<polygon fill="black" stroke="black" points="701.34,-738.04 696.88,-728.43 694.37,-738.73 701.34,-738.04"/>
</g>
<!-- p34 -->
<g id="node12" class="node">
<title>p34</title>
<ellipse fill="none" stroke="black" cx="643.6" cy="-117.1" rx="3.5" ry="3.5"/>
<text text-anchor="middle" x="609.6" y="-124.4" font-family="Times,serif" font-size="14.00">combine</text>
</g>
<!-- p9&#45;&gt;p34 -->
<g id="edge12" class="edge">
<title>p9&#45;&gt;p34</title>
<path fill="none" stroke="black" d="M696.6,-721.01C696.6,-713 696.6,-687.9 696.6,-667.1 696.6,-667.1 696.6,-667.1 696.6,-160.1 696.6,-139.7 672.19,-127.65 656.51,-122.01"/>
<polygon fill="black" stroke="black" points="657.35,-118.6 646.76,-118.91 655.23,-125.27 657.35,-118.6"/>
<text text-anchor="middle" x="787.1" y="-395.4" font-family="Times,serif" font-size="14.00">stm_combination_landsat</text>
</g>
<!-- p35 -->
<g id="node37" class="node">
<title>p35</title>
<ellipse fill="none" stroke="black" cx="643.6" cy="-58.6" rx="45.49" ry="18"/>
<text text-anchor="middle" x="643.6" y="-54.9" font-family="Times,serif" font-size="14.00">stms_ls</text>
</g>
<!-- p34&#45;&gt;p35 -->
<g id="edge40" class="edge">
<title>p34&#45;&gt;p35</title>
<path fill="none" stroke="black" d="M643.6,-113.37C643.6,-108.43 643.6,-97.5 643.6,-86.77"/>
<polygon fill="black" stroke="black" points="647.1,-86.75 643.6,-76.75 640.1,-86.75 647.1,-86.75"/>
</g>
<!-- p10 -->
<g id="node13" class="node">
<title>p10</title>
<ellipse fill="black" stroke="black" cx="163.6" cy="-1153.4" rx="3.6" ry="3.6"/>
<text text-anchor="middle" x="80" y="-1160.8" font-family="Times,serif" font-size="14.00">Channel.fromFilePairs</text>
</g>
<!-- p11 -->
<g id="node14" class="node">
<title>p11</title>
<ellipse fill="none" stroke="black" cx="163.6" cy="-1109.3" rx="3.5" ry="3.5"/>
<text text-anchor="middle" x="144.6" y="-1116.6" font-family="Times,serif" font-size="14.00">take</text>
</g>
<!-- p10&#45;&gt;p11 -->
<g id="edge13" class="edge">
<title>p10&#45;&gt;p11</title>
<path fill="none" stroke="black" d="M163.6,-1149.64C163.6,-1144.35 163.6,-1132.48 163.6,-1123.15"/>
<polygon fill="black" stroke="black" points="167.1,-1123.13 163.6,-1113.13 160.1,-1123.13 167.1,-1123.13"/>
</g>
<!-- p12 -->
<g id="node15" class="node">
<title>p12</title>
<ellipse fill="none" stroke="black" cx="163.6" cy="-1065.3" rx="3.5" ry="3.5"/>
<text text-anchor="middle" x="142.1" y="-1072.6" font-family="Times,serif" font-size="14.00">filter</text>
</g>
<!-- p11&#45;&gt;p12 -->
<g id="edge14" class="edge">
<title>p11&#45;&gt;p12</title>
<path fill="none" stroke="black" d="M163.6,-1105.54C163.6,-1100.27 163.6,-1088.43 163.6,-1079.12"/>
<polygon fill="black" stroke="black" points="167.1,-1079.12 163.6,-1069.12 160.1,-1079.12 167.1,-1079.12"/>
</g>
<!-- p13 -->
<g id="node16" class="node">
<title>p13</title>
<ellipse fill="none" stroke="black" cx="163.6" cy="-1021.3" rx="3.5" ry="3.5"/>
<text text-anchor="middle" x="144.6" y="-1028.6" font-family="Times,serif" font-size="14.00">map</text>
</g>
<!-- p12&#45;&gt;p13 -->
<g id="edge15" class="edge">
<title>p12&#45;&gt;p13</title>
<path fill="none" stroke="black" d="M163.6,-1061.54C163.6,-1056.27 163.6,-1044.43 163.6,-1035.12"/>
<polygon fill="black" stroke="black" points="167.1,-1035.12 163.6,-1025.12 160.1,-1035.12 167.1,-1035.12"/>
</g>
<!-- p14 -->
<g id="node17" class="node">
<title>p14</title>
<ellipse fill="none" stroke="black" cx="163.6" cy="-948.8" rx="102.08" ry="18"/>
<text text-anchor="middle" x="163.6" y="-945.1" font-family="Times,serif" font-size="14.00">mask_BOA:mask_pr</text>
</g>
<!-- p13&#45;&gt;p14 -->
<g id="edge16" class="edge">
<title>p13&#45;&gt;p14</title>
<path fill="none" stroke="black" d="M163.6,-1017.62C163.6,-1010.96 163.6,-993.04 163.6,-977.29"/>
<polygon fill="black" stroke="black" points="167.1,-976.9 163.6,-966.9 160.1,-976.9 167.1,-976.9"/>
<text text-anchor="middle" x="179.6" y="-988.6" font-family="Times,serif" font-size="14.00">data</text>
</g>
<!-- p15 -->
<g id="node18" class="node">
<title>p15</title>
<ellipse fill="none" stroke="black" cx="163.6" cy="-876.3" rx="3.5" ry="3.5"/>
<text text-anchor="middle" x="148.1" y="-883.6" font-family="Times,serif" font-size="14.00">tap</text>
</g>
<!-- p14&#45;&gt;p15 -->
<g id="edge17" class="edge">
<title>p14&#45;&gt;p15</title>
<path fill="none" stroke="black" d="M163.6,-930.73C163.6,-918.18 163.6,-901.39 163.6,-890"/>
<polygon fill="black" stroke="black" points="167.1,-889.96 163.6,-879.96 160.1,-889.96 167.1,-889.96"/>
</g>
<!-- p19 -->
<g id="node19" class="node">
<title>p19</title>
<ellipse fill="none" stroke="black" cx="290.6" cy="-778.6" rx="150.27" ry="18"/>
<text text-anchor="middle" x="290.6" y="-774.9" font-family="Times,serif" font-size="14.00">explode_base_files:explode_pr</text>
</g>
<!-- p15&#45;&gt;p19 -->
<g id="edge18" class="edge">
<title>p15&#45;&gt;p19</title>
<path fill="none" stroke="black" d="M167.38,-875.63C181.29,-876.62 230.24,-878.23 258.6,-854.8 273.14,-842.79 281.2,-822.99 285.6,-806.71"/>
<polygon fill="black" stroke="black" points="289.09,-807.19 287.99,-796.65 282.28,-805.57 289.09,-807.19"/>
<text text-anchor="middle" x="287.6" y="-843.6" font-family="Times,serif" font-size="14.00">data</text>
</g>
<!-- p17 -->
<g id="node20" class="node">
<title>p17</title>
<ellipse fill="none" stroke="black" cx="156.6" cy="-818.2" rx="3.5" ry="3.5"/>
<text text-anchor="middle" x="122.6" y="-825.5" font-family="Times,serif" font-size="14.00">combine</text>
</g>
<!-- p15&#45;&gt;p17 -->
<g id="edge19" class="edge">
<title>p15&#45;&gt;p17</title>
<path fill="none" stroke="black" d="M162.6,-872.7C161.18,-868.85 158.64,-861.39 157.6,-854.8 156.41,-847.26 156.14,-838.72 156.17,-831.89"/>
<polygon fill="black" stroke="black" points="159.67,-831.9 156.45,-821.81 152.67,-831.71 159.67,-831.9"/>
<text text-anchor="middle" x="208.1" y="-843.6" font-family="Times,serif" font-size="14.00">ch_for_indices</text>
</g>
<!-- p21 -->
<g id="node23" class="node">
<title>p21</title>
<ellipse fill="none" stroke="black" cx="252.6" cy="-666.1" rx="3.5" ry="3.5"/>
<text text-anchor="middle" x="235.6" y="-673.4" font-family="Times,serif" font-size="14.00">mix</text>
</g>
<!-- p19&#45;&gt;p21 -->
<g id="edge24" class="edge">
<title>p19&#45;&gt;p21</title>
<path fill="none" stroke="black" d="M287.81,-760.42C284.39,-741.86 277.65,-711.71 266.6,-687.6 265,-684.11 262.82,-680.56 260.65,-677.43"/>
<polygon fill="black" stroke="black" points="263.35,-675.19 254.52,-669.34 257.77,-679.42 263.35,-675.19"/>
</g>
<!-- p18 -->
<g id="node22" class="node">
<title>p18</title>
<ellipse fill="none" stroke="black" cx="133.6" cy="-724.6" rx="92.88" ry="18"/>
<text text-anchor="middle" x="133.6" y="-720.9" font-family="Times,serif" font-size="14.00">spectral_index_pr</text>
</g>
<!-- p17&#45;&gt;p18 -->
<g id="edge22" class="edge">
<title>p17&#45;&gt;p18</title>
<path fill="none" stroke="black" d="M154.34,-815.32C150.52,-812 142.89,-804.67 139.6,-796.6 134,-782.86 132.33,-766.41 132.14,-752.81"/>
<polygon fill="black" stroke="black" points="135.64,-752.65 132.25,-742.61 128.64,-752.57 135.64,-752.65"/>
</g>
<!-- p16&#45;&gt;p17 -->
<g id="edge21" class="edge">
<title>p16&#45;&gt;p17</title>
<path fill="none" stroke="black" d="M327.42,-872.53C326.82,-865.72 324.25,-848.12 313.6,-839.8 291.41,-822.48 204.22,-819.69 170.25,-819.26"/>
<polygon fill="black" stroke="black" points="170.11,-815.76 160.08,-819.19 170.06,-822.76 170.11,-815.76"/>
</g>
<!-- p18&#45;&gt;p21 -->
<g id="edge23" class="edge">
<title>p18&#45;&gt;p21</title>
<path fill="none" stroke="black" d="M167.06,-707.71C191.64,-696.04 223.6,-680.87 240.65,-672.77"/>
<polygon fill="black" stroke="black" points="242.26,-675.88 249.8,-668.43 239.26,-669.56 242.26,-675.88"/>
</g>
<!-- p22 -->
<g id="node25" class="node">
<title>p22</title>
<ellipse fill="none" stroke="black" cx="252.6" cy="-622.1" rx="3.5" ry="3.5"/>
<text text-anchor="middle" x="208.1" y="-629.4" font-family="Times,serif" font-size="14.00">groupTuple</text>
</g>
<!-- p21&#45;&gt;p22 -->
<g id="edge26" class="edge">
<title>p21&#45;&gt;p22</title>
<path fill="none" stroke="black" d="M252.6,-662.34C252.6,-657.07 252.6,-645.23 252.6,-635.92"/>
<polygon fill="black" stroke="black" points="256.1,-635.92 252.6,-625.92 249.1,-635.92 256.1,-635.92"/>
</g>
<!-- p20 -->
<g id="node24" class="node">
<title>p20</title>
<ellipse fill="black" stroke="black" cx="252.6" cy="-724.6" rx="3.6" ry="3.6"/>
<text text-anchor="middle" x="303.5" y="-732" font-family="Times,serif" font-size="14.00">Channel.empty</text>
</g>
<!-- p20&#45;&gt;p21 -->
<g id="edge25" class="edge">
<title>p20&#45;&gt;p21</title>
<path fill="none" stroke="black" d="M252.6,-720.87C252.6,-713.59 252.6,-693.31 252.6,-679.85"/>
<polygon fill="black" stroke="black" points="256.1,-679.67 252.6,-669.67 249.1,-679.67 256.1,-679.67"/>
</g>
<!-- p23 -->
<g id="node26" class="node">
<title>p23</title>
<ellipse fill="none" stroke="black" cx="252.6" cy="-578.1" rx="3.5" ry="3.5"/>
<text text-anchor="middle" x="233.6" y="-585.4" font-family="Times,serif" font-size="14.00">map</text>
</g>
<!-- p22&#45;&gt;p23 -->
<g id="edge27" class="edge">
<title>p22&#45;&gt;p23</title>
<path fill="none" stroke="black" d="M252.6,-618.34C252.6,-613.07 252.6,-601.23 252.6,-591.92"/>
<polygon fill="black" stroke="black" points="256.1,-591.92 252.6,-581.92 249.1,-591.92 256.1,-591.92"/>
</g>
<!-- p24 -->
<g id="node27" class="node">
<title>p24</title>
<ellipse fill="none" stroke="black" cx="252.6" cy="-505.6" rx="194.17" ry="18"/>
<text text-anchor="middle" x="252.6" y="-501.9" font-family="Times,serif" font-size="14.00">build_vrt_stack:build_vrt_stack_process</text>
</g>
<!-- p23&#45;&gt;p24 -->
<g id="edge28" class="edge">
<title>p23&#45;&gt;p24</title>
<path fill="none" stroke="black" d="M252.6,-574.42C252.6,-567.76 252.6,-549.84 252.6,-534.09"/>
<polygon fill="black" stroke="black" points="256.1,-533.7 252.6,-523.7 249.1,-533.7 256.1,-533.7"/>
<text text-anchor="middle" x="268.6" y="-545.4" font-family="Times,serif" font-size="14.00">data</text>
</g>
<!-- p25 -->
<g id="node28" class="node">
<title>p25</title>
<ellipse fill="none" stroke="black" cx="275.6" cy="-447.1" rx="3.5" ry="3.5"/>
<text text-anchor="middle" x="256.6" y="-454.4" font-family="Times,serif" font-size="14.00">map</text>
</g>
<!-- p24&#45;&gt;p25 -->
<g id="edge29" class="edge">
<title>p24&#45;&gt;p25</title>
<path fill="none" stroke="black" d="M259.63,-487.34C263.21,-478.55 267.47,-468.07 270.69,-460.16"/>
<polygon fill="black" stroke="black" points="274.03,-461.24 274.56,-450.66 267.55,-458.6 274.03,-461.24"/>
</g>
<!-- p26 -->
<g id="node29" class="node">
<title>p26</title>
<ellipse fill="none" stroke="black" cx="292.6" cy="-399.1" rx="3.5" ry="3.5"/>
<text text-anchor="middle" x="273.6" y="-406.4" font-family="Times,serif" font-size="14.00">map</text>
</g>
<!-- p25&#45;&gt;p26 -->
<g id="edge30" class="edge">
<title>p25&#45;&gt;p26</title>
<path fill="none" stroke="black" d="M276.51,-443.63C278.66,-437.82 284.15,-422.97 288.12,-412.24"/>
<polygon fill="black" stroke="black" points="291.41,-413.41 291.6,-402.81 284.85,-410.98 291.41,-413.41"/>
</g>
<!-- p27 -->
<g id="node30" class="node">
<title>p27</title>
<ellipse fill="none" stroke="black" cx="296.6" cy="-351.1" rx="3.5" ry="3.5"/>
<text text-anchor="middle" x="281.1" y="-358.4" font-family="Times,serif" font-size="14.00">tap</text>
</g>
<!-- p26&#45;&gt;p27 -->
<g id="edge31" class="edge">
<title>p26&#45;&gt;p27</title>
<path fill="none" stroke="black" d="M292.84,-395.36C293.35,-389.53 294.56,-375.57 295.47,-365.07"/>
<polygon fill="black" stroke="black" points="298.99,-365.03 296.37,-354.77 292.01,-364.43 298.99,-365.03"/>
</g>
<!-- p29 -->
<g id="node31" class="node">
<title>p29</title>
<ellipse fill="none" stroke="black" cx="301.6" cy="-293.1" rx="3.5" ry="3.5"/>
<text text-anchor="middle" x="282.6" y="-300.4" font-family="Times,serif" font-size="14.00">map</text>
</g>
<!-- p27&#45;&gt;p29 -->
<g id="edge32" class="edge">
<title>p27&#45;&gt;p29</title>
<path fill="none" stroke="black" d="M296.84,-347.4C297.49,-340.18 299.28,-320.08 300.47,-306.73"/>
<polygon fill="black" stroke="black" points="303.97,-306.92 301.37,-296.64 297,-306.29 303.97,-306.92"/>
</g>
<!-- p28 -->
<g id="node32" class="node">
<title>p28</title>
<ellipse fill="black" stroke="black" cx="329.6" cy="-293.1" rx="1.8" ry="1.8"/>
</g>
<!-- p27&#45;&gt;p28 -->
<g id="edge33" class="edge">
<title>p27&#45;&gt;p28</title>
<path fill="none" stroke="black" d="M298.02,-347.69C302.43,-340.21 316.09,-317.02 323.93,-303.73"/>
<polygon fill="black" stroke="black" points="327.1,-305.24 329.16,-294.85 321.07,-301.69 327.1,-305.24"/>
<text text-anchor="middle" x="381.1" y="-318.4" font-family="Times,serif" font-size="14.00">ch_stacked_raster</text>
</g>
<!-- p30 -->
<g id="node33" class="node">
<title>p30</title>
<ellipse fill="none" stroke="black" cx="367.6" cy="-249.1" rx="3.5" ry="3.5"/>
<text text-anchor="middle" x="323.1" y="-256.4" font-family="Times,serif" font-size="14.00">groupTuple</text>
</g>
<!-- p29&#45;&gt;p30 -->
<g id="edge34" class="edge">
<title>p29&#45;&gt;p30</title>
<path fill="none" stroke="black" d="M304.11,-290.5C312.6,-285.1 340.65,-267.25 356.47,-257.18"/>
<polygon fill="black" stroke="black" points="358.53,-260.02 365.09,-251.7 354.78,-254.11 358.53,-260.02"/>
</g>
<!-- p31 -->
<g id="node34" class="node">
<title>p31</title>
<ellipse fill="none" stroke="black" cx="411.6" cy="-205.1" rx="3.5" ry="3.5"/>
<text text-anchor="middle" x="392.6" y="-212.4" font-family="Times,serif" font-size="14.00">map</text>
</g>
<!-- p30&#45;&gt;p31 -->
<g id="edge35" class="edge">
<title>p30&#45;&gt;p31</title>
<path fill="none" stroke="black" d="M369.72,-246.07C375.46,-240.6 391.54,-225.25 402.03,-215.24"/>
<polygon fill="black" stroke="black" points="404.58,-217.64 409.4,-208.2 399.75,-212.58 404.58,-217.64"/>
</g>
<!-- p32 -->
<g id="node35" class="node">
<title>p32</title>
<ellipse fill="none" stroke="black" cx="422.6" cy="-161.1" rx="3.5" ry="3.5"/>
<text text-anchor="middle" x="394.1" y="-168.4" font-family="Times,serif" font-size="14.00">branch</text>
</g>
<!-- p31&#45;&gt;p32 -->
<g id="edge36" class="edge">
<title>p31&#45;&gt;p32</title>
<path fill="none" stroke="black" d="M412.32,-201.34C413.72,-196.01 416.87,-183.96 419.32,-174.61"/>
<polygon fill="black" stroke="black" points="422.71,-175.48 421.86,-164.92 415.94,-173.71 422.71,-175.48"/>
</g>
<!-- p32&#45;&gt;p37 -->
<g id="edge37" class="edge">
<title>p32&#45;&gt;p37</title>
<path fill="none" stroke="black" d="M424.05,-157.84C427.46,-152.54 436.17,-138.99 442.48,-129.18"/>
<polygon fill="black" stroke="black" points="445.54,-130.88 448.01,-120.58 439.66,-127.1 445.54,-130.88"/>
</g>
<!-- p32&#45;&gt;p34 -->
<g id="edge38" class="edge">
<title>p32&#45;&gt;p34</title>
<path fill="none" stroke="black" d="M425.72,-159.51C448.26,-155.22 586.36,-128.98 630.24,-120.64"/>
<polygon fill="black" stroke="black" points="631.1,-124.04 640.27,-118.73 629.79,-117.16 631.1,-124.04"/>
</g>
<!-- p33 -->
<g id="node36" class="node">
<title>p33</title>
<ellipse fill="black" stroke="black" cx="399.6" cy="-117.1" rx="1.8" ry="1.8"/>
</g>
<!-- p32&#45;&gt;p33 -->
<g id="edge39" class="edge">
<title>p32&#45;&gt;p33</title>
<path fill="none" stroke="black" d="M421.09,-157.34C417.91,-151.53 410.37,-137.76 405.12,-128.19"/>
<polygon fill="black" stroke="black" points="408.19,-126.49 400.31,-119.4 402.05,-129.86 408.19,-126.49"/>
</g>
<!-- p36 -->
<g id="node38" class="node">
<title>p36</title>
<ellipse fill="black" stroke="black" cx="643.6" cy="-1.8" rx="1.8" ry="1.8"/>
</g>
<!-- p35&#45;&gt;p36 -->
<g id="edge41" class="edge">
<title>p35&#45;&gt;p36</title>
<path fill="none" stroke="black" d="M643.6,-40.56C643.6,-31.87 643.6,-21.56 643.6,-13.9"/>
<polygon fill="black" stroke="black" points="647.1,-13.76 643.6,-3.76 640.1,-13.76 647.1,-13.76"/>
</g>
<!-- p39 -->
<g id="node40" class="node">
<title>p39</title>
<ellipse fill="black" stroke="black" cx="449.6" cy="-1.8" rx="1.8" ry="1.8"/>
</g>
<!-- p38&#45;&gt;p39 -->
<g id="edge43" class="edge">
<title>p38&#45;&gt;p39</title>
<path fill="none" stroke="black" d="M449.6,-40.56C449.6,-31.87 449.6,-21.56 449.6,-13.9"/>
<polygon fill="black" stroke="black" points="453.1,-13.76 449.6,-3.76 446.1,-13.76 453.1,-13.76"/>
</g>
</g>
</svg>
