<?xml version="1.0" encoding="UTF-8" standalone="no"?>
<!DOCTYPE svg PUBLIC "-//W3C//DTD SVG 1.1//EN"
 "http://www.w3.org/Graphics/SVG/1.1/DTD/svg11.dtd">
<!-- Generated by graphviz version 2.43.0 (0)
 -->
<!-- Title: dag Pages: 1 -->
<svg width="824pt" height="1887pt"
 viewBox="0.00 0.00 824.24 1887.20" xmlns="http://www.w3.org/2000/svg" xmlns:xlink="http://www.w3.org/1999/xlink">
<g id="graph0" class="graph" transform="scale(1 1) rotate(0) translate(4 1883.2)">
<title>dag</title>
<polygon fill="white" stroke="transparent" points="-4,4 -4,-1883.2 820.24,-1883.2 820.24,4 -4,4"/>
<!-- p0 -->
<g id="node1" class="node">
<title>p0</title>
<ellipse fill="black" stroke="black" cx="158.84" cy="-825.6" rx="3.6" ry="3.6"/>
<text text-anchor="middle" x="90.24" y="-833" font-family="Times,serif" font-size="14.00">Channel.fromPath</text>
</g>
<!-- p2 -->
<g id="node2" class="node">
<title>p2</title>
<ellipse fill="none" stroke="black" cx="167.84" cy="-767.1" rx="3.5" ry="3.5"/>
<text text-anchor="middle" x="140.84" y="-774.4" font-family="Times,serif" font-size="14.00">concat</text>
</g>
<!-- p0&#45;&gt;p2 -->
<g id="edge1" class="edge">
<title>p0&#45;&gt;p2</title>
<path fill="none" stroke="black" d="M159.27,-821.87C160.43,-814.59 163.66,-794.31 165.81,-780.85"/>
<polygon fill="black" stroke="black" points="169.31,-781.09 167.43,-770.67 162.4,-779.99 169.31,-781.09"/>
</g>
<!-- p3 -->
<g id="node4" class="node">
<title>p3</title>
<ellipse fill="none" stroke="black" cx="167.84" cy="-708.6" rx="3.5" ry="3.5"/>
<text text-anchor="middle" x="140.84" y="-715.9" font-family="Times,serif" font-size="14.00">collect</text>
</g>
<!-- p2&#45;&gt;p3 -->
<g id="edge3" class="edge">
<title>p2&#45;&gt;p3</title>
<path fill="none" stroke="black" d="M167.84,-763.37C167.84,-756.09 167.84,-735.81 167.84,-722.35"/>
<polygon fill="black" stroke="black" points="171.34,-722.17 167.84,-712.17 164.34,-722.17 171.34,-722.17"/>
</g>
<!-- p1 -->
<g id="node3" class="node">
<title>p1</title>
<ellipse fill="black" stroke="black" cx="183.84" cy="-825.6" rx="3.6" ry="3.6"/>
<text text-anchor="middle" x="141.74" y="-810.8" font-family="Times,serif" font-size="14.00">Channel.of</text>
</g>
<!-- p1&#45;&gt;p2 -->
<g id="edge2" class="edge">
<title>p1&#45;&gt;p2</title>
<path fill="none" stroke="black" d="M183.07,-821.87C180.98,-814.52 175.14,-793.89 171.33,-780.43"/>
<polygon fill="black" stroke="black" points="174.66,-779.34 168.56,-770.67 167.92,-781.24 174.66,-779.34"/>
</g>
<!-- p4 -->
<g id="node5" class="node">
<title>p4</title>
<ellipse fill="none" stroke="black" cx="167.84" cy="-621.6" rx="59.29" ry="18"/>
<text text-anchor="middle" x="167.84" y="-617.9" font-family="Times,serif" font-size="14.00">spat_lucas</text>
</g>
<!-- p3&#45;&gt;p4 -->
<g id="edge4" class="edge">
<title>p3&#45;&gt;p4</title>
<path fill="none" stroke="black" d="M167.84,-704.77C167.84,-696.28 167.84,-670.35 167.84,-649.87"/>
<polygon fill="black" stroke="black" points="171.34,-649.77 167.84,-639.77 164.34,-649.77 171.34,-649.77"/>
<text text-anchor="middle" x="186.34" y="-661.4" font-family="Times,serif" font-size="14.00">lucas</text>
</g>
<!-- p42 -->
<g id="node6" class="node">
<title>p42</title>
<ellipse fill="none" stroke="black" cx="167.84" cy="-549.1" rx="3.5" ry="3.5"/>
<text text-anchor="middle" x="133.84" y="-556.4" font-family="Times,serif" font-size="14.00">combine</text>
</g>
<!-- p4&#45;&gt;p42 -->
<g id="edge5" class="edge">
<title>p4&#45;&gt;p42</title>
<path fill="none" stroke="black" d="M167.84,-603.53C167.84,-590.98 167.84,-574.19 167.84,-562.8"/>
<polygon fill="black" stroke="black" points="171.34,-562.76 167.84,-552.76 164.34,-562.76 171.34,-562.76"/>
</g>
<!-- p43 -->
<g id="node45" class="node">
<title>p43</title>
<ellipse fill="none" stroke="black" cx="153.84" cy="-490.6" rx="143.77" ry="18"/>
<text text-anchor="middle" x="153.84" y="-486.9" font-family="Times,serif" font-size="14.00">create_classification_dataset</text>
</g>
<!-- p42&#45;&gt;p43 -->
<g id="edge47" class="edge">
<title>p42&#45;&gt;p43</title>
<path fill="none" stroke="black" d="M167.16,-545.37C165.94,-540.43 163.23,-529.5 160.57,-518.77"/>
<polygon fill="black" stroke="black" points="163.89,-517.62 158.09,-508.75 157.1,-519.3 163.89,-517.62"/>
</g>
<!-- p5 -->
<g id="node7" class="node">
<title>p5</title>
<ellipse fill="black" stroke="black" cx="370.84" cy="-1583" rx="3.6" ry="3.6"/>
<text text-anchor="middle" x="328.74" y="-1590.4" font-family="Times,serif" font-size="14.00">Channel.of</text>
</g>
<!-- p8 -->
<g id="node8" class="node">
<title>p8</title>
<ellipse fill="none" stroke="black" cx="157.84" cy="-1510.5" rx="3.5" ry="3.5"/>
<text text-anchor="middle" x="140.84" y="-1517.8" font-family="Times,serif" font-size="14.00">mix</text>
</g>
<!-- p5&#45;&gt;p8 -->
<g id="edge6" class="edge">
<title>p5&#45;&gt;p8</title>
<path fill="none" stroke="black" d="M367.65,-1581.27C353.19,-1577.95 292.3,-1563.61 243.84,-1547 217.03,-1537.81 186.58,-1524.55 170.07,-1517.11"/>
<polygon fill="black" stroke="black" points="171.31,-1513.83 160.76,-1512.86 168.4,-1520.19 171.31,-1513.83"/>
<text text-anchor="middle" x="301.34" y="-1535.8" font-family="Times,serif" font-size="14.00">spectral_indices</text>
</g>
<!-- p13 -->
<g id="node15" class="node">
<title>p13</title>
<ellipse fill="none" stroke="black" cx="360.84" cy="-1510.5" rx="3.5" ry="3.5"/>
<text text-anchor="middle" x="343.84" y="-1517.8" font-family="Times,serif" font-size="14.00">mix</text>
</g>
<!-- p5&#45;&gt;p13 -->
<g id="edge13" class="edge">
<title>p5&#45;&gt;p13</title>
<path fill="none" stroke="black" d="M370.46,-1579.32C369.19,-1570.42 365.08,-1541.44 362.66,-1524.37"/>
<polygon fill="black" stroke="black" points="366.09,-1523.59 361.22,-1514.18 359.16,-1524.57 366.09,-1523.59"/>
<text text-anchor="middle" x="423.34" y="-1535.8" font-family="Times,serif" font-size="14.00">spectral_indices</text>
</g>
<!-- p22 -->
<g id="node27" class="node">
<title>p22</title>
<ellipse fill="none" stroke="black" cx="511.84" cy="-1510.5" rx="3.5" ry="3.5"/>
<text text-anchor="middle" x="480.84" y="-1517.8" font-family="Times,serif" font-size="14.00">flatMap</text>
</g>
<!-- p5&#45;&gt;p22 -->
<g id="edge24" class="edge">
<title>p5&#45;&gt;p22</title>
<path fill="none" stroke="black" d="M374.34,-1581.7C389.1,-1580.31 447.14,-1573.3 484.84,-1547 493.64,-1540.86 500.83,-1530.95 505.57,-1523.17"/>
<polygon fill="black" stroke="black" points="508.76,-1524.62 510.55,-1514.18 502.64,-1521.23 508.76,-1524.62"/>
<text text-anchor="middle" x="556.34" y="-1535.8" font-family="Times,serif" font-size="14.00">spectral_indices</text>
</g>
<!-- p9 -->
<g id="node12" class="node">
<title>p9</title>
<ellipse fill="none" stroke="black" cx="117.84" cy="-1452.4" rx="3.5" ry="3.5"/>
<text text-anchor="middle" x="86.84" y="-1459.7" font-family="Times,serif" font-size="14.00">flatMap</text>
</g>
<!-- p8&#45;&gt;p9 -->
<g id="edge9" class="edge">
<title>p8&#45;&gt;p9</title>
<path fill="none" stroke="black" d="M156.12,-1507.09C150.93,-1499.81 135.17,-1477.71 125.57,-1464.24"/>
<polygon fill="black" stroke="black" points="128.16,-1461.85 119.5,-1455.74 122.46,-1465.91 128.16,-1461.85"/>
</g>
<!-- p6 -->
<g id="node9" class="node">
<title>p6</title>
<ellipse fill="black" stroke="black" cx="194.84" cy="-1452.4" rx="3.6" ry="3.6"/>
<text text-anchor="middle" x="152.74" y="-1459.8" font-family="Times,serif" font-size="14.00">Channel.of</text>
</g>
<!-- p10 -->
<g id="node10" class="node">
<title>p10</title>
<ellipse fill="none" stroke="black" cx="110.84" cy="-1358.8" rx="3.5" ry="3.5"/>
<text text-anchor="middle" x="76.84" y="-1366.1" font-family="Times,serif" font-size="14.00">combine</text>
</g>
<!-- p6&#45;&gt;p10 -->
<g id="edge7" class="edge">
<title>p6&#45;&gt;p10</title>
<path fill="none" stroke="black" d="M191.47,-1450.87C182.7,-1449.33 158.89,-1444.09 144.84,-1430.8 135.76,-1422.21 122.3,-1389.66 115.35,-1371.77"/>
<polygon fill="black" stroke="black" points="118.6,-1370.46 111.78,-1362.36 112.06,-1372.95 118.6,-1370.46"/>
<text text-anchor="middle" x="188.34" y="-1409.1" font-family="Times,serif" font-size="14.00">stm_choices</text>
</g>
<!-- p37 -->
<g id="node39" class="node">
<title>p37</title>
<ellipse fill="none" stroke="black" cx="257.84" cy="-884.1" rx="3.5" ry="3.5"/>
<text text-anchor="middle" x="223.84" y="-891.4" font-family="Times,serif" font-size="14.00">combine</text>
</g>
<!-- p6&#45;&gt;p37 -->
<g id="edge40" class="edge">
<title>p6&#45;&gt;p37</title>
<path fill="none" stroke="black" d="M198.13,-1450.58C205.47,-1448.58 223.19,-1442.69 231.84,-1430.8 250.75,-1404.79 245.84,-1391.96 245.84,-1359.8 245.84,-1359.8 245.84,-1359.8 245.84,-927.1 245.84,-916.71 249.28,-905.4 252.47,-897.14"/>
<polygon fill="black" stroke="black" points="255.81,-898.25 256.55,-887.68 249.38,-895.48 255.81,-898.25"/>
<text text-anchor="middle" x="289.34" y="-1132.4" font-family="Times,serif" font-size="14.00">stm_choices</text>
</g>
<!-- p11 -->
<g id="node13" class="node">
<title>p11</title>
<ellipse fill="black" stroke="black" cx="44.84" cy="-1286.2" rx="1.8" ry="1.8"/>
</g>
<!-- p10&#45;&gt;p11 -->
<g id="edge11" class="edge">
<title>p10&#45;&gt;p11</title>
<path fill="none" stroke="black" d="M107.64,-1357.23C96.65,-1355.08 60.37,-1346.37 45.84,-1322.8 41.29,-1315.43 41.42,-1305.48 42.47,-1297.97"/>
<polygon fill="black" stroke="black" points="45.89,-1298.68 44.54,-1288.18 39.05,-1297.24 45.89,-1298.68"/>
<text text-anchor="middle" x="138.84" y="-1311.6" font-family="Times,serif" font-size="14.00">stm_combination_sentinel</text>
</g>
<!-- p7 -->
<g id="node11" class="node">
<title>p7</title>
<ellipse fill="black" stroke="black" cx="157.84" cy="-1583" rx="3.6" ry="3.6"/>
<text text-anchor="middle" x="115.74" y="-1590.4" font-family="Times,serif" font-size="14.00">Channel.of</text>
</g>
<!-- p7&#45;&gt;p8 -->
<g id="edge8" class="edge">
<title>p7&#45;&gt;p8</title>
<path fill="none" stroke="black" d="M157.84,-1579.32C157.84,-1570.42 157.84,-1541.44 157.84,-1524.37"/>
<polygon fill="black" stroke="black" points="161.34,-1524.18 157.84,-1514.18 154.34,-1524.18 161.34,-1524.18"/>
</g>
<!-- p9&#45;&gt;p10 -->
<g id="edge10" class="edge">
<title>p9&#45;&gt;p10</title>
<path fill="none" stroke="black" d="M117.63,-1448.76C116.79,-1437.67 113.49,-1394.5 111.82,-1372.64"/>
<polygon fill="black" stroke="black" points="115.31,-1372.34 111.05,-1362.63 108.33,-1372.87 115.31,-1372.34"/>
</g>
<!-- p12 -->
<g id="node14" class="node">
<title>p12</title>
<ellipse fill="black" stroke="black" cx="199.84" cy="-1583" rx="3.6" ry="3.6"/>
<text text-anchor="middle" x="157.74" y="-1568.2" font-family="Times,serif" font-size="14.00">Channel.of</text>
</g>
<!-- p12&#45;&gt;p13 -->
<g id="edge12" class="edge">
<title>p12&#45;&gt;p13</title>
<path fill="none" stroke="black" d="M199.66,-1579.19C199.29,-1570.61 199.45,-1544.57 213.84,-1532 233.54,-1514.79 314.46,-1511.98 347.1,-1511.56"/>
<polygon fill="black" stroke="black" points="347.31,-1515.06 357.29,-1511.49 347.26,-1508.06 347.31,-1515.06"/>
</g>
<!-- p14 -->
<g id="node16" class="node">
<title>p14</title>
<ellipse fill="none" stroke="black" cx="360.84" cy="-1412.8" rx="3.5" ry="3.5"/>
<text text-anchor="middle" x="329.84" y="-1420.1" font-family="Times,serif" font-size="14.00">flatMap</text>
</g>
<!-- p13&#45;&gt;p14 -->
<g id="edge14" class="edge">
<title>p13&#45;&gt;p14</title>
<path fill="none" stroke="black" d="M360.84,-1506.74C360.84,-1495.06 360.84,-1449.25 360.84,-1426.61"/>
<polygon fill="black" stroke="black" points="364.34,-1426.39 360.84,-1416.39 357.34,-1426.39 364.34,-1426.39"/>
</g>
<!-- p36 -->
<g id="node17" class="node">
<title>p36</title>
<ellipse fill="none" stroke="black" cx="360.84" cy="-928.1" rx="3.5" ry="3.5"/>
<text text-anchor="middle" x="326.84" y="-935.4" font-family="Times,serif" font-size="14.00">combine</text>
</g>
<!-- p14&#45;&gt;p36 -->
<g id="edge15" class="edge">
<title>p14&#45;&gt;p36</title>
<path fill="none" stroke="black" d="M360.84,-1409.14C360.84,-1397.89 360.84,-1353.11 360.84,-1316.3 360.84,-1316.3 360.84,-1316.3 360.84,-985.1 360.84,-970.29 360.84,-953.27 360.84,-941.92"/>
<polygon fill="black" stroke="black" points="364.34,-941.67 360.84,-931.67 357.34,-941.67 364.34,-941.67"/>
<text text-anchor="middle" x="451.34" y="-1165.4" font-family="Times,serif" font-size="14.00">stm_combination_landsat</text>
</g>
<!-- p36&#45;&gt;p37 -->
<g id="edge39" class="edge">
<title>p36&#45;&gt;p37</title>
<path fill="none" stroke="black" d="M357.87,-925.89C345,-920.64 293.67,-899.71 269.96,-890.04"/>
<polygon fill="black" stroke="black" points="271.21,-886.77 260.63,-886.24 268.56,-893.25 271.21,-886.77"/>
</g>
<!-- p15 -->
<g id="node18" class="node">
<title>p15</title>
<ellipse fill="black" stroke="black" cx="657.84" cy="-1860.6" rx="3.6" ry="3.6"/>
<text text-anchor="middle" x="574.24" y="-1868" font-family="Times,serif" font-size="14.00">Channel.fromFilePairs</text>
</g>
<!-- p16 -->
<g id="node19" class="node">
<title>p16</title>
<ellipse fill="none" stroke="black" cx="657.84" cy="-1816.5" rx="3.5" ry="3.5"/>
<text text-anchor="middle" x="638.84" y="-1823.8" font-family="Times,serif" font-size="14.00">map</text>
</g>
<!-- p15&#45;&gt;p16 -->
<g id="edge16" class="edge">
<title>p15&#45;&gt;p16</title>
<path fill="none" stroke="black" d="M657.84,-1856.84C657.84,-1851.55 657.84,-1839.68 657.84,-1830.35"/>
<polygon fill="black" stroke="black" points="661.34,-1830.33 657.84,-1820.33 654.34,-1830.33 661.34,-1830.33"/>
</g>
<!-- p17 -->
<g id="node20" class="node">
<title>p17</title>
<ellipse fill="none" stroke="black" cx="657.84" cy="-1772.5" rx="3.5" ry="3.5"/>
<text text-anchor="middle" x="636.84" y="-1779.8" font-family="Times,serif" font-size="14.00">filter</text>
</g>
<!-- p16&#45;&gt;p17 -->
<g id="edge17" class="edge">
<title>p16&#45;&gt;p17</title>
<path fill="none" stroke="black" d="M657.84,-1812.74C657.84,-1807.47 657.84,-1795.63 657.84,-1786.32"/>
<polygon fill="black" stroke="black" points="661.34,-1786.32 657.84,-1776.32 654.34,-1786.32 661.34,-1786.32"/>
</g>
<!-- p18 -->
<g id="node21" class="node">
<title>p18</title>
<ellipse fill="none" stroke="black" cx="657.84" cy="-1728.5" rx="3.5" ry="3.5"/>
<text text-anchor="middle" x="636.84" y="-1735.8" font-family="Times,serif" font-size="14.00">filter</text>
</g>
<!-- p17&#45;&gt;p18 -->
<g id="edge18" class="edge">
<title>p17&#45;&gt;p18</title>
<path fill="none" stroke="black" d="M657.84,-1768.74C657.84,-1763.47 657.84,-1751.63 657.84,-1742.32"/>
<polygon fill="black" stroke="black" points="661.34,-1742.32 657.84,-1732.32 654.34,-1742.32 661.34,-1742.32"/>
</g>
<!-- p19 -->
<g id="node22" class="node">
<title>p19</title>
<ellipse fill="none" stroke="black" cx="657.84" cy="-1656" rx="91.78" ry="18"/>
<text text-anchor="middle" x="657.84" y="-1652.3" font-family="Times,serif" font-size="14.00">mask_layer_stack</text>
</g>
<!-- p18&#45;&gt;p19 -->
<g id="edge19" class="edge">
<title>p18&#45;&gt;p19</title>
<path fill="none" stroke="black" d="M657.84,-1724.82C657.84,-1718.16 657.84,-1700.24 657.84,-1684.49"/>
<polygon fill="black" stroke="black" points="661.34,-1684.1 657.84,-1674.1 654.34,-1684.1 661.34,-1684.1"/>
<text text-anchor="middle" x="690.34" y="-1695.8" font-family="Times,serif" font-size="14.00">ch_dataP</text>
</g>
<!-- p20 -->
<g id="node23" class="node">
<title>p20</title>
<ellipse fill="none" stroke="black" cx="657.84" cy="-1583" rx="85.29" ry="18"/>
<text text-anchor="middle" x="657.84" y="-1579.3" font-family="Times,serif" font-size="14.00">set_raster_scale</text>
</g>
<!-- p19&#45;&gt;p20 -->
<g id="edge20" class="edge">
<title>p19&#45;&gt;p20</title>
<path fill="none" stroke="black" d="M657.84,-1637.81C657.84,-1629.79 657.84,-1620.05 657.84,-1611.07"/>
<polygon fill="black" stroke="black" points="661.34,-1611.03 657.84,-1601.03 654.34,-1611.03 661.34,-1611.03"/>
</g>
<!-- p21 -->
<g id="node24" class="node">
<title>p21</title>
<ellipse fill="none" stroke="black" cx="657.84" cy="-1510.5" rx="3.5" ry="3.5"/>
<text text-anchor="middle" x="642.34" y="-1517.8" font-family="Times,serif" font-size="14.00">tap</text>
</g>
<!-- p20&#45;&gt;p21 -->
<g id="edge21" class="edge">
<title>p20&#45;&gt;p21</title>
<path fill="none" stroke="black" d="M657.84,-1564.93C657.84,-1552.38 657.84,-1535.59 657.84,-1524.2"/>
<polygon fill="black" stroke="black" points="661.34,-1524.16 657.84,-1514.16 654.34,-1524.16 661.34,-1524.16"/>
</g>
<!-- p23 -->
<g id="node25" class="node">
<title>p23</title>
<ellipse fill="none" stroke="black" cx="519.84" cy="-1452.4" rx="3.5" ry="3.5"/>
<text text-anchor="middle" x="485.84" y="-1459.7" font-family="Times,serif" font-size="14.00">combine</text>
</g>
<!-- p21&#45;&gt;p23 -->
<g id="edge22" class="edge">
<title>p21&#45;&gt;p23</title>
<path fill="none" stroke="black" d="M654.35,-1509.55C640.63,-1509.61 589.34,-1508.46 553.84,-1489 542.88,-1482.99 533.34,-1472.23 527.18,-1464.11"/>
<polygon fill="black" stroke="black" points="529.95,-1461.95 521.33,-1455.78 524.22,-1465.98 529.95,-1461.95"/>
<text text-anchor="middle" x="604.34" y="-1477.8" font-family="Times,serif" font-size="14.00">ch_for_indices</text>
</g>
<!-- p25 -->
<g id="node26" class="node">
<title>p25</title>
<ellipse fill="none" stroke="black" cx="677.84" cy="-1412.8" rx="96.38" ry="18"/>
<text text-anchor="middle" x="677.84" y="-1409.1" font-family="Times,serif" font-size="14.00">explode_base_files</text>
</g>
<!-- p21&#45;&gt;p25 -->
<g id="edge23" class="edge">
<title>p21&#45;&gt;p25</title>
<path fill="none" stroke="black" d="M658.41,-1506.74C660.41,-1497.18 667.18,-1464.79 672.17,-1440.92"/>
<polygon fill="black" stroke="black" points="675.62,-1441.49 674.24,-1430.99 668.77,-1440.06 675.62,-1441.49"/>
<text text-anchor="middle" x="711.34" y="-1477.8" font-family="Times,serif" font-size="14.00">ch_base_files</text>
</g>
<!-- p24 -->
<g id="node28" class="node">
<title>p24</title>
<ellipse fill="none" stroke="black" cx="519.84" cy="-1358.8" rx="131.08" ry="18"/>
<text text-anchor="middle" x="519.84" y="-1355.1" font-family="Times,serif" font-size="14.00">calculate_spectral_indices</text>
</g>
<!-- p23&#45;&gt;p24 -->
<g id="edge26" class="edge">
<title>p23&#45;&gt;p24</title>
<path fill="none" stroke="black" d="M519.84,-1448.76C519.84,-1439.79 519.84,-1409.84 519.84,-1387.14"/>
<polygon fill="black" stroke="black" points="523.34,-1387.02 519.84,-1377.02 516.34,-1387.02 523.34,-1387.02"/>
</g>
<!-- p27 -->
<g id="node29" class="node">
<title>p27</title>
<ellipse fill="none" stroke="black" cx="677.84" cy="-1286.2" rx="3.5" ry="3.5"/>
<text text-anchor="middle" x="660.84" y="-1293.5" font-family="Times,serif" font-size="14.00">mix</text>
</g>
<!-- p25&#45;&gt;p27 -->
<g id="edge28" class="edge">
<title>p25&#45;&gt;p27</title>
<path fill="none" stroke="black" d="M677.84,-1394.74C677.84,-1369.55 677.84,-1322.97 677.84,-1300.29"/>
<polygon fill="black" stroke="black" points="681.34,-1300.04 677.84,-1290.04 674.34,-1300.04 681.34,-1300.04"/>
</g>
<!-- p22&#45;&gt;p23 -->
<g id="edge25" class="edge">
<title>p22&#45;&gt;p23</title>
<path fill="none" stroke="black" d="M512.22,-1506.79C513.25,-1499.56 516.13,-1479.43 518.03,-1466.06"/>
<polygon fill="black" stroke="black" points="521.53,-1466.34 519.47,-1455.95 514.6,-1465.36 521.53,-1466.34"/>
</g>
<!-- p24&#45;&gt;p27 -->
<g id="edge27" class="edge">
<title>p24&#45;&gt;p27</title>
<path fill="none" stroke="black" d="M556.48,-1341.43C591.57,-1325.75 642.49,-1303 665.6,-1292.67"/>
<polygon fill="black" stroke="black" points="667.22,-1295.78 674.93,-1288.5 664.37,-1289.39 667.22,-1295.78"/>
</g>
<!-- p29 -->
<g id="node31" class="node">
<title>p29</title>
<ellipse fill="none" stroke="black" cx="677.84" cy="-1242.1" rx="3.5" ry="3.5"/>
<text text-anchor="middle" x="643.84" y="-1249.4" font-family="Times,serif" font-size="14.00">combine</text>
</g>
<!-- p27&#45;&gt;p29 -->
<g id="edge30" class="edge">
<title>p27&#45;&gt;p29</title>
<path fill="none" stroke="black" d="M677.84,-1282.44C677.84,-1277.15 677.84,-1265.28 677.84,-1255.95"/>
<polygon fill="black" stroke="black" points="681.34,-1255.93 677.84,-1245.93 674.34,-1255.93 681.34,-1255.93"/>
</g>
<!-- p26 -->
<g id="node30" class="node">
<title>p26</title>
<ellipse fill="black" stroke="black" cx="710.84" cy="-1358.8" rx="3.6" ry="3.6"/>
<text text-anchor="middle" x="761.74" y="-1366.2" font-family="Times,serif" font-size="14.00">Channel.empty</text>
</g>
<!-- p26&#45;&gt;p27 -->
<g id="edge29" class="edge">
<title>p26&#45;&gt;p27</title>
<path fill="none" stroke="black" d="M710.12,-1354.97C708.09,-1347.17 701.83,-1324.75 692.84,-1307.8 690.93,-1304.2 688.46,-1300.53 686.07,-1297.3"/>
<polygon fill="black" stroke="black" points="688.79,-1295.1 679.82,-1289.47 683.32,-1299.47 688.79,-1295.1"/>
</g>
<!-- p30 -->
<g id="node33" class="node">
<title>p30</title>
<ellipse fill="none" stroke="black" cx="635.84" cy="-1198.1" rx="3.5" ry="3.5"/>
<text text-anchor="middle" x="616.84" y="-1205.4" font-family="Times,serif" font-size="14.00">map</text>
</g>
<!-- p29&#45;&gt;p30 -->
<g id="edge32" class="edge">
<title>p29&#45;&gt;p30</title>
<path fill="none" stroke="black" d="M675.58,-1238.84C669.94,-1233.21 655,-1218.27 645.13,-1208.4"/>
<polygon fill="black" stroke="black" points="647.45,-1205.76 637.91,-1201.17 642.5,-1210.71 647.45,-1205.76"/>
</g>
<!-- p28 -->
<g id="node32" class="node">
<title>p28</title>
<ellipse fill="black" stroke="black" cx="702.84" cy="-1286.2" rx="3.6" ry="3.6"/>
</g>
<!-- p28&#45;&gt;p29 -->
<g id="edge31" class="edge">
<title>p28&#45;&gt;p29</title>
<path fill="none" stroke="black" d="M701.2,-1282.44C697.85,-1276.8 690.07,-1263.71 684.41,-1254.17"/>
<polygon fill="black" stroke="black" points="687.38,-1252.31 679.26,-1245.5 681.36,-1255.88 687.38,-1252.31"/>
</g>
<!-- p31 -->
<g id="node34" class="node">
<title>p31</title>
<ellipse fill="none" stroke="black" cx="634.84" cy="-1136.1" rx="3.5" ry="3.5"/>
<text text-anchor="middle" x="613.84" y="-1143.4" font-family="Times,serif" font-size="14.00">filter</text>
</g>
<!-- p30&#45;&gt;p31 -->
<g id="edge33" class="edge">
<title>p30&#45;&gt;p31</title>
<path fill="none" stroke="black" d="M635.79,-1194.52C635.67,-1186.97 635.29,-1164.49 635.05,-1150.01"/>
<polygon fill="black" stroke="black" points="638.54,-1149.54 634.88,-1139.6 631.55,-1149.66 638.54,-1149.54"/>
</g>
<!-- p32 -->
<g id="node35" class="node">
<title>p32</title>
<ellipse fill="none" stroke="black" cx="613.84" cy="-1088.1" rx="3.5" ry="3.5"/>
<text text-anchor="middle" x="569.34" y="-1095.4" font-family="Times,serif" font-size="14.00">groupTuple</text>
</g>
<!-- p31&#45;&gt;p32 -->
<g id="edge34" class="edge">
<title>p31&#45;&gt;p32</title>
<path fill="none" stroke="black" d="M633.71,-1132.63C631.06,-1126.82 624.28,-1111.97 619.38,-1101.24"/>
<polygon fill="black" stroke="black" points="622.41,-1099.46 615.08,-1091.81 616.04,-1102.36 622.41,-1099.46"/>
</g>
<!-- p33 -->
<g id="node36" class="node">
<title>p33</title>
<ellipse fill="none" stroke="black" cx="603.84" cy="-1044.1" rx="3.5" ry="3.5"/>
<text text-anchor="middle" x="584.84" y="-1051.4" font-family="Times,serif" font-size="14.00">map</text>
</g>
<!-- p32&#45;&gt;p33 -->
<g id="edge35" class="edge">
<title>p32&#45;&gt;p33</title>
<path fill="none" stroke="black" d="M613.18,-1084.34C611.92,-1079.07 609.1,-1067.23 606.89,-1057.92"/>
<polygon fill="black" stroke="black" points="610.23,-1056.84 604.51,-1047.92 603.42,-1058.46 610.23,-1056.84"/>
</g>
<!-- p34 -->
<g id="node37" class="node">
<title>p34</title>
<ellipse fill="none" stroke="black" cx="598.84" cy="-986.1" rx="3.5" ry="3.5"/>
<text text-anchor="middle" x="583.34" y="-993.4" font-family="Times,serif" font-size="14.00">tap</text>
</g>
<!-- p33&#45;&gt;p34 -->
<g id="edge36" class="edge">
<title>p33&#45;&gt;p34</title>
<path fill="none" stroke="black" d="M603.6,-1040.4C602.95,-1033.18 601.16,-1013.08 599.96,-999.73"/>
<polygon fill="black" stroke="black" points="603.44,-999.29 599.06,-989.64 596.47,-999.92 603.44,-999.29"/>
<text text-anchor="middle" x="668.34" y="-1011.4" font-family="Times,serif" font-size="14.00">ch_grouped_bands</text>
</g>
<!-- p34&#45;&gt;p36 -->
<g id="edge38" class="edge">
<title>p34&#45;&gt;p36</title>
<path fill="none" stroke="black" d="M595.24,-985.28C576.16,-986.13 485.22,-988.68 416.84,-964.6 399.39,-958.46 381.79,-946.04 371.1,-937.65"/>
<polygon fill="black" stroke="black" points="373.14,-934.8 363.19,-931.17 368.7,-940.21 373.14,-934.8"/>
<text text-anchor="middle" x="505.84" y="-953.4" font-family="Times,serif" font-size="14.00">ch_group_stacked_raster</text>
</g>
<!-- p35 -->
<g id="node38" class="node">
<title>p35</title>
<ellipse fill="black" stroke="black" cx="598.84" cy="-928.1" rx="1.8" ry="1.8"/>
</g>
<!-- p34&#45;&gt;p35 -->
<g id="edge37" class="edge">
<title>p34&#45;&gt;p35</title>
<path fill="none" stroke="black" d="M598.84,-982.4C598.84,-974.95 598.84,-953.81 598.84,-940.5"/>
<polygon fill="black" stroke="black" points="602.34,-940.15 598.84,-930.15 595.34,-940.15 602.34,-940.15"/>
<text text-anchor="middle" x="663.34" y="-953.4" font-family="Times,serif" font-size="14.00">ch_stacked_raster</text>
</g>
<!-- p38 -->
<g id="node40" class="node">
<title>p38</title>
<ellipse fill="none" stroke="black" cx="257.84" cy="-825.6" rx="45.49" ry="18"/>
<text text-anchor="middle" x="257.84" y="-821.9" font-family="Times,serif" font-size="14.00">stms_ls</text>
</g>
<!-- p37&#45;&gt;p38 -->
<g id="edge41" class="edge">
<title>p37&#45;&gt;p38</title>
<path fill="none" stroke="black" d="M257.84,-880.37C257.84,-875.43 257.84,-864.5 257.84,-853.77"/>
<polygon fill="black" stroke="black" points="261.34,-853.75 257.84,-843.75 254.34,-853.75 261.34,-853.75"/>
</g>
<!-- p39 -->
<g id="node41" class="node">
<title>p39</title>
<ellipse fill="none" stroke="black" cx="257.84" cy="-767.1" rx="3.5" ry="3.5"/>
<text text-anchor="middle" x="213.34" y="-774.4" font-family="Times,serif" font-size="14.00">groupTuple</text>
</g>
<!-- p38&#45;&gt;p39 -->
<g id="edge42" class="edge">
<title>p38&#45;&gt;p39</title>
<path fill="none" stroke="black" d="M257.84,-807.34C257.84,-798.76 257.84,-788.57 257.84,-780.72"/>
<polygon fill="black" stroke="black" points="261.34,-780.66 257.84,-770.66 254.34,-780.66 261.34,-780.66"/>
</g>
<!-- p40 -->
<g id="node42" class="node">
<title>p40</title>
<ellipse fill="none" stroke="black" cx="257.84" cy="-708.6" rx="35.19" ry="18"/>
<text text-anchor="middle" x="257.84" y="-704.9" font-family="Times,serif" font-size="14.00">stack</text>
</g>
<!-- p39&#45;&gt;p40 -->
<g id="edge43" class="edge">
<title>p39&#45;&gt;p40</title>
<path fill="none" stroke="black" d="M257.84,-763.37C257.84,-758.43 257.84,-747.5 257.84,-736.77"/>
<polygon fill="black" stroke="black" points="261.34,-736.75 257.84,-726.75 254.34,-736.75 261.34,-736.75"/>
</g>
<!-- p41 -->
<g id="node43" class="node">
<title>p41</title>
<ellipse fill="none" stroke="black" cx="257.84" cy="-621.6" rx="3.5" ry="3.5"/>
<text text-anchor="middle" x="242.34" y="-628.9" font-family="Times,serif" font-size="14.00">tap</text>
</g>
<!-- p40&#45;&gt;p41 -->
<g id="edge44" class="edge">
<title>p40&#45;&gt;p41</title>
<path fill="none" stroke="black" d="M257.84,-690.4C257.84,-674.21 257.84,-650.31 257.84,-635.64"/>
<polygon fill="black" stroke="black" points="261.34,-635.24 257.84,-625.24 254.34,-635.24 261.34,-635.24"/>
</g>
<!-- p41&#45;&gt;p42 -->
<g id="edge45" class="edge">
<title>p41&#45;&gt;p42</title>
<path fill="none" stroke="black" d="M255.55,-618.77C251.59,-615.62 243.16,-608.96 235.84,-603.6 224.49,-595.3 220.99,-594.15 209.84,-585.6 198.51,-576.92 186.09,-566.27 177.71,-558.91"/>
<polygon fill="black" stroke="black" points="179.85,-556.13 170.05,-552.1 175.2,-561.36 179.85,-556.13"/>
<text text-anchor="middle" x="260.84" y="-574.4" font-family="Times,serif" font-size="14.00">training_stack</text>
</g>
<!-- p47 -->
<g id="node44" class="node">
<title>p47</title>
<ellipse fill="none" stroke="black" cx="265.84" cy="-234.1" rx="3.5" ry="3.5"/>
<text text-anchor="middle" x="231.84" y="-241.4" font-family="Times,serif" font-size="14.00">combine</text>
</g>
<!-- p41&#45;&gt;p47 -->
<g id="edge46" class="edge">
<title>p41&#45;&gt;p47</title>
<path fill="none" stroke="black" d="M260.74,-619.48C269.65,-615.9 296.84,-603.93 311.84,-585.6 322.58,-572.47 325.84,-567.06 325.84,-550.1 325.84,-550.1 325.84,-550.1 325.84,-291.6 325.84,-265.79 296.05,-248.3 278.45,-240.22"/>
<polygon fill="black" stroke="black" points="279.31,-236.79 268.73,-236.14 276.6,-243.24 279.31,-236.79"/>
<text text-anchor="middle" x="394.34" y="-424.4" font-family="Times,serif" font-size="14.00">classification_stack</text>
</g>
<!-- p48 -->
<g id="node49" class="node">
<title>p48</title>
<ellipse fill="none" stroke="black" cx="265.84" cy="-175.6" rx="89.88" ry="18"/>
<text text-anchor="middle" x="265.84" y="-171.9" font-family="Times,serif" font-size="14.00">predict_classifier</text>
</g>
<!-- p47&#45;&gt;p48 -->
<g id="edge52" class="edge">
<title>p47&#45;&gt;p48</title>
<path fill="none" stroke="black" d="M265.84,-230.37C265.84,-225.43 265.84,-214.5 265.84,-203.77"/>
<polygon fill="black" stroke="black" points="269.34,-203.75 265.84,-193.75 262.34,-203.75 269.34,-203.75"/>
</g>
<!-- p44 -->
<g id="node46" class="node">
<title>p44</title>
<ellipse fill="none" stroke="black" cx="150.84" cy="-428.1" rx="3.5" ry="3.5"/>
<text text-anchor="middle" x="123.84" y="-435.4" font-family="Times,serif" font-size="14.00">collect</text>
</g>
<!-- p43&#45;&gt;p44 -->
<g id="edge48" class="edge">
<title>p43&#45;&gt;p44</title>
<path fill="none" stroke="black" d="M152.99,-472.42C152.51,-462.85 151.93,-451.11 151.49,-442.26"/>
<polygon fill="black" stroke="black" points="154.97,-441.79 150.98,-431.97 147.98,-442.13 154.97,-441.79"/>
</g>
<!-- p45 -->
<g id="node47" class="node">
<title>p45</title>
<ellipse fill="none" stroke="black" cx="148.84" cy="-365.6" rx="148.67" ry="18"/>
<text text-anchor="middle" x="148.84" y="-361.9" font-family="Times,serif" font-size="14.00">merge_classification_datasets</text>
</g>
<!-- p44&#45;&gt;p45 -->
<g id="edge49" class="edge">
<title>p44&#45;&gt;p45</title>
<path fill="none" stroke="black" d="M150.75,-424.5C150.57,-419.15 150.15,-406.37 149.75,-394.18"/>
<polygon fill="black" stroke="black" points="153.23,-393.69 149.41,-383.82 146.24,-393.93 153.23,-393.69"/>
</g>
<!-- p46 -->
<g id="node48" class="node">
<title>p46</title>
<ellipse fill="none" stroke="black" cx="192.84" cy="-292.6" rx="90.98" ry="18"/>
<text text-anchor="middle" x="192.84" y="-288.9" font-family="Times,serif" font-size="14.00">train_rf_classifier</text>
</g>
<!-- p45&#45;&gt;p46 -->
<g id="edge50" class="edge">
<title>p45&#45;&gt;p46</title>
<path fill="none" stroke="black" d="M159.49,-347.41C164.73,-338.95 171.16,-328.58 176.96,-319.21"/>
<polygon fill="black" stroke="black" points="179.99,-320.97 182.28,-310.63 174.04,-317.29 179.99,-320.97"/>
</g>
<!-- p46&#45;&gt;p47 -->
<g id="edge51" class="edge">
<title>p46&#45;&gt;p47</title>
<path fill="none" stroke="black" d="M214.34,-274.95C227.86,-264.49 244.69,-251.47 255.35,-243.21"/>
<polygon fill="black" stroke="black" points="257.61,-245.89 263.38,-237 253.33,-240.36 257.61,-245.89"/>
</g>
<!-- p49 -->
<g id="node50" class="node">
<title>p49</title>
<ellipse fill="none" stroke="black" cx="265.84" cy="-117.1" rx="3.5" ry="3.5"/>
<text text-anchor="middle" x="238.84" y="-124.4" font-family="Times,serif" font-size="14.00">collect</text>
</g>
<!-- p48&#45;&gt;p49 -->
<g id="edge53" class="edge">
<title>p48&#45;&gt;p49</title>
<path fill="none" stroke="black" d="M265.84,-157.34C265.84,-148.76 265.84,-138.57 265.84,-130.72"/>
<polygon fill="black" stroke="black" points="269.34,-130.66 265.84,-120.66 262.34,-130.66 269.34,-130.66"/>
</g>
<!-- p50 -->
<g id="node51" class="node">
<title>p50</title>
<ellipse fill="none" stroke="black" cx="265.84" cy="-58.6" rx="79.09" ry="18"/>
<text text-anchor="middle" x="265.84" y="-54.9" font-family="Times,serif" font-size="14.00">build_class_vrt</text>
</g>
<!-- p49&#45;&gt;p50 -->
<g id="edge54" class="edge">
<title>p49&#45;&gt;p50</title>
<path fill="none" stroke="black" d="M265.84,-113.37C265.84,-108.43 265.84,-97.5 265.84,-86.77"/>
<polygon fill="black" stroke="black" points="269.34,-86.75 265.84,-76.75 262.34,-86.75 269.34,-86.75"/>
</g>
<!-- p51 -->
<g id="node52" class="node">
<title>p51</title>
<ellipse fill="black" stroke="black" cx="265.84" cy="-1.8" rx="1.8" ry="1.8"/>
</g>
<!-- p50&#45;&gt;p51 -->
<g id="edge55" class="edge">
<title>p50&#45;&gt;p51</title>
<path fill="none" stroke="black" d="M265.84,-40.56C265.84,-31.87 265.84,-21.56 265.84,-13.9"/>
<polygon fill="black" stroke="black" points="269.34,-13.76 265.84,-3.76 262.34,-13.76 269.34,-13.76"/>
</g>
</g>
</svg>
