<?xml version="1.0" encoding="UTF-8" standalone="no"?>
<!DOCTYPE svg PUBLIC "-//W3C//DTD SVG 1.1//EN"
 "http://www.w3.org/Graphics/SVG/1.1/DTD/svg11.dtd">
<!-- Generated by graphviz version 2.43.0 (0)
 -->
<!-- Title: dag Pages: 1 -->
<svg width="857pt" height="1829pt"
 viewBox="0.00 0.00 856.84 1829.20" xmlns="http://www.w3.org/2000/svg" xmlns:xlink="http://www.w3.org/1999/xlink">
<g id="graph0" class="graph" transform="scale(1 1) rotate(0) translate(4 1825.2)">
<title>dag</title>
<polygon fill="white" stroke="transparent" points="-4,4 -4,-1825.2 852.84,-1825.2 852.84,4 -4,4"/>
<!-- p0 -->
<g id="node1" class="node">
<title>p0</title>
<ellipse fill="black" stroke="black" cx="158.84" cy="-825.6" rx="3.6" ry="3.6"/>
<text text-anchor="middle" x="90.24" y="-833" font-family="Times,serif" font-size="14.00">Channel.fromPath</text>
</g>
<!-- p2 -->
<g id="node2" class="node">
<title>p2</title>
<ellipse fill="none" stroke="black" cx="167.84" cy="-767.1" rx="3.5" ry="3.5"/>
<text text-anchor="middle" x="140.84" y="-774.4" font-family="Times,serif" font-size="14.00">concat</text>
</g>
<!-- p0&#45;&gt;p2 -->
<g id="edge1" class="edge">
<title>p0&#45;&gt;p2</title>
<path fill="none" stroke="black" d="M159.27,-821.87C160.43,-814.59 163.66,-794.31 165.81,-780.85"/>
<polygon fill="black" stroke="black" points="169.31,-781.09 167.43,-770.67 162.4,-779.99 169.31,-781.09"/>
</g>
<!-- p3 -->
<g id="node4" class="node">
<title>p3</title>
<ellipse fill="none" stroke="black" cx="167.84" cy="-708.6" rx="3.5" ry="3.5"/>
<text text-anchor="middle" x="140.84" y="-715.9" font-family="Times,serif" font-size="14.00">collect</text>
</g>
<!-- p2&#45;&gt;p3 -->
<g id="edge3" class="edge">
<title>p2&#45;&gt;p3</title>
<path fill="none" stroke="black" d="M167.84,-763.37C167.84,-756.09 167.84,-735.81 167.84,-722.35"/>
<polygon fill="black" stroke="black" points="171.34,-722.17 167.84,-712.17 164.34,-722.17 171.34,-722.17"/>
</g>
<!-- p1 -->
<g id="node3" class="node">
<title>p1</title>
<ellipse fill="black" stroke="black" cx="183.84" cy="-825.6" rx="3.6" ry="3.6"/>
<text text-anchor="middle" x="141.74" y="-810.8" font-family="Times,serif" font-size="14.00">Channel.of</text>
</g>
<!-- p1&#45;&gt;p2 -->
<g id="edge2" class="edge">
<title>p1&#45;&gt;p2</title>
<path fill="none" stroke="black" d="M183.07,-821.87C180.98,-814.52 175.14,-793.89 171.33,-780.43"/>
<polygon fill="black" stroke="black" points="174.66,-779.34 168.56,-770.67 167.92,-781.24 174.66,-779.34"/>
</g>
<!-- p4 -->
<g id="node5" class="node">
<title>p4</title>
<ellipse fill="none" stroke="black" cx="167.84" cy="-621.6" rx="59.29" ry="18"/>
<text text-anchor="middle" x="167.84" y="-617.9" font-family="Times,serif" font-size="14.00">spat_lucas</text>
</g>
<!-- p3&#45;&gt;p4 -->
<g id="edge4" class="edge">
<title>p3&#45;&gt;p4</title>
<path fill="none" stroke="black" d="M167.84,-704.77C167.84,-696.28 167.84,-670.35 167.84,-649.87"/>
<polygon fill="black" stroke="black" points="171.34,-649.77 167.84,-639.77 164.34,-649.77 171.34,-649.77"/>
<text text-anchor="middle" x="186.34" y="-661.4" font-family="Times,serif" font-size="14.00">lucas</text>
</g>
<!-- p40 -->
<g id="node6" class="node">
<title>p40</title>
<ellipse fill="none" stroke="black" cx="167.84" cy="-549.1" rx="3.5" ry="3.5"/>
<text text-anchor="middle" x="133.84" y="-556.4" font-family="Times,serif" font-size="14.00">combine</text>
</g>
<!-- p4&#45;&gt;p40 -->
<g id="edge5" class="edge">
<title>p4&#45;&gt;p40</title>
<path fill="none" stroke="black" d="M167.84,-603.53C167.84,-590.98 167.84,-574.19 167.84,-562.8"/>
<polygon fill="black" stroke="black" points="171.34,-562.76 167.84,-552.76 164.34,-562.76 171.34,-562.76"/>
</g>
<!-- p41 -->
<g id="node43" class="node">
<title>p41</title>
<ellipse fill="none" stroke="black" cx="153.84" cy="-490.6" rx="143.77" ry="18"/>
<text text-anchor="middle" x="153.84" y="-486.9" font-family="Times,serif" font-size="14.00">create_classification_dataset</text>
</g>
<!-- p40&#45;&gt;p41 -->
<g id="edge45" class="edge">
<title>p40&#45;&gt;p41</title>
<path fill="none" stroke="black" d="M167.16,-545.37C165.94,-540.43 163.23,-529.5 160.57,-518.77"/>
<polygon fill="black" stroke="black" points="163.89,-517.62 158.09,-508.75 157.1,-519.3 163.89,-517.62"/>
</g>
<!-- p5 -->
<g id="node7" class="node">
<title>p5</title>
<ellipse fill="black" stroke="black" cx="513.84" cy="-1525" rx="3.6" ry="3.6"/>
<text text-anchor="middle" x="471.74" y="-1532.4" font-family="Times,serif" font-size="14.00">Channel.of</text>
</g>
<!-- p8 -->
<g id="node8" class="node">
<title>p8</title>
<ellipse fill="none" stroke="black" cx="195.84" cy="-1452.5" rx="3.5" ry="3.5"/>
<text text-anchor="middle" x="178.84" y="-1459.8" font-family="Times,serif" font-size="14.00">mix</text>
</g>
<!-- p5&#45;&gt;p8 -->
<g id="edge6" class="edge">
<title>p5&#45;&gt;p8</title>
<path fill="none" stroke="black" d="M510.27,-1523.21C479.88,-1516.47 264.5,-1468.72 208.9,-1456.4"/>
<polygon fill="black" stroke="black" points="209.5,-1452.95 198.98,-1454.2 207.99,-1459.78 209.5,-1452.95"/>
<text text-anchor="middle" x="412.34" y="-1477.8" font-family="Times,serif" font-size="14.00">spectral_indices</text>
</g>
<!-- p13 -->
<g id="node15" class="node">
<title>p13</title>
<ellipse fill="none" stroke="black" cx="667.84" cy="-1452.5" rx="3.5" ry="3.5"/>
<text text-anchor="middle" x="650.84" y="-1459.8" font-family="Times,serif" font-size="14.00">mix</text>
</g>
<!-- p5&#45;&gt;p13 -->
<g id="edge13" class="edge">
<title>p5&#45;&gt;p13</title>
<path fill="none" stroke="black" d="M517.29,-1523.54C531.85,-1521.51 589.36,-1512.29 629.84,-1489 636.17,-1485.35 649.71,-1472.11 658.79,-1462.87"/>
<polygon fill="black" stroke="black" points="661.51,-1465.09 665.96,-1455.47 656.49,-1460.22 661.51,-1465.09"/>
<text text-anchor="middle" x="704.34" y="-1477.8" font-family="Times,serif" font-size="14.00">spectral_indices</text>
</g>
<!-- p22 -->
<g id="node27" class="node">
<title>p22</title>
<ellipse fill="none" stroke="black" cx="517.84" cy="-1452.5" rx="3.5" ry="3.5"/>
<text text-anchor="middle" x="486.84" y="-1459.8" font-family="Times,serif" font-size="14.00">flatMap</text>
</g>
<!-- p5&#45;&gt;p22 -->
<g id="edge24" class="edge">
<title>p5&#45;&gt;p22</title>
<path fill="none" stroke="black" d="M513.77,-1521.28C513.62,-1513.76 513.35,-1492 514.84,-1474 515.05,-1471.48 515.37,-1468.8 515.72,-1466.23"/>
<polygon fill="black" stroke="black" points="519.21,-1466.57 517.34,-1456.14 512.3,-1465.46 519.21,-1466.57"/>
<text text-anchor="middle" x="572.34" y="-1477.8" font-family="Times,serif" font-size="14.00">spectral_indices</text>
</g>
<!-- p9 -->
<g id="node12" class="node">
<title>p9</title>
<ellipse fill="none" stroke="black" cx="114.84" cy="-1394.4" rx="3.5" ry="3.5"/>
<text text-anchor="middle" x="83.84" y="-1401.7" font-family="Times,serif" font-size="14.00">flatMap</text>
</g>
<!-- p8&#45;&gt;p9 -->
<g id="edge9" class="edge">
<title>p8&#45;&gt;p9</title>
<path fill="none" stroke="black" d="M193.5,-1449.88C183.61,-1443.03 144.81,-1416.16 125.65,-1402.89"/>
<polygon fill="black" stroke="black" points="127.56,-1399.95 117.34,-1397.13 123.57,-1405.71 127.56,-1399.95"/>
</g>
<!-- p6 -->
<g id="node9" class="node">
<title>p6</title>
<ellipse fill="black" stroke="black" cx="194.84" cy="-1394.4" rx="3.6" ry="3.6"/>
<text text-anchor="middle" x="152.74" y="-1401.8" font-family="Times,serif" font-size="14.00">Channel.of</text>
</g>
<!-- p10 -->
<g id="node10" class="node">
<title>p10</title>
<ellipse fill="none" stroke="black" cx="110.84" cy="-1300.8" rx="3.5" ry="3.5"/>
<text text-anchor="middle" x="76.84" y="-1308.1" font-family="Times,serif" font-size="14.00">combine</text>
</g>
<!-- p6&#45;&gt;p10 -->
<g id="edge7" class="edge">
<title>p6&#45;&gt;p10</title>
<path fill="none" stroke="black" d="M191.47,-1392.87C182.7,-1391.33 158.89,-1386.09 144.84,-1372.8 135.76,-1364.21 122.3,-1331.66 115.35,-1313.77"/>
<polygon fill="black" stroke="black" points="118.6,-1312.46 111.78,-1304.36 112.06,-1314.95 118.6,-1312.46"/>
<text text-anchor="middle" x="188.34" y="-1351.1" font-family="Times,serif" font-size="14.00">stm_choices</text>
</g>
<!-- p35 -->
<g id="node37" class="node">
<title>p35</title>
<ellipse fill="none" stroke="black" cx="257.84" cy="-884.1" rx="3.5" ry="3.5"/>
<text text-anchor="middle" x="223.84" y="-891.4" font-family="Times,serif" font-size="14.00">combine</text>
</g>
<!-- p6&#45;&gt;p35 -->
<g id="edge38" class="edge">
<title>p6&#45;&gt;p35</title>
<path fill="none" stroke="black" d="M198.13,-1392.58C205.47,-1390.58 223.19,-1384.69 231.84,-1372.8 250.75,-1346.79 245.84,-1333.96 245.84,-1301.8 245.84,-1301.8 245.84,-1301.8 245.84,-927.1 245.84,-916.71 249.28,-905.4 252.47,-897.14"/>
<polygon fill="black" stroke="black" points="255.81,-898.25 256.55,-887.68 249.38,-895.48 255.81,-898.25"/>
<text text-anchor="middle" x="289.34" y="-1099.4" font-family="Times,serif" font-size="14.00">stm_choices</text>
</g>
<!-- p11 -->
<g id="node13" class="node">
<title>p11</title>
<ellipse fill="black" stroke="black" cx="44.84" cy="-1228.2" rx="1.8" ry="1.8"/>
</g>
<!-- p10&#45;&gt;p11 -->
<g id="edge11" class="edge">
<title>p10&#45;&gt;p11</title>
<path fill="none" stroke="black" d="M107.64,-1299.23C96.65,-1297.08 60.37,-1288.37 45.84,-1264.8 41.29,-1257.43 41.42,-1247.48 42.47,-1239.97"/>
<polygon fill="black" stroke="black" points="45.89,-1240.68 44.54,-1230.18 39.05,-1239.24 45.89,-1240.68"/>
<text text-anchor="middle" x="138.84" y="-1253.6" font-family="Times,serif" font-size="14.00">stm_combination_sentinel</text>
</g>
<!-- p7 -->
<g id="node11" class="node">
<title>p7</title>
<ellipse fill="black" stroke="black" cx="195.84" cy="-1525" rx="3.6" ry="3.6"/>
<text text-anchor="middle" x="153.74" y="-1532.4" font-family="Times,serif" font-size="14.00">Channel.of</text>
</g>
<!-- p7&#45;&gt;p8 -->
<g id="edge8" class="edge">
<title>p7&#45;&gt;p8</title>
<path fill="none" stroke="black" d="M195.84,-1521.32C195.84,-1512.42 195.84,-1483.44 195.84,-1466.37"/>
<polygon fill="black" stroke="black" points="199.34,-1466.18 195.84,-1456.18 192.34,-1466.18 199.34,-1466.18"/>
</g>
<!-- p9&#45;&gt;p10 -->
<g id="edge10" class="edge">
<title>p9&#45;&gt;p10</title>
<path fill="none" stroke="black" d="M114.72,-1390.76C114.24,-1379.67 112.35,-1336.5 111.4,-1314.64"/>
<polygon fill="black" stroke="black" points="114.89,-1314.47 110.96,-1304.63 107.9,-1314.78 114.89,-1314.47"/>
</g>
<!-- p12 -->
<g id="node14" class="node">
<title>p12</title>
<ellipse fill="black" stroke="black" cx="781.84" cy="-1525" rx="3.6" ry="3.6"/>
<text text-anchor="middle" x="739.74" y="-1532.4" font-family="Times,serif" font-size="14.00">Channel.of</text>
</g>
<!-- p12&#45;&gt;p13 -->
<g id="edge12" class="edge">
<title>p12&#45;&gt;p13</title>
<path fill="none" stroke="black" d="M781.98,-1521.23C782.24,-1512.77 781.82,-1487.03 767.84,-1474 755.47,-1462.48 706.01,-1456.75 681.6,-1454.57"/>
<polygon fill="black" stroke="black" points="681.7,-1451.07 671.45,-1453.75 681.14,-1458.04 681.7,-1451.07"/>
</g>
<!-- p14 -->
<g id="node16" class="node">
<title>p14</title>
<ellipse fill="none" stroke="black" cx="667.84" cy="-1354.8" rx="3.5" ry="3.5"/>
<text text-anchor="middle" x="636.84" y="-1362.1" font-family="Times,serif" font-size="14.00">flatMap</text>
</g>
<!-- p13&#45;&gt;p14 -->
<g id="edge14" class="edge">
<title>p13&#45;&gt;p14</title>
<path fill="none" stroke="black" d="M667.84,-1448.74C667.84,-1437.06 667.84,-1391.25 667.84,-1368.61"/>
<polygon fill="black" stroke="black" points="671.34,-1368.39 667.84,-1358.39 664.34,-1368.39 671.34,-1368.39"/>
</g>
<!-- p34 -->
<g id="node17" class="node">
<title>p34</title>
<ellipse fill="none" stroke="black" cx="368.84" cy="-928.1" rx="3.5" ry="3.5"/>
<text text-anchor="middle" x="334.84" y="-935.4" font-family="Times,serif" font-size="14.00">combine</text>
</g>
<!-- p14&#45;&gt;p34 -->
<g id="edge15" class="edge">
<title>p14&#45;&gt;p34</title>
<path fill="none" stroke="black" d="M667.84,-1351.14C667.84,-1339.89 667.84,-1295.11 667.84,-1258.3 667.84,-1258.3 667.84,-1258.3 667.84,-985.1 667.84,-926.3 441.64,-927.42 382.73,-928.71"/>
<polygon fill="black" stroke="black" points="382.52,-925.21 372.62,-928.97 382.7,-932.21 382.52,-925.21"/>
<text text-anchor="middle" x="758.34" y="-1132.4" font-family="Times,serif" font-size="14.00">stm_combination_landsat</text>
</g>
<!-- p34&#45;&gt;p35 -->
<g id="edge37" class="edge">
<title>p34&#45;&gt;p35</title>
<path fill="none" stroke="black" d="M365.63,-925.89C351.64,-920.59 295.44,-899.33 270.21,-889.78"/>
<polygon fill="black" stroke="black" points="271.43,-886.5 260.84,-886.24 268.96,-893.05 271.43,-886.5"/>
</g>
<!-- p15 -->
<g id="node18" class="node">
<title>p15</title>
<ellipse fill="black" stroke="black" cx="319.84" cy="-1802.6" rx="3.6" ry="3.6"/>
<text text-anchor="middle" x="236.24" y="-1810" font-family="Times,serif" font-size="14.00">Channel.fromFilePairs</text>
</g>
<!-- p16 -->
<g id="node19" class="node">
<title>p16</title>
<ellipse fill="none" stroke="black" cx="319.84" cy="-1758.5" rx="3.5" ry="3.5"/>
<text text-anchor="middle" x="300.84" y="-1765.8" font-family="Times,serif" font-size="14.00">map</text>
</g>
<!-- p15&#45;&gt;p16 -->
<g id="edge16" class="edge">
<title>p15&#45;&gt;p16</title>
<path fill="none" stroke="black" d="M319.84,-1798.84C319.84,-1793.55 319.84,-1781.68 319.84,-1772.35"/>
<polygon fill="black" stroke="black" points="323.34,-1772.33 319.84,-1762.33 316.34,-1772.33 323.34,-1772.33"/>
</g>
<!-- p17 -->
<g id="node20" class="node">
<title>p17</title>
<ellipse fill="none" stroke="black" cx="319.84" cy="-1714.5" rx="3.5" ry="3.5"/>
<text text-anchor="middle" x="298.84" y="-1721.8" font-family="Times,serif" font-size="14.00">filter</text>
</g>
<!-- p16&#45;&gt;p17 -->
<g id="edge17" class="edge">
<title>p16&#45;&gt;p17</title>
<path fill="none" stroke="black" d="M319.84,-1754.74C319.84,-1749.47 319.84,-1737.63 319.84,-1728.32"/>
<polygon fill="black" stroke="black" points="323.34,-1728.32 319.84,-1718.32 316.34,-1728.32 323.34,-1728.32"/>
</g>
<!-- p18 -->
<g id="node21" class="node">
<title>p18</title>
<ellipse fill="none" stroke="black" cx="319.84" cy="-1670.5" rx="3.5" ry="3.5"/>
<text text-anchor="middle" x="298.84" y="-1677.8" font-family="Times,serif" font-size="14.00">filter</text>
</g>
<!-- p17&#45;&gt;p18 -->
<g id="edge18" class="edge">
<title>p17&#45;&gt;p18</title>
<path fill="none" stroke="black" d="M319.84,-1710.74C319.84,-1705.47 319.84,-1693.63 319.84,-1684.32"/>
<polygon fill="black" stroke="black" points="323.34,-1684.32 319.84,-1674.32 316.34,-1684.32 323.34,-1684.32"/>
</g>
<!-- p19 -->
<g id="node22" class="node">
<title>p19</title>
<ellipse fill="none" stroke="black" cx="319.84" cy="-1598" rx="91.78" ry="18"/>
<text text-anchor="middle" x="319.84" y="-1594.3" font-family="Times,serif" font-size="14.00">mask_layer_stack</text>
</g>
<!-- p18&#45;&gt;p19 -->
<g id="edge19" class="edge">
<title>p18&#45;&gt;p19</title>
<path fill="none" stroke="black" d="M319.84,-1666.82C319.84,-1660.16 319.84,-1642.24 319.84,-1626.49"/>
<polygon fill="black" stroke="black" points="323.34,-1626.1 319.84,-1616.1 316.34,-1626.1 323.34,-1626.1"/>
<text text-anchor="middle" x="352.34" y="-1637.8" font-family="Times,serif" font-size="14.00">ch_dataP</text>
</g>
<!-- p20 -->
<g id="node23" class="node">
<title>p20</title>
<ellipse fill="none" stroke="black" cx="319.84" cy="-1525" rx="85.29" ry="18"/>
<text text-anchor="middle" x="319.84" y="-1521.3" font-family="Times,serif" font-size="14.00">set_raster_scale</text>
</g>
<!-- p19&#45;&gt;p20 -->
<g id="edge20" class="edge">
<title>p19&#45;&gt;p20</title>
<path fill="none" stroke="black" d="M319.84,-1579.81C319.84,-1571.79 319.84,-1562.05 319.84,-1553.07"/>
<polygon fill="black" stroke="black" points="323.34,-1553.03 319.84,-1543.03 316.34,-1553.03 323.34,-1553.03"/>
</g>
<!-- p21 -->
<g id="node24" class="node">
<title>p21</title>
<ellipse fill="none" stroke="black" cx="319.84" cy="-1452.5" rx="3.5" ry="3.5"/>
<text text-anchor="middle" x="304.34" y="-1459.8" font-family="Times,serif" font-size="14.00">tap</text>
</g>
<!-- p20&#45;&gt;p21 -->
<g id="edge21" class="edge">
<title>p20&#45;&gt;p21</title>
<path fill="none" stroke="black" d="M319.84,-1506.93C319.84,-1494.38 319.84,-1477.59 319.84,-1466.2"/>
<polygon fill="black" stroke="black" points="323.34,-1466.16 319.84,-1456.16 316.34,-1466.16 323.34,-1466.16"/>
</g>
<!-- p23 -->
<g id="node25" class="node">
<title>p23</title>
<ellipse fill="none" stroke="black" cx="508.84" cy="-1394.4" rx="3.5" ry="3.5"/>
<text text-anchor="middle" x="474.84" y="-1401.7" font-family="Times,serif" font-size="14.00">combine</text>
</g>
<!-- p21&#45;&gt;p23 -->
<g id="edge22" class="edge">
<title>p21&#45;&gt;p23</title>
<path fill="none" stroke="black" d="M323.45,-1451.25C336.01,-1450.26 378.61,-1445.94 409.84,-1431 419.54,-1426.36 419.2,-1420.78 428.84,-1416 450.75,-1405.14 478.97,-1399.61 495.37,-1397.12"/>
<polygon fill="black" stroke="black" points="495.86,-1400.59 505.3,-1395.78 494.93,-1393.65 495.86,-1400.59"/>
<text text-anchor="middle" x="479.34" y="-1419.8" font-family="Times,serif" font-size="14.00">ch_for_indices</text>
</g>
<!-- p25 -->
<g id="node26" class="node">
<title>p25</title>
<ellipse fill="none" stroke="black" cx="356.84" cy="-1354.8" rx="96.38" ry="18"/>
<text text-anchor="middle" x="356.84" y="-1351.1" font-family="Times,serif" font-size="14.00">explode_base_files</text>
</g>
<!-- p21&#45;&gt;p25 -->
<g id="edge23" class="edge">
<title>p21&#45;&gt;p25</title>
<path fill="none" stroke="black" d="M318.6,-1449.21C315.67,-1443.49 308.86,-1428.18 312.84,-1416 317.09,-1402.99 325.33,-1390.46 333.55,-1380.23"/>
<polygon fill="black" stroke="black" points="336.26,-1382.44 340.05,-1372.55 330.92,-1377.92 336.26,-1382.44"/>
<text text-anchor="middle" x="359.34" y="-1419.8" font-family="Times,serif" font-size="14.00">ch_base_files</text>
</g>
<!-- p24 -->
<g id="node28" class="node">
<title>p24</title>
<ellipse fill="none" stroke="black" cx="508.84" cy="-1300.8" rx="131.08" ry="18"/>
<text text-anchor="middle" x="508.84" y="-1297.1" font-family="Times,serif" font-size="14.00">calculate_spectral_indices</text>
</g>
<!-- p23&#45;&gt;p24 -->
<g id="edge26" class="edge">
<title>p23&#45;&gt;p24</title>
<path fill="none" stroke="black" d="M508.84,-1390.76C508.84,-1381.79 508.84,-1351.84 508.84,-1329.14"/>
<polygon fill="black" stroke="black" points="512.34,-1329.02 508.84,-1319.02 505.34,-1329.02 512.34,-1329.02"/>
</g>
<!-- p27 -->
<g id="node29" class="node">
<title>p27</title>
<ellipse fill="none" stroke="black" cx="355.84" cy="-1228.2" rx="3.5" ry="3.5"/>
<text text-anchor="middle" x="338.84" y="-1235.5" font-family="Times,serif" font-size="14.00">mix</text>
</g>
<!-- p25&#45;&gt;p27 -->
<g id="edge28" class="edge">
<title>p25&#45;&gt;p27</title>
<path fill="none" stroke="black" d="M348.51,-1336.75C346.2,-1331.16 344,-1324.84 342.84,-1318.8 337.53,-1291.23 345.96,-1258.51 351.54,-1241.25"/>
<polygon fill="black" stroke="black" points="354.88,-1242.3 354.86,-1231.71 348.27,-1240 354.88,-1242.3"/>
</g>
<!-- p22&#45;&gt;p23 -->
<g id="edge25" class="edge">
<title>p22&#45;&gt;p23</title>
<path fill="none" stroke="black" d="M520.04,-1449.63C523.74,-1446.32 531.08,-1439.03 533.84,-1431 536.01,-1424.7 536.68,-1422.03 533.84,-1416 531.1,-1410.2 525.84,-1405.48 520.85,-1402.03"/>
<polygon fill="black" stroke="black" points="522.28,-1398.81 511.88,-1396.79 518.75,-1404.85 522.28,-1398.81"/>
</g>
<!-- p24&#45;&gt;p27 -->
<g id="edge27" class="edge">
<title>p24&#45;&gt;p27</title>
<path fill="none" stroke="black" d="M473.35,-1283.43C439.53,-1267.82 390.52,-1245.2 367.99,-1234.81"/>
<polygon fill="black" stroke="black" points="369.2,-1231.51 358.66,-1230.5 366.27,-1237.87 369.2,-1231.51"/>
</g>
<!-- p29 -->
<g id="node31" class="node">
<title>p29</title>
<ellipse fill="none" stroke="black" cx="368.84" cy="-1184.1" rx="3.5" ry="3.5"/>
<text text-anchor="middle" x="334.84" y="-1191.4" font-family="Times,serif" font-size="14.00">combine</text>
</g>
<!-- p27&#45;&gt;p29 -->
<g id="edge30" class="edge">
<title>p27&#45;&gt;p29</title>
<path fill="none" stroke="black" d="M356.69,-1224.44C358.34,-1219.09 362.07,-1207.01 364.96,-1197.64"/>
<polygon fill="black" stroke="black" points="368.36,-1198.52 367.96,-1187.93 361.67,-1196.45 368.36,-1198.52"/>
</g>
<!-- p26 -->
<g id="node30" class="node">
<title>p26</title>
<ellipse fill="black" stroke="black" cx="355.84" cy="-1300.8" rx="3.6" ry="3.6"/>
<text text-anchor="middle" x="297.74" y="-1308.2" font-family="Times,serif" font-size="14.00">Channel.empty</text>
</g>
<!-- p26&#45;&gt;p27 -->
<g id="edge29" class="edge">
<title>p26&#45;&gt;p27</title>
<path fill="none" stroke="black" d="M355.84,-1297.12C355.84,-1288.21 355.84,-1259.18 355.84,-1242.09"/>
<polygon fill="black" stroke="black" points="359.34,-1241.88 355.84,-1231.88 352.34,-1241.88 359.34,-1241.88"/>
</g>
<!-- p30 -->
<g id="node33" class="node">
<title>p30</title>
<ellipse fill="none" stroke="black" cx="368.84" cy="-1136.1" rx="3.5" ry="3.5"/>
<text text-anchor="middle" x="349.84" y="-1143.4" font-family="Times,serif" font-size="14.00">map</text>
</g>
<!-- p29&#45;&gt;p30 -->
<g id="edge32" class="edge">
<title>p29&#45;&gt;p30</title>
<path fill="none" stroke="black" d="M368.84,-1180.36C368.84,-1174.53 368.84,-1160.57 368.84,-1150.07"/>
<polygon fill="black" stroke="black" points="372.34,-1149.77 368.84,-1139.77 365.34,-1149.77 372.34,-1149.77"/>
</g>
<!-- p28 -->
<g id="node32" class="node">
<title>p28</title>
<ellipse fill="black" stroke="black" cx="380.84" cy="-1228.2" rx="3.6" ry="3.6"/>
</g>
<!-- p28&#45;&gt;p29 -->
<g id="edge31" class="edge">
<title>p28&#45;&gt;p29</title>
<path fill="none" stroke="black" d="M380.05,-1224.44C378.52,-1219.09 375.08,-1207.01 372.41,-1197.64"/>
<polygon fill="black" stroke="black" points="375.75,-1196.59 369.64,-1187.93 369.02,-1198.5 375.75,-1196.59"/>
</g>
<!-- p31 -->
<g id="node34" class="node">
<title>p31</title>
<ellipse fill="none" stroke="black" cx="368.84" cy="-1074.1" rx="3.5" ry="3.5"/>
<text text-anchor="middle" x="347.84" y="-1081.4" font-family="Times,serif" font-size="14.00">filter</text>
</g>
<!-- p30&#45;&gt;p31 -->
<g id="edge33" class="edge">
<title>p30&#45;&gt;p31</title>
<path fill="none" stroke="black" d="M368.84,-1132.52C368.84,-1124.97 368.84,-1102.49 368.84,-1088.01"/>
<polygon fill="black" stroke="black" points="372.34,-1087.6 368.84,-1077.6 365.34,-1087.6 372.34,-1087.6"/>
</g>
<!-- p32 -->
<g id="node35" class="node">
<title>p32</title>
<ellipse fill="none" stroke="black" cx="368.84" cy="-1030.1" rx="3.5" ry="3.5"/>
<text text-anchor="middle" x="324.34" y="-1037.4" font-family="Times,serif" font-size="14.00">groupTuple</text>
</g>
<!-- p31&#45;&gt;p32 -->
<g id="edge34" class="edge">
<title>p31&#45;&gt;p32</title>
<path fill="none" stroke="black" d="M368.84,-1070.34C368.84,-1065.07 368.84,-1053.23 368.84,-1043.92"/>
<polygon fill="black" stroke="black" points="372.34,-1043.92 368.84,-1033.92 365.34,-1043.92 372.34,-1043.92"/>
</g>
<!-- p33 -->
<g id="node36" class="node">
<title>p33</title>
<ellipse fill="none" stroke="black" cx="368.84" cy="-986.1" rx="3.5" ry="3.5"/>
<text text-anchor="middle" x="349.84" y="-993.4" font-family="Times,serif" font-size="14.00">map</text>
</g>
<!-- p32&#45;&gt;p33 -->
<g id="edge35" class="edge">
<title>p32&#45;&gt;p33</title>
<path fill="none" stroke="black" d="M368.84,-1026.34C368.84,-1021.07 368.84,-1009.23 368.84,-999.92"/>
<polygon fill="black" stroke="black" points="372.34,-999.92 368.84,-989.92 365.34,-999.92 372.34,-999.92"/>
</g>
<!-- p33&#45;&gt;p34 -->
<g id="edge36" class="edge">
<title>p33&#45;&gt;p34</title>
<path fill="none" stroke="black" d="M368.84,-982.4C368.84,-975.18 368.84,-955.08 368.84,-941.73"/>
<polygon fill="black" stroke="black" points="372.34,-941.64 368.84,-931.64 365.34,-941.64 372.34,-941.64"/>
<text text-anchor="middle" x="457.84" y="-953.4" font-family="Times,serif" font-size="14.00">ch_group_stacked_raster</text>
</g>
<!-- p36 -->
<g id="node38" class="node">
<title>p36</title>
<ellipse fill="none" stroke="black" cx="257.84" cy="-825.6" rx="45.49" ry="18"/>
<text text-anchor="middle" x="257.84" y="-821.9" font-family="Times,serif" font-size="14.00">stms_ls</text>
</g>
<!-- p35&#45;&gt;p36 -->
<g id="edge39" class="edge">
<title>p35&#45;&gt;p36</title>
<path fill="none" stroke="black" d="M257.84,-880.37C257.84,-875.43 257.84,-864.5 257.84,-853.77"/>
<polygon fill="black" stroke="black" points="261.34,-853.75 257.84,-843.75 254.34,-853.75 261.34,-853.75"/>
</g>
<!-- p37 -->
<g id="node39" class="node">
<title>p37</title>
<ellipse fill="none" stroke="black" cx="257.84" cy="-767.1" rx="3.5" ry="3.5"/>
<text text-anchor="middle" x="213.34" y="-774.4" font-family="Times,serif" font-size="14.00">groupTuple</text>
</g>
<!-- p36&#45;&gt;p37 -->
<g id="edge40" class="edge">
<title>p36&#45;&gt;p37</title>
<path fill="none" stroke="black" d="M257.84,-807.34C257.84,-798.76 257.84,-788.57 257.84,-780.72"/>
<polygon fill="black" stroke="black" points="261.34,-780.66 257.84,-770.66 254.34,-780.66 261.34,-780.66"/>
</g>
<!-- p38 -->
<g id="node40" class="node">
<title>p38</title>
<ellipse fill="none" stroke="black" cx="257.84" cy="-708.6" rx="35.19" ry="18"/>
<text text-anchor="middle" x="257.84" y="-704.9" font-family="Times,serif" font-size="14.00">stack</text>
</g>
<!-- p37&#45;&gt;p38 -->
<g id="edge41" class="edge">
<title>p37&#45;&gt;p38</title>
<path fill="none" stroke="black" d="M257.84,-763.37C257.84,-758.43 257.84,-747.5 257.84,-736.77"/>
<polygon fill="black" stroke="black" points="261.34,-736.75 257.84,-726.75 254.34,-736.75 261.34,-736.75"/>
</g>
<!-- p39 -->
<g id="node41" class="node">
<title>p39</title>
<ellipse fill="none" stroke="black" cx="257.84" cy="-621.6" rx="3.5" ry="3.5"/>
<text text-anchor="middle" x="242.34" y="-628.9" font-family="Times,serif" font-size="14.00">tap</text>
</g>
<!-- p38&#45;&gt;p39 -->
<g id="edge42" class="edge">
<title>p38&#45;&gt;p39</title>
<path fill="none" stroke="black" d="M257.84,-690.4C257.84,-674.21 257.84,-650.31 257.84,-635.64"/>
<polygon fill="black" stroke="black" points="261.34,-635.24 257.84,-625.24 254.34,-635.24 261.34,-635.24"/>
</g>
<!-- p39&#45;&gt;p40 -->
<g id="edge43" class="edge">
<title>p39&#45;&gt;p40</title>
<path fill="none" stroke="black" d="M255.55,-618.77C251.59,-615.62 243.16,-608.96 235.84,-603.6 224.49,-595.3 220.99,-594.15 209.84,-585.6 198.51,-576.92 186.09,-566.27 177.71,-558.91"/>
<polygon fill="black" stroke="black" points="179.85,-556.13 170.05,-552.1 175.2,-561.36 179.85,-556.13"/>
<text text-anchor="middle" x="260.84" y="-574.4" font-family="Times,serif" font-size="14.00">training_stack</text>
</g>
<!-- p45 -->
<g id="node42" class="node">
<title>p45</title>
<ellipse fill="none" stroke="black" cx="265.84" cy="-234.1" rx="3.5" ry="3.5"/>
<text text-anchor="middle" x="231.84" y="-241.4" font-family="Times,serif" font-size="14.00">combine</text>
</g>
<!-- p39&#45;&gt;p45 -->
<g id="edge44" class="edge">
<title>p39&#45;&gt;p45</title>
<path fill="none" stroke="black" d="M260.74,-619.48C269.65,-615.9 296.84,-603.93 311.84,-585.6 322.58,-572.47 325.84,-567.06 325.84,-550.1 325.84,-550.1 325.84,-550.1 325.84,-291.6 325.84,-265.79 296.05,-248.3 278.45,-240.22"/>
<polygon fill="black" stroke="black" points="279.31,-236.79 268.73,-236.14 276.6,-243.24 279.31,-236.79"/>
<text text-anchor="middle" x="394.34" y="-424.4" font-family="Times,serif" font-size="14.00">classification_stack</text>
</g>
<!-- p46 -->
<g id="node47" class="node">
<title>p46</title>
<ellipse fill="none" stroke="black" cx="265.84" cy="-175.6" rx="89.88" ry="18"/>
<text text-anchor="middle" x="265.84" y="-171.9" font-family="Times,serif" font-size="14.00">predict_classifier</text>
</g>
<!-- p45&#45;&gt;p46 -->
<g id="edge50" class="edge">
<title>p45&#45;&gt;p46</title>
<path fill="none" stroke="black" d="M265.84,-230.37C265.84,-225.43 265.84,-214.5 265.84,-203.77"/>
<polygon fill="black" stroke="black" points="269.34,-203.75 265.84,-193.75 262.34,-203.75 269.34,-203.75"/>
</g>
<!-- p42 -->
<g id="node44" class="node">
<title>p42</title>
<ellipse fill="none" stroke="black" cx="150.84" cy="-428.1" rx="3.5" ry="3.5"/>
<text text-anchor="middle" x="123.84" y="-435.4" font-family="Times,serif" font-size="14.00">collect</text>
</g>
<!-- p41&#45;&gt;p42 -->
<g id="edge46" class="edge">
<title>p41&#45;&gt;p42</title>
<path fill="none" stroke="black" d="M152.99,-472.42C152.51,-462.85 151.93,-451.11 151.49,-442.26"/>
<polygon fill="black" stroke="black" points="154.97,-441.79 150.98,-431.97 147.98,-442.13 154.97,-441.79"/>
</g>
<!-- p43 -->
<g id="node45" class="node">
<title>p43</title>
<ellipse fill="none" stroke="black" cx="148.84" cy="-365.6" rx="148.67" ry="18"/>
<text text-anchor="middle" x="148.84" y="-361.9" font-family="Times,serif" font-size="14.00">merge_classification_datasets</text>
</g>
<!-- p42&#45;&gt;p43 -->
<g id="edge47" class="edge">
<title>p42&#45;&gt;p43</title>
<path fill="none" stroke="black" d="M150.75,-424.5C150.57,-419.15 150.15,-406.37 149.75,-394.18"/>
<polygon fill="black" stroke="black" points="153.23,-393.69 149.41,-383.82 146.24,-393.93 153.23,-393.69"/>
</g>
<!-- p44 -->
<g id="node46" class="node">
<title>p44</title>
<ellipse fill="none" stroke="black" cx="192.84" cy="-292.6" rx="90.98" ry="18"/>
<text text-anchor="middle" x="192.84" y="-288.9" font-family="Times,serif" font-size="14.00">train_rf_classifier</text>
</g>
<!-- p43&#45;&gt;p44 -->
<g id="edge48" class="edge">
<title>p43&#45;&gt;p44</title>
<path fill="none" stroke="black" d="M159.49,-347.41C164.73,-338.95 171.16,-328.58 176.96,-319.21"/>
<polygon fill="black" stroke="black" points="179.99,-320.97 182.28,-310.63 174.04,-317.29 179.99,-320.97"/>
</g>
<!-- p44&#45;&gt;p45 -->
<g id="edge49" class="edge">
<title>p44&#45;&gt;p45</title>
<path fill="none" stroke="black" d="M214.34,-274.95C227.86,-264.49 244.69,-251.47 255.35,-243.21"/>
<polygon fill="black" stroke="black" points="257.61,-245.89 263.38,-237 253.33,-240.36 257.61,-245.89"/>
</g>
<!-- p47 -->
<g id="node48" class="node">
<title>p47</title>
<ellipse fill="none" stroke="black" cx="265.84" cy="-117.1" rx="3.5" ry="3.5"/>
<text text-anchor="middle" x="238.84" y="-124.4" font-family="Times,serif" font-size="14.00">collect</text>
</g>
<!-- p46&#45;&gt;p47 -->
<g id="edge51" class="edge">
<title>p46&#45;&gt;p47</title>
<path fill="none" stroke="black" d="M265.84,-157.34C265.84,-148.76 265.84,-138.57 265.84,-130.72"/>
<polygon fill="black" stroke="black" points="269.34,-130.66 265.84,-120.66 262.34,-130.66 269.34,-130.66"/>
</g>
<!-- p48 -->
<g id="node49" class="node">
<title>p48</title>
<ellipse fill="none" stroke="black" cx="265.84" cy="-58.6" rx="79.09" ry="18"/>
<text text-anchor="middle" x="265.84" y="-54.9" font-family="Times,serif" font-size="14.00">build_class_vrt</text>
</g>
<!-- p47&#45;&gt;p48 -->
<g id="edge52" class="edge">
<title>p47&#45;&gt;p48</title>
<path fill="none" stroke="black" d="M265.84,-113.37C265.84,-108.43 265.84,-97.5 265.84,-86.77"/>
<polygon fill="black" stroke="black" points="269.34,-86.75 265.84,-76.75 262.34,-86.75 269.34,-86.75"/>
</g>
<!-- p49 -->
<g id="node50" class="node">
<title>p49</title>
<ellipse fill="black" stroke="black" cx="265.84" cy="-1.8" rx="1.8" ry="1.8"/>
</g>
<!-- p48&#45;&gt;p49 -->
<g id="edge53" class="edge">
<title>p48&#45;&gt;p49</title>
<path fill="none" stroke="black" d="M265.84,-40.56C265.84,-31.87 265.84,-21.56 265.84,-13.9"/>
<polygon fill="black" stroke="black" points="269.34,-13.76 265.84,-3.76 262.34,-13.76 269.34,-13.76"/>
</g>
</g>
</svg>
