<?xml version="1.0" encoding="UTF-8" standalone="no"?>
<!DOCTYPE svg PUBLIC "-//W3C//DTD SVG 1.1//EN"
 "http://www.w3.org/Graphics/SVG/1.1/DTD/svg11.dtd">
<!-- Generated by graphviz version 2.43.0 (0)
 -->
<!-- Title: dag Pages: 1 -->
<svg width="987pt" height="1742pt"
 viewBox="0.00 0.00 986.58 1742.40" xmlns="http://www.w3.org/2000/svg" xmlns:xlink="http://www.w3.org/1999/xlink">
<g id="graph0" class="graph" transform="scale(1 1) rotate(0) translate(4 1738.4)">
<title>dag</title>
<polygon fill="white" stroke="transparent" points="-4,4 -4,-1738.4 982.58,-1738.4 982.58,4 -4,4"/>
<!-- p0 -->
<g id="node1" class="node">
<title>p0</title>
<ellipse fill="black" stroke="black" cx="233.58" cy="-811.2" rx="3.6" ry="3.6"/>
<text text-anchor="middle" x="164.98" y="-818.6" font-family="Times,serif" font-size="14.00">Channel.fromPath</text>
</g>
<!-- p2 -->
<g id="node2" class="node">
<title>p2</title>
<ellipse fill="none" stroke="black" cx="245.58" cy="-752.6" rx="3.5" ry="3.5"/>
<text text-anchor="middle" x="218.58" y="-759.9" font-family="Times,serif" font-size="14.00">concat</text>
</g>
<!-- p0&#45;&gt;p2 -->
<g id="edge1" class="edge">
<title>p0&#45;&gt;p2</title>
<path fill="none" stroke="black" d="M234.16,-807.47C235.71,-800.17 240.01,-779.86 242.87,-766.37"/>
<polygon fill="black" stroke="black" points="246.39,-766.68 245.04,-756.17 239.54,-765.23 246.39,-766.68"/>
</g>
<!-- p3 -->
<g id="node4" class="node">
<title>p3</title>
<ellipse fill="none" stroke="black" cx="245.58" cy="-694.1" rx="3.5" ry="3.5"/>
<text text-anchor="middle" x="218.58" y="-701.4" font-family="Times,serif" font-size="14.00">collect</text>
</g>
<!-- p2&#45;&gt;p3 -->
<g id="edge3" class="edge">
<title>p2&#45;&gt;p3</title>
<path fill="none" stroke="black" d="M245.58,-748.87C245.58,-741.59 245.58,-721.31 245.58,-707.85"/>
<polygon fill="black" stroke="black" points="249.08,-707.67 245.58,-697.67 242.08,-707.67 249.08,-707.67"/>
</g>
<!-- p1 -->
<g id="node3" class="node">
<title>p1</title>
<ellipse fill="black" stroke="black" cx="258.58" cy="-811.2" rx="3.6" ry="3.6"/>
<text text-anchor="middle" x="216.48" y="-796.4" font-family="Times,serif" font-size="14.00">Channel.of</text>
</g>
<!-- p1&#45;&gt;p2 -->
<g id="edge2" class="edge">
<title>p1&#45;&gt;p2</title>
<path fill="none" stroke="black" d="M257.95,-807.47C256.26,-800.1 251.52,-779.44 248.42,-765.95"/>
<polygon fill="black" stroke="black" points="251.82,-765.13 246.17,-756.17 245,-766.7 251.82,-765.13"/>
</g>
<!-- p4 -->
<g id="node5" class="node">
<title>p4</title>
<ellipse fill="none" stroke="black" cx="245.58" cy="-621.6" rx="59.29" ry="18"/>
<text text-anchor="middle" x="245.58" y="-617.9" font-family="Times,serif" font-size="14.00">spat_lucas</text>
</g>
<!-- p3&#45;&gt;p4 -->
<g id="edge4" class="edge">
<title>p3&#45;&gt;p4</title>
<path fill="none" stroke="black" d="M245.58,-690.42C245.58,-683.76 245.58,-665.84 245.58,-650.09"/>
<polygon fill="black" stroke="black" points="249.08,-649.7 245.58,-639.7 242.08,-649.7 249.08,-649.7"/>
<text text-anchor="middle" x="264.08" y="-661.4" font-family="Times,serif" font-size="14.00">lucas</text>
</g>
<!-- p39 -->
<g id="node6" class="node">
<title>p39</title>
<ellipse fill="none" stroke="black" cx="245.58" cy="-549.1" rx="3.5" ry="3.5"/>
<text text-anchor="middle" x="211.58" y="-556.4" font-family="Times,serif" font-size="14.00">combine</text>
</g>
<!-- p4&#45;&gt;p39 -->
<g id="edge5" class="edge">
<title>p4&#45;&gt;p39</title>
<path fill="none" stroke="black" d="M245.58,-603.53C245.58,-590.98 245.58,-574.19 245.58,-562.8"/>
<polygon fill="black" stroke="black" points="249.08,-562.76 245.58,-552.76 242.08,-562.76 249.08,-562.76"/>
</g>
<!-- p40 -->
<g id="node41" class="node">
<title>p40</title>
<ellipse fill="none" stroke="black" cx="216.58" cy="-490.6" rx="205.26" ry="18"/>
<text text-anchor="middle" x="216.58" y="-486.9" font-family="Times,serif" font-size="14.00">ml_modeling:create_classification_dataset</text>
</g>
<!-- p39&#45;&gt;p40 -->
<g id="edge43" class="edge">
<title>p39&#45;&gt;p40</title>
<path fill="none" stroke="black" d="M244.34,-545.67C241.81,-540.75 235.84,-529.13 230.09,-517.91"/>
<polygon fill="black" stroke="black" points="233.06,-516.04 225.38,-508.74 226.83,-519.24 233.06,-516.04"/>
</g>
<!-- p5 -->
<g id="node7" class="node">
<title>p5</title>
<ellipse fill="black" stroke="black" cx="628.58" cy="-1467.2" rx="3.6" ry="3.6"/>
<text text-anchor="middle" x="663.48" y="-1474.6" font-family="Times,serif" font-size="14.00">Channel.of</text>
</g>
<!-- p8 -->
<g id="node8" class="node">
<title>p8</title>
<ellipse fill="none" stroke="black" cx="336.58" cy="-1380.2" rx="3.5" ry="3.5"/>
<text text-anchor="middle" x="319.58" y="-1387.5" font-family="Times,serif" font-size="14.00">mix</text>
</g>
<!-- p5&#45;&gt;p8 -->
<g id="edge6" class="edge">
<title>p5&#45;&gt;p8</title>
<path fill="none" stroke="black" d="M625.3,-1465.25C597.58,-1457.17 402.1,-1400.27 349.56,-1384.98"/>
<polygon fill="black" stroke="black" points="350.42,-1381.58 339.84,-1382.15 348.46,-1388.3 350.42,-1381.58"/>
<text text-anchor="middle" x="557.08" y="-1420" font-family="Times,serif" font-size="14.00">spectral_indices</text>
</g>
<!-- p13 -->
<g id="node15" class="node">
<title>p13</title>
<ellipse fill="none" stroke="black" cx="797.58" cy="-1380.2" rx="3.5" ry="3.5"/>
<text text-anchor="middle" x="780.58" y="-1387.5" font-family="Times,serif" font-size="14.00">mix</text>
</g>
<!-- p5&#45;&gt;p13 -->
<g id="edge13" class="edge">
<title>p5&#45;&gt;p13</title>
<path fill="none" stroke="black" d="M632.04,-1465.75C646.61,-1463.73 704.16,-1454.59 744.58,-1431.2 754.36,-1425.54 776.3,-1403.43 788.67,-1390.59"/>
<polygon fill="black" stroke="black" points="791.3,-1392.89 795.67,-1383.24 786.24,-1388.06 791.3,-1392.89"/>
<text text-anchor="middle" x="819.08" y="-1420" font-family="Times,serif" font-size="14.00">spectral_indices</text>
</g>
<!-- p22 -->
<g id="node26" class="node">
<title>p22</title>
<ellipse fill="none" stroke="black" cx="628.58" cy="-1380.2" rx="3.5" ry="3.5"/>
<text text-anchor="middle" x="652.58" y="-1387.5" font-family="Times,serif" font-size="14.00">flatMap</text>
</g>
<!-- p5&#45;&gt;p22 -->
<g id="edge23" class="edge">
<title>p5&#45;&gt;p22</title>
<path fill="none" stroke="black" d="M628.58,-1463.37C628.58,-1452.69 628.58,-1414.39 628.58,-1394.07"/>
<polygon fill="black" stroke="black" points="632.08,-1393.78 628.58,-1383.78 625.08,-1393.78 632.08,-1393.78"/>
<text text-anchor="middle" x="686.08" y="-1420" font-family="Times,serif" font-size="14.00">spectral_indices</text>
</g>
<!-- p9 -->
<g id="node12" class="node">
<title>p9</title>
<ellipse fill="none" stroke="black" cx="281.58" cy="-1321.6" rx="3.5" ry="3.5"/>
<text text-anchor="middle" x="250.58" y="-1328.9" font-family="Times,serif" font-size="14.00">flatMap</text>
</g>
<!-- p8&#45;&gt;p9 -->
<g id="edge9" class="edge">
<title>p8&#45;&gt;p9</title>
<path fill="none" stroke="black" d="M334.22,-1376.77C326.8,-1369.13 303.7,-1345.37 290.71,-1331.99"/>
<polygon fill="black" stroke="black" points="293.12,-1329.45 283.64,-1324.72 288.1,-1334.33 293.12,-1329.45"/>
</g>
<!-- p6 -->
<g id="node9" class="node">
<title>p6</title>
<ellipse fill="black" stroke="black" cx="361.58" cy="-1321.6" rx="3.6" ry="3.6"/>
<text text-anchor="middle" x="319.48" y="-1329" font-family="Times,serif" font-size="14.00">Channel.of</text>
</g>
<!-- p10 -->
<g id="node10" class="node">
<title>p10</title>
<ellipse fill="none" stroke="black" cx="277.58" cy="-1228" rx="3.5" ry="3.5"/>
<text text-anchor="middle" x="243.58" y="-1235.3" font-family="Times,serif" font-size="14.00">combine</text>
</g>
<!-- p6&#45;&gt;p10 -->
<g id="edge7" class="edge">
<title>p6&#45;&gt;p10</title>
<path fill="none" stroke="black" d="M358.21,-1320.07C349.45,-1318.53 325.63,-1313.29 311.58,-1300 302.5,-1291.41 289.04,-1258.86 282.1,-1240.97"/>
<polygon fill="black" stroke="black" points="285.34,-1239.66 278.52,-1231.56 278.8,-1242.15 285.34,-1239.66"/>
<text text-anchor="middle" x="355.08" y="-1278.3" font-family="Times,serif" font-size="14.00">stm_choices</text>
</g>
<!-- p35 -->
<g id="node37" class="node">
<title>p35</title>
<ellipse fill="none" stroke="black" cx="444.58" cy="-811.2" rx="3.5" ry="3.5"/>
<text text-anchor="middle" x="410.58" y="-818.5" font-family="Times,serif" font-size="14.00">combine</text>
</g>
<!-- p6&#45;&gt;p35 -->
<g id="edge38" class="edge">
<title>p6&#45;&gt;p35</title>
<path fill="none" stroke="black" d="M364.88,-1319.78C372.21,-1317.78 389.93,-1311.89 398.58,-1300 417.5,-1273.99 412.58,-1261.16 412.58,-1229 412.58,-1229 412.58,-1229 412.58,-854.3 412.58,-839.85 424.67,-827.26 433.99,-819.7"/>
<polygon fill="black" stroke="black" points="436.07,-822.51 442.07,-813.78 431.94,-816.87 436.07,-822.51"/>
<text text-anchor="middle" x="456.08" y="-1026.6" font-family="Times,serif" font-size="14.00">stm_choices</text>
</g>
<!-- p11 -->
<g id="node13" class="node">
<title>p11</title>
<ellipse fill="black" stroke="black" cx="211.58" cy="-1155.4" rx="1.8" ry="1.8"/>
</g>
<!-- p10&#45;&gt;p11 -->
<g id="edge11" class="edge">
<title>p10&#45;&gt;p11</title>
<path fill="none" stroke="black" d="M274.38,-1226.43C263.4,-1224.28 227.11,-1215.57 212.58,-1192 208.04,-1184.63 208.17,-1174.68 209.21,-1167.17"/>
<polygon fill="black" stroke="black" points="212.64,-1167.88 211.28,-1157.38 205.79,-1166.44 212.64,-1167.88"/>
<text text-anchor="middle" x="305.58" y="-1180.8" font-family="Times,serif" font-size="14.00">stm_combination_sentinel</text>
</g>
<!-- p7 -->
<g id="node11" class="node">
<title>p7</title>
<ellipse fill="black" stroke="black" cx="336.58" cy="-1467.2" rx="3.6" ry="3.6"/>
<text text-anchor="middle" x="294.48" y="-1474.6" font-family="Times,serif" font-size="14.00">Channel.of</text>
</g>
<!-- p7&#45;&gt;p8 -->
<g id="edge8" class="edge">
<title>p7&#45;&gt;p8</title>
<path fill="none" stroke="black" d="M336.58,-1463.37C336.58,-1452.69 336.58,-1414.39 336.58,-1394.07"/>
<polygon fill="black" stroke="black" points="340.08,-1393.78 336.58,-1383.78 333.08,-1393.78 340.08,-1393.78"/>
</g>
<!-- p9&#45;&gt;p10 -->
<g id="edge10" class="edge">
<title>p9&#45;&gt;p10</title>
<path fill="none" stroke="black" d="M281.47,-1317.96C280.98,-1306.87 279.1,-1263.7 278.14,-1241.84"/>
<polygon fill="black" stroke="black" points="281.64,-1241.67 277.7,-1231.83 274.64,-1241.98 281.64,-1241.67"/>
</g>
<!-- p12 -->
<g id="node14" class="node">
<title>p12</title>
<ellipse fill="black" stroke="black" cx="896.58" cy="-1467.2" rx="3.6" ry="3.6"/>
<text text-anchor="middle" x="854.48" y="-1474.6" font-family="Times,serif" font-size="14.00">Channel.of</text>
</g>
<!-- p12&#45;&gt;p13 -->
<g id="edge12" class="edge">
<title>p12&#45;&gt;p13</title>
<path fill="none" stroke="black" d="M896.61,-1463.54C896.55,-1455.4 895.28,-1430.48 882.58,-1416.2 863.71,-1394.97 830,-1386.34 811.2,-1383.06"/>
<polygon fill="black" stroke="black" points="811.52,-1379.57 801.12,-1381.57 810.5,-1386.49 811.52,-1379.57"/>
</g>
<!-- p14 -->
<g id="node16" class="node">
<title>p14</title>
<ellipse fill="none" stroke="black" cx="797.58" cy="-1282" rx="3.5" ry="3.5"/>
<text text-anchor="middle" x="766.58" y="-1289.3" font-family="Times,serif" font-size="14.00">flatMap</text>
</g>
<!-- p13&#45;&gt;p14 -->
<g id="edge14" class="edge">
<title>p13&#45;&gt;p14</title>
<path fill="none" stroke="black" d="M797.58,-1376.42C797.58,-1364.68 797.58,-1318.64 797.58,-1295.88"/>
<polygon fill="black" stroke="black" points="801.08,-1295.6 797.58,-1285.6 794.08,-1295.6 801.08,-1295.6"/>
</g>
<!-- p34 -->
<g id="node17" class="node">
<title>p34</title>
<ellipse fill="none" stroke="black" cx="514.58" cy="-855.3" rx="3.5" ry="3.5"/>
<text text-anchor="middle" x="480.58" y="-862.6" font-family="Times,serif" font-size="14.00">combine</text>
</g>
<!-- p14&#45;&gt;p34 -->
<g id="edge15" class="edge">
<title>p14&#45;&gt;p34</title>
<path fill="none" stroke="black" d="M797.58,-1278.34C797.58,-1267.09 797.58,-1222.31 797.58,-1185.5 797.58,-1185.5 797.58,-1185.5 797.58,-912.3 797.58,-856.77 585.28,-855.42 528.44,-856.06"/>
<polygon fill="black" stroke="black" points="528.1,-852.56 518.16,-856.22 528.21,-859.56 528.1,-852.56"/>
<text text-anchor="middle" x="888.08" y="-1059.6" font-family="Times,serif" font-size="14.00">stm_combination_landsat</text>
</g>
<!-- p34&#45;&gt;p35 -->
<g id="edge37" class="edge">
<title>p34&#45;&gt;p35</title>
<path fill="none" stroke="black" d="M511.92,-852.7C502.83,-847.23 472.59,-829.05 455.9,-819.01"/>
<polygon fill="black" stroke="black" points="457.62,-815.96 447.24,-813.8 454.01,-821.95 457.62,-815.96"/>
</g>
<!-- p15 -->
<g id="node18" class="node">
<title>p15</title>
<ellipse fill="black" stroke="black" cx="457.58" cy="-1715.8" rx="3.6" ry="3.6"/>
<text text-anchor="middle" x="373.98" y="-1723.2" font-family="Times,serif" font-size="14.00">Channel.fromFilePairs</text>
</g>
<!-- p16 -->
<g id="node19" class="node">
<title>p16</title>
<ellipse fill="none" stroke="black" cx="457.58" cy="-1671.7" rx="3.5" ry="3.5"/>
<text text-anchor="middle" x="438.58" y="-1679" font-family="Times,serif" font-size="14.00">map</text>
</g>
<!-- p15&#45;&gt;p16 -->
<g id="edge16" class="edge">
<title>p15&#45;&gt;p16</title>
<path fill="none" stroke="black" d="M457.58,-1712.04C457.58,-1706.75 457.58,-1694.88 457.58,-1685.55"/>
<polygon fill="black" stroke="black" points="461.08,-1685.53 457.58,-1675.53 454.08,-1685.53 461.08,-1685.53"/>
</g>
<!-- p17 -->
<g id="node20" class="node">
<title>p17</title>
<ellipse fill="none" stroke="black" cx="457.58" cy="-1627.7" rx="3.5" ry="3.5"/>
<text text-anchor="middle" x="438.58" y="-1635" font-family="Times,serif" font-size="14.00">map</text>
</g>
<!-- p16&#45;&gt;p17 -->
<g id="edge17" class="edge">
<title>p16&#45;&gt;p17</title>
<path fill="none" stroke="black" d="M457.58,-1667.94C457.58,-1662.67 457.58,-1650.83 457.58,-1641.52"/>
<polygon fill="black" stroke="black" points="461.08,-1641.52 457.58,-1631.52 454.08,-1641.52 461.08,-1641.52"/>
</g>
<!-- p18 -->
<g id="node21" class="node">
<title>p18</title>
<ellipse fill="none" stroke="black" cx="457.58" cy="-1583.7" rx="3.5" ry="3.5"/>
<text text-anchor="middle" x="436.58" y="-1591" font-family="Times,serif" font-size="14.00">filter</text>
</g>
<!-- p17&#45;&gt;p18 -->
<g id="edge18" class="edge">
<title>p17&#45;&gt;p18</title>
<path fill="none" stroke="black" d="M457.58,-1623.94C457.58,-1618.67 457.58,-1606.83 457.58,-1597.52"/>
<polygon fill="black" stroke="black" points="461.08,-1597.52 457.58,-1587.52 454.08,-1597.52 461.08,-1597.52"/>
</g>
<!-- p19 -->
<g id="node22" class="node">
<title>p19</title>
<ellipse fill="none" stroke="black" cx="457.58" cy="-1539.7" rx="3.5" ry="3.5"/>
<text text-anchor="middle" x="436.58" y="-1547" font-family="Times,serif" font-size="14.00">filter</text>
</g>
<!-- p18&#45;&gt;p19 -->
<g id="edge19" class="edge">
<title>p18&#45;&gt;p19</title>
<path fill="none" stroke="black" d="M457.58,-1579.94C457.58,-1574.67 457.58,-1562.83 457.58,-1553.52"/>
<polygon fill="black" stroke="black" points="461.08,-1553.52 457.58,-1543.52 454.08,-1553.52 461.08,-1553.52"/>
</g>
<!-- p20 -->
<g id="node23" class="node">
<title>p20</title>
<ellipse fill="none" stroke="black" cx="457.58" cy="-1467.2" rx="91.78" ry="18"/>
<text text-anchor="middle" x="457.58" y="-1463.5" font-family="Times,serif" font-size="14.00">mask_layer_stack</text>
</g>
<!-- p19&#45;&gt;p20 -->
<g id="edge20" class="edge">
<title>p19&#45;&gt;p20</title>
<path fill="none" stroke="black" d="M457.58,-1536.02C457.58,-1529.36 457.58,-1511.44 457.58,-1495.69"/>
<polygon fill="black" stroke="black" points="461.08,-1495.3 457.58,-1485.3 454.08,-1495.3 461.08,-1495.3"/>
<text text-anchor="middle" x="490.08" y="-1507" font-family="Times,serif" font-size="14.00">ch_dataP</text>
</g>
<!-- p21 -->
<g id="node24" class="node">
<title>p21</title>
<ellipse fill="none" stroke="black" cx="523.58" cy="-1380.2" rx="57.69" ry="18"/>
<text text-anchor="middle" x="523.58" y="-1376.5" font-family="Times,serif" font-size="14.00">scale_files</text>
</g>
<!-- p20&#45;&gt;p21 -->
<g id="edge21" class="edge">
<title>p20&#45;&gt;p21</title>
<path fill="none" stroke="black" d="M459.35,-1449.16C461.11,-1438.84 464.61,-1425.84 471.58,-1416.2 475.43,-1410.87 480.35,-1406.11 485.63,-1401.95"/>
<polygon fill="black" stroke="black" points="488.01,-1404.55 494.12,-1395.9 483.95,-1398.85 488.01,-1404.55"/>
</g>
<!-- p23 -->
<g id="node25" class="node">
<title>p23</title>
<ellipse fill="none" stroke="black" cx="628.58" cy="-1321.6" rx="3.5" ry="3.5"/>
<text text-anchor="middle" x="594.58" y="-1328.9" font-family="Times,serif" font-size="14.00">combine</text>
</g>
<!-- p21&#45;&gt;p23 -->
<g id="edge22" class="edge">
<title>p21&#45;&gt;p23</title>
<path fill="none" stroke="black" d="M551.17,-1364.33C572.68,-1352.73 601.46,-1337.22 617.17,-1328.75"/>
<polygon fill="black" stroke="black" points="618.86,-1331.81 626.01,-1323.99 615.54,-1325.65 618.86,-1331.81"/>
</g>
<!-- p25 -->
<g id="node29" class="node">
<title>p25</title>
<ellipse fill="none" stroke="black" cx="523.58" cy="-1282" rx="96.38" ry="18"/>
<text text-anchor="middle" x="523.58" y="-1278.3" font-family="Times,serif" font-size="14.00">explode_base_files</text>
</g>
<!-- p21&#45;&gt;p25 -->
<g id="edge27" class="edge">
<title>p21&#45;&gt;p25</title>
<path fill="none" stroke="black" d="M523.58,-1362C523.58,-1347.64 523.58,-1326.9 523.58,-1310.27"/>
<polygon fill="black" stroke="black" points="527.08,-1310.05 523.58,-1300.05 520.08,-1310.05 527.08,-1310.05"/>
</g>
<!-- p24 -->
<g id="node27" class="node">
<title>p24</title>
<ellipse fill="none" stroke="black" cx="638.58" cy="-1228" rx="131.08" ry="18"/>
<text text-anchor="middle" x="638.58" y="-1224.3" font-family="Times,serif" font-size="14.00">calculate_spectral_indices</text>
</g>
<!-- p23&#45;&gt;p24 -->
<g id="edge25" class="edge">
<title>p23&#45;&gt;p24</title>
<path fill="none" stroke="black" d="M628.87,-1317.96C629.85,-1308.99 633.12,-1279.04 635.6,-1256.34"/>
<polygon fill="black" stroke="black" points="639.1,-1256.54 636.7,-1246.22 632.14,-1255.78 639.1,-1256.54"/>
</g>
<!-- p22&#45;&gt;p23 -->
<g id="edge24" class="edge">
<title>p22&#45;&gt;p23</title>
<path fill="none" stroke="black" d="M628.58,-1376.47C628.58,-1369.17 628.58,-1348.86 628.58,-1335.37"/>
<polygon fill="black" stroke="black" points="632.08,-1335.17 628.58,-1325.17 625.08,-1335.17 632.08,-1335.17"/>
</g>
<!-- p27 -->
<g id="node28" class="node">
<title>p27</title>
<ellipse fill="none" stroke="black" cx="485.58" cy="-1155.4" rx="3.5" ry="3.5"/>
<text text-anchor="middle" x="468.58" y="-1162.7" font-family="Times,serif" font-size="14.00">mix</text>
</g>
<!-- p24&#45;&gt;p27 -->
<g id="edge26" class="edge">
<title>p24&#45;&gt;p27</title>
<path fill="none" stroke="black" d="M603.1,-1210.63C569.27,-1195.02 520.26,-1172.4 497.74,-1162.01"/>
<polygon fill="black" stroke="black" points="498.95,-1158.71 488.4,-1157.7 496.01,-1165.07 498.95,-1158.71"/>
</g>
<!-- p29 -->
<g id="node31" class="node">
<title>p29</title>
<ellipse fill="none" stroke="black" cx="511.58" cy="-1111.3" rx="3.5" ry="3.5"/>
<text text-anchor="middle" x="477.58" y="-1118.6" font-family="Times,serif" font-size="14.00">combine</text>
</g>
<!-- p27&#45;&gt;p29 -->
<g id="edge30" class="edge">
<title>p27&#45;&gt;p29</title>
<path fill="none" stroke="black" d="M486.98,-1152.14C490.26,-1146.82 498.65,-1133.24 504.72,-1123.41"/>
<polygon fill="black" stroke="black" points="507.77,-1125.13 510.05,-1114.78 501.81,-1121.45 507.77,-1125.13"/>
</g>
<!-- p25&#45;&gt;p27 -->
<g id="edge28" class="edge">
<title>p25&#45;&gt;p27</title>
<path fill="none" stroke="black" d="M490.35,-1265.08C483.23,-1260.03 476.63,-1253.7 472.58,-1246 459.19,-1220.57 471.56,-1185.75 479.73,-1167.93"/>
<polygon fill="black" stroke="black" points="482.95,-1169.3 484.25,-1158.79 476.68,-1166.2 482.95,-1169.3"/>
</g>
<!-- p26 -->
<g id="node30" class="node">
<title>p26</title>
<ellipse fill="black" stroke="black" cx="485.58" cy="-1228" rx="3.6" ry="3.6"/>
<text text-anchor="middle" x="427.48" y="-1235.4" font-family="Times,serif" font-size="14.00">Channel.empty</text>
</g>
<!-- p26&#45;&gt;p27 -->
<g id="edge29" class="edge">
<title>p26&#45;&gt;p27</title>
<path fill="none" stroke="black" d="M485.58,-1224.32C485.58,-1215.41 485.58,-1186.38 485.58,-1169.29"/>
<polygon fill="black" stroke="black" points="489.08,-1169.08 485.58,-1159.08 482.08,-1169.08 489.08,-1169.08"/>
</g>
<!-- p30 -->
<g id="node33" class="node">
<title>p30</title>
<ellipse fill="none" stroke="black" cx="512.58" cy="-1063.3" rx="3.5" ry="3.5"/>
<text text-anchor="middle" x="493.58" y="-1070.6" font-family="Times,serif" font-size="14.00">map</text>
</g>
<!-- p29&#45;&gt;p30 -->
<g id="edge32" class="edge">
<title>p29&#45;&gt;p30</title>
<path fill="none" stroke="black" d="M511.64,-1107.56C511.77,-1101.73 512.07,-1087.77 512.3,-1077.27"/>
<polygon fill="black" stroke="black" points="515.81,-1077.04 512.52,-1066.97 508.81,-1076.89 515.81,-1077.04"/>
</g>
<!-- p28 -->
<g id="node32" class="node">
<title>p28</title>
<ellipse fill="black" stroke="black" cx="511.58" cy="-1155.4" rx="3.6" ry="3.6"/>
</g>
<!-- p28&#45;&gt;p29 -->
<g id="edge31" class="edge">
<title>p28&#45;&gt;p29</title>
<path fill="none" stroke="black" d="M511.58,-1151.64C511.58,-1146.35 511.58,-1134.48 511.58,-1125.15"/>
<polygon fill="black" stroke="black" points="515.08,-1125.13 511.58,-1115.13 508.08,-1125.13 515.08,-1125.13"/>
</g>
<!-- p31 -->
<g id="node34" class="node">
<title>p31</title>
<ellipse fill="none" stroke="black" cx="514.58" cy="-1001.3" rx="3.5" ry="3.5"/>
<text text-anchor="middle" x="493.58" y="-1008.6" font-family="Times,serif" font-size="14.00">filter</text>
</g>
<!-- p30&#45;&gt;p31 -->
<g id="edge33" class="edge">
<title>p30&#45;&gt;p31</title>
<path fill="none" stroke="black" d="M512.67,-1059.72C512.92,-1052.17 513.67,-1029.69 514.15,-1015.21"/>
<polygon fill="black" stroke="black" points="517.66,-1014.91 514.5,-1004.8 510.67,-1014.68 517.66,-1014.91"/>
</g>
<!-- p32 -->
<g id="node35" class="node">
<title>p32</title>
<ellipse fill="none" stroke="black" cx="514.58" cy="-957.3" rx="3.5" ry="3.5"/>
<text text-anchor="middle" x="470.08" y="-964.6" font-family="Times,serif" font-size="14.00">groupTuple</text>
</g>
<!-- p31&#45;&gt;p32 -->
<g id="edge34" class="edge">
<title>p31&#45;&gt;p32</title>
<path fill="none" stroke="black" d="M514.58,-997.54C514.58,-992.27 514.58,-980.43 514.58,-971.12"/>
<polygon fill="black" stroke="black" points="518.08,-971.12 514.58,-961.12 511.08,-971.12 518.08,-971.12"/>
</g>
<!-- p33 -->
<g id="node36" class="node">
<title>p33</title>
<ellipse fill="none" stroke="black" cx="514.58" cy="-913.3" rx="3.5" ry="3.5"/>
<text text-anchor="middle" x="495.58" y="-920.6" font-family="Times,serif" font-size="14.00">map</text>
</g>
<!-- p32&#45;&gt;p33 -->
<g id="edge35" class="edge">
<title>p32&#45;&gt;p33</title>
<path fill="none" stroke="black" d="M514.58,-953.54C514.58,-948.27 514.58,-936.43 514.58,-927.12"/>
<polygon fill="black" stroke="black" points="518.08,-927.12 514.58,-917.12 511.08,-927.12 518.08,-927.12"/>
</g>
<!-- p33&#45;&gt;p34 -->
<g id="edge36" class="edge">
<title>p33&#45;&gt;p34</title>
<path fill="none" stroke="black" d="M514.58,-909.6C514.58,-902.38 514.58,-882.28 514.58,-868.93"/>
<polygon fill="black" stroke="black" points="518.08,-868.84 514.58,-858.84 511.08,-868.84 518.08,-868.84"/>
<text text-anchor="middle" x="603.58" y="-880.6" font-family="Times,serif" font-size="14.00">ch_group_stacked_raster</text>
</g>
<!-- p36 -->
<g id="node38" class="node">
<title>p36</title>
<ellipse fill="none" stroke="black" cx="444.58" cy="-752.6" rx="45.49" ry="18"/>
<text text-anchor="middle" x="444.58" y="-748.9" font-family="Times,serif" font-size="14.00">stms_ls</text>
</g>
<!-- p35&#45;&gt;p36 -->
<g id="edge39" class="edge">
<title>p35&#45;&gt;p36</title>
<path fill="none" stroke="black" d="M444.58,-807.47C444.58,-802.52 444.58,-791.56 444.58,-780.82"/>
<polygon fill="black" stroke="black" points="448.08,-780.78 444.58,-770.78 441.08,-780.78 448.08,-780.78"/>
</g>
<!-- p37 -->
<g id="node39" class="node">
<title>p37</title>
<ellipse fill="none" stroke="black" cx="444.58" cy="-694.1" rx="3.5" ry="3.5"/>
<text text-anchor="middle" x="400.08" y="-701.4" font-family="Times,serif" font-size="14.00">groupTuple</text>
</g>
<!-- p36&#45;&gt;p37 -->
<g id="edge40" class="edge">
<title>p36&#45;&gt;p37</title>
<path fill="none" stroke="black" d="M444.58,-734.34C444.58,-725.76 444.58,-715.57 444.58,-707.72"/>
<polygon fill="black" stroke="black" points="448.08,-707.66 444.58,-697.66 441.08,-707.66 448.08,-707.66"/>
</g>
<!-- p38 -->
<g id="node40" class="node">
<title>p38</title>
<ellipse fill="none" stroke="black" cx="444.58" cy="-621.6" rx="116.98" ry="18"/>
<text text-anchor="middle" x="444.58" y="-617.9" font-family="Times,serif" font-size="14.00">stack_generation:stack</text>
</g>
<!-- p37&#45;&gt;p38 -->
<g id="edge41" class="edge">
<title>p37&#45;&gt;p38</title>
<path fill="none" stroke="black" d="M444.58,-690.42C444.58,-683.76 444.58,-665.84 444.58,-650.09"/>
<polygon fill="black" stroke="black" points="448.08,-649.7 444.58,-639.7 441.08,-649.7 448.08,-649.7"/>
</g>
<!-- p38&#45;&gt;p39 -->
<g id="edge42" class="edge">
<title>p38&#45;&gt;p39</title>
<path fill="none" stroke="black" d="M373.84,-607.22C351.25,-601.82 326.45,-594.67 304.58,-585.6 286.66,-578.16 267.75,-565.89 256.3,-557.9"/>
<polygon fill="black" stroke="black" points="258.3,-555.02 248.14,-552.02 254.21,-560.7 258.3,-555.02"/>
<text text-anchor="middle" x="370.08" y="-574.4" font-family="Times,serif" font-size="14.00">classification_data</text>
</g>
<!-- p44 -->
<g id="node45" class="node">
<title>p44</title>
<ellipse fill="none" stroke="black" cx="358.58" cy="-234.1" rx="3.5" ry="3.5"/>
<text text-anchor="middle" x="324.58" y="-241.4" font-family="Times,serif" font-size="14.00">combine</text>
</g>
<!-- p38&#45;&gt;p44 -->
<g id="edge48" class="edge">
<title>p38&#45;&gt;p44</title>
<path fill="none" stroke="black" d="M446.47,-603.53C447.89,-589.27 449.58,-568.38 449.58,-550.1 449.58,-550.1 449.58,-550.1 449.58,-291.6 449.58,-255.48 397.2,-241.65 371.92,-237.07"/>
<polygon fill="black" stroke="black" points="372.46,-233.61 362.04,-235.51 371.37,-240.53 372.46,-233.61"/>
<text text-anchor="middle" x="515.08" y="-424.4" font-family="Times,serif" font-size="14.00">classification_data</text>
</g>
<!-- p41 -->
<g id="node42" class="node">
<title>p41</title>
<ellipse fill="none" stroke="black" cx="212.58" cy="-428.1" rx="3.5" ry="3.5"/>
<text text-anchor="middle" x="185.58" y="-435.4" font-family="Times,serif" font-size="14.00">collect</text>
</g>
<!-- p40&#45;&gt;p41 -->
<g id="edge44" class="edge">
<title>p40&#45;&gt;p41</title>
<path fill="none" stroke="black" d="M215.45,-472.42C214.81,-462.74 214.02,-450.83 213.43,-441.96"/>
<polygon fill="black" stroke="black" points="216.92,-441.72 212.77,-431.97 209.94,-442.18 216.92,-441.72"/>
</g>
<!-- p42 -->
<g id="node43" class="node">
<title>p42</title>
<ellipse fill="none" stroke="black" cx="210.58" cy="-365.6" rx="210.66" ry="18"/>
<text text-anchor="middle" x="210.58" y="-361.9" font-family="Times,serif" font-size="14.00">ml_modeling:merge_classification_datasets</text>
</g>
<!-- p41&#45;&gt;p42 -->
<g id="edge45" class="edge">
<title>p41&#45;&gt;p42</title>
<path fill="none" stroke="black" d="M212.5,-424.5C212.32,-419.15 211.9,-406.37 211.49,-394.18"/>
<polygon fill="black" stroke="black" points="214.98,-393.69 211.15,-383.82 207.98,-393.93 214.98,-393.69"/>
</g>
<!-- p43 -->
<g id="node44" class="node">
<title>p43</title>
<ellipse fill="none" stroke="black" cx="254.58" cy="-292.6" rx="153.27" ry="18"/>
<text text-anchor="middle" x="254.58" y="-288.9" font-family="Times,serif" font-size="14.00">ml_modeling:train_rf_classifier</text>
</g>
<!-- p42&#45;&gt;p43 -->
<g id="edge46" class="edge">
<title>p42&#45;&gt;p43</title>
<path fill="none" stroke="black" d="M221.23,-347.41C226.47,-338.95 232.9,-328.58 238.71,-319.21"/>
<polygon fill="black" stroke="black" points="241.74,-320.97 244.03,-310.63 235.79,-317.29 241.74,-320.97"/>
</g>
<!-- p43&#45;&gt;p44 -->
<g id="edge47" class="edge">
<title>p43&#45;&gt;p44</title>
<path fill="none" stroke="black" d="M285.22,-274.95C305.84,-263.76 331.87,-249.61 346.73,-241.54"/>
<polygon fill="black" stroke="black" points="348.82,-244.38 355.94,-236.54 345.48,-238.23 348.82,-244.38"/>
</g>
<!-- p45 -->
<g id="node46" class="node">
<title>p45</title>
<ellipse fill="none" stroke="black" cx="358.58" cy="-175.6" rx="151.37" ry="18"/>
<text text-anchor="middle" x="358.58" y="-171.9" font-family="Times,serif" font-size="14.00">ml_modeling:predict_classifier</text>
</g>
<!-- p44&#45;&gt;p45 -->
<g id="edge49" class="edge">
<title>p44&#45;&gt;p45</title>
<path fill="none" stroke="black" d="M358.58,-230.37C358.58,-225.43 358.58,-214.5 358.58,-203.77"/>
<polygon fill="black" stroke="black" points="362.08,-203.75 358.58,-193.75 355.08,-203.75 362.08,-203.75"/>
</g>
<!-- p46 -->
<g id="node47" class="node">
<title>p46</title>
<ellipse fill="none" stroke="black" cx="358.58" cy="-117.1" rx="3.5" ry="3.5"/>
<text text-anchor="middle" x="331.58" y="-124.4" font-family="Times,serif" font-size="14.00">collect</text>
</g>
<!-- p45&#45;&gt;p46 -->
<g id="edge50" class="edge">
<title>p45&#45;&gt;p46</title>
<path fill="none" stroke="black" d="M358.58,-157.34C358.58,-148.76 358.58,-138.57 358.58,-130.72"/>
<polygon fill="black" stroke="black" points="362.08,-130.66 358.58,-120.66 355.08,-130.66 362.08,-130.66"/>
</g>
<!-- p47 -->
<g id="node48" class="node">
<title>p47</title>
<ellipse fill="none" stroke="black" cx="358.58" cy="-58.6" rx="79.09" ry="18"/>
<text text-anchor="middle" x="358.58" y="-54.9" font-family="Times,serif" font-size="14.00">build_class_vrt</text>
</g>
<!-- p46&#45;&gt;p47 -->
<g id="edge51" class="edge">
<title>p46&#45;&gt;p47</title>
<path fill="none" stroke="black" d="M358.58,-113.37C358.58,-108.43 358.58,-97.5 358.58,-86.77"/>
<polygon fill="black" stroke="black" points="362.08,-86.75 358.58,-76.75 355.08,-86.75 362.08,-86.75"/>
</g>
<!-- p48 -->
<g id="node49" class="node">
<title>p48</title>
<ellipse fill="black" stroke="black" cx="358.58" cy="-1.8" rx="1.8" ry="1.8"/>
</g>
<!-- p47&#45;&gt;p48 -->
<g id="edge52" class="edge">
<title>p47&#45;&gt;p48</title>
<path fill="none" stroke="black" d="M358.58,-40.56C358.58,-31.87 358.58,-21.56 358.58,-13.9"/>
<polygon fill="black" stroke="black" points="362.08,-13.76 358.58,-3.76 355.08,-13.76 362.08,-13.76"/>
</g>
</g>
</svg>
