<?xml version="1.0" encoding="UTF-8" standalone="no"?>
<!DOCTYPE svg PUBLIC "-//W3C//DTD SVG 1.1//EN"
 "http://www.w3.org/Graphics/SVG/1.1/DTD/svg11.dtd">
<!-- Generated by graphviz version 2.43.0 (0)
 -->
<!-- Title: dag Pages: 1 -->
<svg width="987pt" height="1223pt"
 viewBox="0.00 0.00 986.60 1223.00" xmlns="http://www.w3.org/2000/svg" xmlns:xlink="http://www.w3.org/1999/xlink">
<g id="graph0" class="graph" transform="scale(1 1) rotate(0) translate(4 1219)">
<title>dag</title>
<polygon fill="white" stroke="transparent" points="-4,4 -4,-1219 982.6,-1219 982.6,4 -4,4"/>
<!-- p0 -->
<g id="node1" class="node">
<title>p0</title>
<ellipse fill="black" stroke="black" cx="133.6" cy="-1196.4" rx="3.6" ry="3.6"/>
<text text-anchor="middle" x="65" y="-1203.8" font-family="Times,serif" font-size="14.00">Channel.fromPath</text>
</g>
<!-- p2 -->
<g id="node2" class="node">
<title>p2</title>
<ellipse fill="none" stroke="black" cx="145.6" cy="-1152.3" rx="3.5" ry="3.5"/>
<text text-anchor="middle" x="118.6" y="-1159.6" font-family="Times,serif" font-size="14.00">concat</text>
</g>
<!-- p0&#45;&gt;p2 -->
<g id="edge1" class="edge">
<title>p0&#45;&gt;p2</title>
<path fill="none" stroke="black" d="M134.39,-1192.64C135.91,-1187.29 139.35,-1175.21 142.03,-1165.84"/>
<polygon fill="black" stroke="black" points="145.42,-1166.7 144.79,-1156.13 138.69,-1164.79 145.42,-1166.7"/>
</g>
<!-- p3 -->
<g id="node4" class="node">
<title>p3</title>
<ellipse fill="none" stroke="black" cx="145.6" cy="-1108.3" rx="3.5" ry="3.5"/>
<text text-anchor="middle" x="118.6" y="-1115.6" font-family="Times,serif" font-size="14.00">collect</text>
</g>
<!-- p2&#45;&gt;p3 -->
<g id="edge3" class="edge">
<title>p2&#45;&gt;p3</title>
<path fill="none" stroke="black" d="M145.6,-1148.54C145.6,-1143.27 145.6,-1131.43 145.6,-1122.12"/>
<polygon fill="black" stroke="black" points="149.1,-1122.12 145.6,-1112.12 142.1,-1122.12 149.1,-1122.12"/>
</g>
<!-- p1 -->
<g id="node3" class="node">
<title>p1</title>
<ellipse fill="black" stroke="black" cx="158.6" cy="-1196.4" rx="3.6" ry="3.6"/>
<text text-anchor="middle" x="116.5" y="-1181.6" font-family="Times,serif" font-size="14.00">Channel.of</text>
</g>
<!-- p1&#45;&gt;p2 -->
<g id="edge2" class="edge">
<title>p1&#45;&gt;p2</title>
<path fill="none" stroke="black" d="M157.75,-1192.64C156.09,-1187.29 152.37,-1175.21 149.47,-1165.84"/>
<polygon fill="black" stroke="black" points="152.77,-1164.65 146.47,-1156.13 146.08,-1166.72 152.77,-1164.65"/>
</g>
<!-- p4 -->
<g id="node5" class="node">
<title>p4</title>
<ellipse fill="none" stroke="black" cx="145.6" cy="-1035.8" rx="59.29" ry="18"/>
<text text-anchor="middle" x="145.6" y="-1032.1" font-family="Times,serif" font-size="14.00">spat_lucas</text>
</g>
<!-- p3&#45;&gt;p4 -->
<g id="edge4" class="edge">
<title>p3&#45;&gt;p4</title>
<path fill="none" stroke="black" d="M145.6,-1104.62C145.6,-1097.96 145.6,-1080.04 145.6,-1064.29"/>
<polygon fill="black" stroke="black" points="149.1,-1063.9 145.6,-1053.9 142.1,-1063.9 149.1,-1063.9"/>
<text text-anchor="middle" x="164.1" y="-1075.6" font-family="Times,serif" font-size="14.00">lucas</text>
</g>
<!-- p5 -->
<g id="node6" class="node">
<title>p5</title>
<ellipse fill="black" stroke="black" cx="145.6" cy="-948.8" rx="1.8" ry="1.8"/>
</g>
<!-- p4&#45;&gt;p5 -->
<g id="edge5" class="edge">
<title>p4&#45;&gt;p5</title>
<path fill="none" stroke="black" d="M145.6,-1017.6C145.6,-1000.72 145.6,-975.46 145.6,-961.02"/>
<polygon fill="black" stroke="black" points="149.1,-960.88 145.6,-950.88 142.1,-960.88 149.1,-960.88"/>
</g>
<!-- p6 -->
<g id="node7" class="node">
<title>p6</title>
<ellipse fill="black" stroke="black" cx="569.6" cy="-948.8" rx="3.6" ry="3.6"/>
<text text-anchor="middle" x="527.5" y="-956.2" font-family="Times,serif" font-size="14.00">Channel.of</text>
</g>
<!-- p9 -->
<g id="node8" class="node">
<title>p9</title>
<ellipse fill="none" stroke="black" cx="559.6" cy="-876.3" rx="3.5" ry="3.5"/>
<text text-anchor="middle" x="542.6" y="-883.6" font-family="Times,serif" font-size="14.00">mix</text>
</g>
<!-- p6&#45;&gt;p9 -->
<g id="edge6" class="edge">
<title>p6&#45;&gt;p9</title>
<path fill="none" stroke="black" d="M569.22,-945.12C567.96,-936.22 563.85,-907.24 561.43,-890.17"/>
<polygon fill="black" stroke="black" points="564.85,-889.39 559.98,-879.98 557.92,-890.37 564.85,-889.39"/>
<text text-anchor="middle" x="622.1" y="-901.6" font-family="Times,serif" font-size="14.00">spectral_indices</text>
</g>
<!-- p13 -->
<g id="node15" class="node">
<title>p13</title>
<ellipse fill="none" stroke="black" cx="804.6" cy="-876.3" rx="3.5" ry="3.5"/>
<text text-anchor="middle" x="787.6" y="-883.6" font-family="Times,serif" font-size="14.00">mix</text>
</g>
<!-- p6&#45;&gt;p13 -->
<g id="edge13" class="edge">
<title>p6&#45;&gt;p13</title>
<path fill="none" stroke="black" d="M572.92,-947.19C586.93,-944.53 642.4,-933.17 683.6,-912.8 693.88,-907.72 694.09,-902.38 704.6,-897.8 733.65,-885.13 770.91,-880.16 790.74,-878.31"/>
<polygon fill="black" stroke="black" points="791.29,-881.78 800.98,-877.5 790.74,-874.8 791.29,-881.78"/>
<text text-anchor="middle" x="762.1" y="-901.6" font-family="Times,serif" font-size="14.00">spectral_indices</text>
</g>
<!-- p22 -->
<g id="node27" class="node">
<title>p22</title>
<ellipse fill="none" stroke="black" cx="431.6" cy="-876.3" rx="3.5" ry="3.5"/>
<text text-anchor="middle" x="400.6" y="-883.6" font-family="Times,serif" font-size="14.00">flatMap</text>
</g>
<!-- p6&#45;&gt;p22 -->
<g id="edge25" class="edge">
<title>p6&#45;&gt;p22</title>
<path fill="none" stroke="black" d="M565.87,-947.97C549.03,-948.51 479.39,-948.45 442.6,-912.8 436.47,-906.86 433.74,-897.58 432.53,-890"/>
<polygon fill="black" stroke="black" points="436.01,-889.6 431.61,-879.97 429.04,-890.24 436.01,-889.6"/>
<text text-anchor="middle" x="500.1" y="-901.6" font-family="Times,serif" font-size="14.00">spectral_indices</text>
</g>
<!-- p10 -->
<g id="node12" class="node">
<title>p10</title>
<ellipse fill="none" stroke="black" cx="559.6" cy="-818.2" rx="3.5" ry="3.5"/>
<text text-anchor="middle" x="528.6" y="-825.5" font-family="Times,serif" font-size="14.00">flatMap</text>
</g>
<!-- p9&#45;&gt;p10 -->
<g id="edge9" class="edge">
<title>p9&#45;&gt;p10</title>
<path fill="none" stroke="black" d="M559.6,-872.59C559.6,-865.36 559.6,-845.23 559.6,-831.86"/>
<polygon fill="black" stroke="black" points="563.1,-831.75 559.6,-821.75 556.1,-831.75 563.1,-831.75"/>
</g>
<!-- p7 -->
<g id="node9" class="node">
<title>p7</title>
<ellipse fill="black" stroke="black" cx="647.6" cy="-818.2" rx="3.6" ry="3.6"/>
<text text-anchor="middle" x="605.5" y="-825.6" font-family="Times,serif" font-size="14.00">Channel.of</text>
</g>
<!-- p11 -->
<g id="node10" class="node">
<title>p11</title>
<ellipse fill="none" stroke="black" cx="575.6" cy="-724.6" rx="3.5" ry="3.5"/>
<text text-anchor="middle" x="541.6" y="-731.9" font-family="Times,serif" font-size="14.00">combine</text>
</g>
<!-- p7&#45;&gt;p11 -->
<g id="edge7" class="edge">
<title>p7&#45;&gt;p11</title>
<path fill="none" stroke="black" d="M644.08,-816.94C634.45,-816.05 607.48,-812.19 593.6,-796.6 579.07,-780.27 575.94,-753.87 575.45,-738.27"/>
<polygon fill="black" stroke="black" points="578.95,-738.18 575.46,-728.18 571.95,-738.17 578.95,-738.18"/>
<text text-anchor="middle" x="637.1" y="-774.9" font-family="Times,serif" font-size="14.00">stm_choices</text>
</g>
<!-- p15 -->
<g id="node17" class="node">
<title>p15</title>
<ellipse fill="none" stroke="black" cx="797.6" cy="-724.6" rx="3.5" ry="3.5"/>
<text text-anchor="middle" x="763.6" y="-731.9" font-family="Times,serif" font-size="14.00">combine</text>
</g>
<!-- p7&#45;&gt;p15 -->
<g id="edge16" class="edge">
<title>p7&#45;&gt;p15</title>
<path fill="none" stroke="black" d="M650.57,-815.8C656.65,-812.83 670.77,-805.47 680.6,-796.6 695.65,-783.02 692.37,-772.74 708.6,-760.6 732.26,-742.9 766.04,-732.89 784.43,-728.44"/>
<polygon fill="black" stroke="black" points="785.22,-731.85 794.22,-726.25 783.69,-725.02 785.22,-731.85"/>
<text text-anchor="middle" x="752.1" y="-774.9" font-family="Times,serif" font-size="14.00">stm_choices</text>
</g>
<!-- p43 -->
<g id="node13" class="node">
<title>p43</title>
<ellipse fill="none" stroke="black" cx="550.6" cy="-117.1" rx="3.5" ry="3.5"/>
<text text-anchor="middle" x="516.6" y="-124.4" font-family="Times,serif" font-size="14.00">combine</text>
</g>
<!-- p11&#45;&gt;p43 -->
<g id="edge11" class="edge">
<title>p11&#45;&gt;p43</title>
<path fill="none" stroke="black" d="M575.6,-721.01C575.6,-713 575.6,-687.9 575.6,-667.1 575.6,-667.1 575.6,-667.1 575.6,-160.1 575.6,-147.41 567.07,-135.22 559.98,-127.27"/>
<polygon fill="black" stroke="black" points="562.43,-124.77 552.91,-120.11 557.45,-129.69 562.43,-124.77"/>
<text text-anchor="middle" x="668.6" y="-395.4" font-family="Times,serif" font-size="14.00">stm_combination_sentinel</text>
</g>
<!-- p8 -->
<g id="node11" class="node">
<title>p8</title>
<ellipse fill="black" stroke="black" cx="398.6" cy="-948.8" rx="3.6" ry="3.6"/>
<text text-anchor="middle" x="433.5" y="-956.2" font-family="Times,serif" font-size="14.00">Channel.of</text>
</g>
<!-- p8&#45;&gt;p9 -->
<g id="edge8" class="edge">
<title>p8&#45;&gt;p9</title>
<path fill="none" stroke="black" d="M399.43,-944.94C402.14,-936.21 411.56,-909.78 429.6,-897.8 448.5,-885.25 516.32,-879.83 545.78,-878.04"/>
<polygon fill="black" stroke="black" points="546.26,-881.52 556.05,-877.47 545.87,-874.53 546.26,-881.52"/>
</g>
<!-- p10&#45;&gt;p11 -->
<g id="edge10" class="edge">
<title>p10&#45;&gt;p11</title>
<path fill="none" stroke="black" d="M560.06,-814.56C562.01,-803.43 569.6,-759.94 573.4,-738.17"/>
<polygon fill="black" stroke="black" points="576.89,-738.53 575.17,-728.08 570,-737.33 576.89,-738.53"/>
</g>
<!-- p44 -->
<g id="node45" class="node">
<title>p44</title>
<ellipse fill="none" stroke="black" cx="550.6" cy="-58.6" rx="53.89" ry="18"/>
<text text-anchor="middle" x="550.6" y="-54.9" font-family="Times,serif" font-size="14.00">stms_sen</text>
</g>
<!-- p43&#45;&gt;p44 -->
<g id="edge47" class="edge">
<title>p43&#45;&gt;p44</title>
<path fill="none" stroke="black" d="M550.6,-113.37C550.6,-108.43 550.6,-97.5 550.6,-86.77"/>
<polygon fill="black" stroke="black" points="554.1,-86.75 550.6,-76.75 547.1,-86.75 554.1,-86.75"/>
</g>
<!-- p12 -->
<g id="node14" class="node">
<title>p12</title>
<ellipse fill="black" stroke="black" cx="837.6" cy="-948.8" rx="3.6" ry="3.6"/>
<text text-anchor="middle" x="795.5" y="-956.2" font-family="Times,serif" font-size="14.00">Channel.of</text>
</g>
<!-- p12&#45;&gt;p13 -->
<g id="edge12" class="edge">
<title>p12&#45;&gt;p13</title>
<path fill="none" stroke="black" d="M837.27,-944.91C836.28,-936.94 832.76,-914.16 823.6,-897.8 821.23,-893.57 817.82,-889.52 814.54,-886.15"/>
<polygon fill="black" stroke="black" points="816.69,-883.38 806.97,-879.19 811.95,-888.53 816.69,-883.38"/>
</g>
<!-- p14 -->
<g id="node16" class="node">
<title>p14</title>
<ellipse fill="none" stroke="black" cx="804.6" cy="-818.2" rx="3.5" ry="3.5"/>
<text text-anchor="middle" x="773.6" y="-825.5" font-family="Times,serif" font-size="14.00">flatMap</text>
</g>
<!-- p13&#45;&gt;p14 -->
<g id="edge14" class="edge">
<title>p13&#45;&gt;p14</title>
<path fill="none" stroke="black" d="M804.6,-872.59C804.6,-865.36 804.6,-845.23 804.6,-831.86"/>
<polygon fill="black" stroke="black" points="808.1,-831.75 804.6,-821.75 801.1,-831.75 808.1,-831.75"/>
</g>
<!-- p14&#45;&gt;p15 -->
<g id="edge15" class="edge">
<title>p14&#45;&gt;p15</title>
<path fill="none" stroke="black" d="M804.4,-814.56C803.55,-803.47 800.25,-760.3 798.58,-738.44"/>
<polygon fill="black" stroke="black" points="802.07,-738.14 797.82,-728.43 795.09,-738.67 802.07,-738.14"/>
</g>
<!-- p40 -->
<g id="node18" class="node">
<title>p40</title>
<ellipse fill="none" stroke="black" cx="744.6" cy="-117.1" rx="3.5" ry="3.5"/>
<text text-anchor="middle" x="710.6" y="-124.4" font-family="Times,serif" font-size="14.00">combine</text>
</g>
<!-- p15&#45;&gt;p40 -->
<g id="edge17" class="edge">
<title>p15&#45;&gt;p40</title>
<path fill="none" stroke="black" d="M797.6,-721.01C797.6,-713 797.6,-687.9 797.6,-667.1 797.6,-667.1 797.6,-667.1 797.6,-160.1 797.6,-139.7 773.19,-127.65 757.51,-122.01"/>
<polygon fill="black" stroke="black" points="758.35,-118.6 747.76,-118.91 756.23,-125.27 758.35,-118.6"/>
<text text-anchor="middle" x="888.1" y="-395.4" font-family="Times,serif" font-size="14.00">stm_combination_landsat</text>
</g>
<!-- p41 -->
<g id="node43" class="node">
<title>p41</title>
<ellipse fill="none" stroke="black" cx="744.6" cy="-58.6" rx="45.49" ry="18"/>
<text text-anchor="middle" x="744.6" y="-54.9" font-family="Times,serif" font-size="14.00">stms_ls</text>
</g>
<!-- p40&#45;&gt;p41 -->
<g id="edge45" class="edge">
<title>p40&#45;&gt;p41</title>
<path fill="none" stroke="black" d="M744.6,-113.37C744.6,-108.43 744.6,-97.5 744.6,-86.77"/>
<polygon fill="black" stroke="black" points="748.1,-86.75 744.6,-76.75 741.1,-86.75 748.1,-86.75"/>
</g>
<!-- p16 -->
<g id="node19" class="node">
<title>p16</title>
<ellipse fill="black" stroke="black" cx="267.6" cy="-1196.4" rx="3.6" ry="3.6"/>
<text text-anchor="middle" x="344" y="-1203.8" font-family="Times,serif" font-size="14.00">Channel.fromFilePairs</text>
</g>
<!-- p17 -->
<g id="node20" class="node">
<title>p17</title>
<ellipse fill="none" stroke="black" cx="267.6" cy="-1152.3" rx="3.5" ry="3.5"/>
<text text-anchor="middle" x="248.6" y="-1159.6" font-family="Times,serif" font-size="14.00">take</text>
</g>
<!-- p16&#45;&gt;p17 -->
<g id="edge18" class="edge">
<title>p16&#45;&gt;p17</title>
<path fill="none" stroke="black" d="M267.6,-1192.64C267.6,-1187.35 267.6,-1175.48 267.6,-1166.15"/>
<polygon fill="black" stroke="black" points="271.1,-1166.13 267.6,-1156.13 264.1,-1166.13 271.1,-1166.13"/>
</g>
<!-- p18 -->
<g id="node21" class="node">
<title>p18</title>
<ellipse fill="none" stroke="black" cx="267.6" cy="-1108.3" rx="3.5" ry="3.5"/>
<text text-anchor="middle" x="246.6" y="-1115.6" font-family="Times,serif" font-size="14.00">filter</text>
</g>
<!-- p17&#45;&gt;p18 -->
<g id="edge19" class="edge">
<title>p17&#45;&gt;p18</title>
<path fill="none" stroke="black" d="M267.6,-1148.54C267.6,-1143.27 267.6,-1131.43 267.6,-1122.12"/>
<polygon fill="black" stroke="black" points="271.1,-1122.12 267.6,-1112.12 264.1,-1122.12 271.1,-1122.12"/>
</g>
<!-- p19 -->
<g id="node22" class="node">
<title>p19</title>
<ellipse fill="none" stroke="black" cx="267.6" cy="-1035.8" rx="3.5" ry="3.5"/>
<text text-anchor="middle" x="248.6" y="-1043.1" font-family="Times,serif" font-size="14.00">map</text>
</g>
<!-- p18&#45;&gt;p19 -->
<g id="edge20" class="edge">
<title>p18&#45;&gt;p19</title>
<path fill="none" stroke="black" d="M267.6,-1104.62C267.6,-1095.72 267.6,-1066.74 267.6,-1049.67"/>
<polygon fill="black" stroke="black" points="271.1,-1049.48 267.6,-1039.48 264.1,-1049.48 271.1,-1049.48"/>
</g>
<!-- p20 -->
<g id="node23" class="node">
<title>p20</title>
<ellipse fill="none" stroke="black" cx="267.6" cy="-948.8" rx="102.08" ry="18"/>
<text text-anchor="middle" x="267.6" y="-945.1" font-family="Times,serif" font-size="14.00">mask_BOA:mask_pr</text>
</g>
<!-- p19&#45;&gt;p20 -->
<g id="edge21" class="edge">
<title>p19&#45;&gt;p20</title>
<path fill="none" stroke="black" d="M267.6,-1031.97C267.6,-1023.48 267.6,-997.55 267.6,-977.07"/>
<polygon fill="black" stroke="black" points="271.1,-976.97 267.6,-966.97 264.1,-976.97 271.1,-976.97"/>
<text text-anchor="middle" x="283.6" y="-988.6" font-family="Times,serif" font-size="14.00">data</text>
</g>
<!-- p21 -->
<g id="node24" class="node">
<title>p21</title>
<ellipse fill="none" stroke="black" cx="267.6" cy="-876.3" rx="3.5" ry="3.5"/>
<text text-anchor="middle" x="252.1" y="-883.6" font-family="Times,serif" font-size="14.00">tap</text>
</g>
<!-- p20&#45;&gt;p21 -->
<g id="edge22" class="edge">
<title>p20&#45;&gt;p21</title>
<path fill="none" stroke="black" d="M267.6,-930.73C267.6,-918.18 267.6,-901.39 267.6,-890"/>
<polygon fill="black" stroke="black" points="271.1,-889.96 267.6,-879.96 264.1,-889.96 271.1,-889.96"/>
</g>
<!-- p23 -->
<g id="node25" class="node">
<title>p23</title>
<ellipse fill="none" stroke="black" cx="260.6" cy="-818.2" rx="3.5" ry="3.5"/>
<text text-anchor="middle" x="226.6" y="-825.5" font-family="Times,serif" font-size="14.00">combine</text>
</g>
<!-- p21&#45;&gt;p23 -->
<g id="edge23" class="edge">
<title>p21&#45;&gt;p23</title>
<path fill="none" stroke="black" d="M266.6,-872.7C265.18,-868.85 262.64,-861.39 261.6,-854.8 260.41,-847.26 260.14,-838.72 260.17,-831.89"/>
<polygon fill="black" stroke="black" points="263.67,-831.9 260.45,-821.81 256.67,-831.71 263.67,-831.9"/>
<text text-anchor="middle" x="312.1" y="-843.6" font-family="Times,serif" font-size="14.00">ch_for_indices</text>
</g>
<!-- p25 -->
<g id="node26" class="node">
<title>p25</title>
<ellipse fill="none" stroke="black" cx="390.6" cy="-778.6" rx="149.47" ry="18"/>
<text text-anchor="middle" x="390.6" y="-774.9" font-family="Times,serif" font-size="14.00">explode_base_files:explode_pr</text>
</g>
<!-- p21&#45;&gt;p25 -->
<g id="edge24" class="edge">
<title>p21&#45;&gt;p25</title>
<path fill="none" stroke="black" d="M271.04,-875.64C284.55,-876.77 334.53,-879.09 362.6,-854.8 376.51,-842.76 383.52,-823.13 387.05,-806.94"/>
<polygon fill="black" stroke="black" points="390.53,-807.39 388.9,-796.92 383.64,-806.11 390.53,-807.39"/>
<text text-anchor="middle" x="390.6" y="-843.6" font-family="Times,serif" font-size="14.00">data</text>
</g>
<!-- p24 -->
<g id="node28" class="node">
<title>p24</title>
<ellipse fill="none" stroke="black" cx="233.6" cy="-724.6" rx="92.88" ry="18"/>
<text text-anchor="middle" x="233.6" y="-720.9" font-family="Times,serif" font-size="14.00">spectral_index_pr</text>
</g>
<!-- p23&#45;&gt;p24 -->
<g id="edge27" class="edge">
<title>p23&#45;&gt;p24</title>
<path fill="none" stroke="black" d="M258.23,-815.61C253.86,-812.53 244.63,-805.28 240.6,-796.6 234.35,-783.12 232.42,-766.69 232.13,-753.03"/>
<polygon fill="black" stroke="black" points="235.63,-752.8 232.2,-742.78 228.63,-752.75 235.63,-752.8"/>
</g>
<!-- p27 -->
<g id="node29" class="node">
<title>p27</title>
<ellipse fill="none" stroke="black" cx="353.6" cy="-666.1" rx="3.5" ry="3.5"/>
<text text-anchor="middle" x="336.6" y="-673.4" font-family="Times,serif" font-size="14.00">mix</text>
</g>
<!-- p25&#45;&gt;p27 -->
<g id="edge29" class="edge">
<title>p25&#45;&gt;p27</title>
<path fill="none" stroke="black" d="M388.05,-760.42C384.87,-741.86 378.5,-711.7 367.6,-687.6 366.02,-684.1 363.84,-680.55 361.67,-677.41"/>
<polygon fill="black" stroke="black" points="364.37,-675.17 355.52,-669.34 358.8,-679.41 364.37,-675.17"/>
</g>
<!-- p22&#45;&gt;p23 -->
<g id="edge26" class="edge">
<title>p22&#45;&gt;p23</title>
<path fill="none" stroke="black" d="M431.42,-872.53C430.82,-865.72 428.25,-848.12 417.6,-839.8 395.41,-822.48 308.22,-819.69 274.25,-819.26"/>
<polygon fill="black" stroke="black" points="274.11,-815.76 264.08,-819.19 274.06,-822.76 274.11,-815.76"/>
</g>
<!-- p24&#45;&gt;p27 -->
<g id="edge28" class="edge">
<title>p24&#45;&gt;p27</title>
<path fill="none" stroke="black" d="M267.35,-707.71C292.13,-696.04 324.36,-680.87 341.55,-672.77"/>
<polygon fill="black" stroke="black" points="343.22,-675.86 350.77,-668.43 340.23,-669.52 343.22,-675.86"/>
</g>
<!-- p28 -->
<g id="node31" class="node">
<title>p28</title>
<ellipse fill="none" stroke="black" cx="353.6" cy="-622.1" rx="3.5" ry="3.5"/>
<text text-anchor="middle" x="309.1" y="-629.4" font-family="Times,serif" font-size="14.00">groupTuple</text>
</g>
<!-- p27&#45;&gt;p28 -->
<g id="edge31" class="edge">
<title>p27&#45;&gt;p28</title>
<path fill="none" stroke="black" d="M353.6,-662.34C353.6,-657.07 353.6,-645.23 353.6,-635.92"/>
<polygon fill="black" stroke="black" points="357.1,-635.92 353.6,-625.92 350.1,-635.92 357.1,-635.92"/>
</g>
<!-- p26 -->
<g id="node30" class="node">
<title>p26</title>
<ellipse fill="black" stroke="black" cx="353.6" cy="-724.6" rx="3.6" ry="3.6"/>
<text text-anchor="middle" x="404.5" y="-732" font-family="Times,serif" font-size="14.00">Channel.empty</text>
</g>
<!-- p26&#45;&gt;p27 -->
<g id="edge30" class="edge">
<title>p26&#45;&gt;p27</title>
<path fill="none" stroke="black" d="M353.6,-720.87C353.6,-713.59 353.6,-693.31 353.6,-679.85"/>
<polygon fill="black" stroke="black" points="357.1,-679.67 353.6,-669.67 350.1,-679.67 357.1,-679.67"/>
</g>
<!-- p29 -->
<g id="node32" class="node">
<title>p29</title>
<ellipse fill="none" stroke="black" cx="353.6" cy="-578.1" rx="3.5" ry="3.5"/>
<text text-anchor="middle" x="334.6" y="-585.4" font-family="Times,serif" font-size="14.00">map</text>
</g>
<!-- p28&#45;&gt;p29 -->
<g id="edge32" class="edge">
<title>p28&#45;&gt;p29</title>
<path fill="none" stroke="black" d="M353.6,-618.34C353.6,-613.07 353.6,-601.23 353.6,-591.92"/>
<polygon fill="black" stroke="black" points="357.1,-591.92 353.6,-581.92 350.1,-591.92 357.1,-591.92"/>
</g>
<!-- p30 -->
<g id="node33" class="node">
<title>p30</title>
<ellipse fill="none" stroke="black" cx="353.6" cy="-505.6" rx="194.17" ry="18"/>
<text text-anchor="middle" x="353.6" y="-501.9" font-family="Times,serif" font-size="14.00">build_vrt_stack:build_vrt_stack_process</text>
</g>
<!-- p29&#45;&gt;p30 -->
<g id="edge33" class="edge">
<title>p29&#45;&gt;p30</title>
<path fill="none" stroke="black" d="M353.6,-574.42C353.6,-567.76 353.6,-549.84 353.6,-534.09"/>
<polygon fill="black" stroke="black" points="357.1,-533.7 353.6,-523.7 350.1,-533.7 357.1,-533.7"/>
<text text-anchor="middle" x="369.6" y="-545.4" font-family="Times,serif" font-size="14.00">data</text>
</g>
<!-- p31 -->
<g id="node34" class="node">
<title>p31</title>
<ellipse fill="none" stroke="black" cx="376.6" cy="-447.1" rx="3.5" ry="3.5"/>
<text text-anchor="middle" x="357.6" y="-454.4" font-family="Times,serif" font-size="14.00">map</text>
</g>
<!-- p30&#45;&gt;p31 -->
<g id="edge34" class="edge">
<title>p30&#45;&gt;p31</title>
<path fill="none" stroke="black" d="M360.63,-487.34C364.21,-478.55 368.47,-468.07 371.69,-460.16"/>
<polygon fill="black" stroke="black" points="375.03,-461.24 375.56,-450.66 368.55,-458.6 375.03,-461.24"/>
</g>
<!-- p32 -->
<g id="node35" class="node">
<title>p32</title>
<ellipse fill="none" stroke="black" cx="393.6" cy="-399.1" rx="3.5" ry="3.5"/>
<text text-anchor="middle" x="374.6" y="-406.4" font-family="Times,serif" font-size="14.00">map</text>
</g>
<!-- p31&#45;&gt;p32 -->
<g id="edge35" class="edge">
<title>p31&#45;&gt;p32</title>
<path fill="none" stroke="black" d="M377.51,-443.63C379.66,-437.82 385.15,-422.97 389.12,-412.24"/>
<polygon fill="black" stroke="black" points="392.41,-413.41 392.6,-402.81 385.85,-410.98 392.41,-413.41"/>
</g>
<!-- p33 -->
<g id="node36" class="node">
<title>p33</title>
<ellipse fill="none" stroke="black" cx="397.6" cy="-351.1" rx="3.5" ry="3.5"/>
<text text-anchor="middle" x="382.1" y="-358.4" font-family="Times,serif" font-size="14.00">tap</text>
</g>
<!-- p32&#45;&gt;p33 -->
<g id="edge36" class="edge">
<title>p32&#45;&gt;p33</title>
<path fill="none" stroke="black" d="M393.84,-395.36C394.35,-389.53 395.56,-375.57 396.47,-365.07"/>
<polygon fill="black" stroke="black" points="399.99,-365.03 397.37,-354.77 393.01,-364.43 399.99,-365.03"/>
</g>
<!-- p34 -->
<g id="node37" class="node">
<title>p34</title>
<ellipse fill="black" stroke="black" cx="430.6" cy="-293.1" rx="1.8" ry="1.8"/>
</g>
<!-- p33&#45;&gt;p34 -->
<g id="edge37" class="edge">
<title>p33&#45;&gt;p34</title>
<path fill="none" stroke="black" d="M399.02,-347.69C403.43,-340.21 417.09,-317.02 424.93,-303.73"/>
<polygon fill="black" stroke="black" points="428.1,-305.24 430.16,-294.85 422.07,-301.69 428.1,-305.24"/>
<text text-anchor="middle" x="482.1" y="-318.4" font-family="Times,serif" font-size="14.00">ch_stacked_raster</text>
</g>
<!-- p35 -->
<g id="node38" class="node">
<title>p35</title>
<ellipse fill="none" stroke="black" cx="402.6" cy="-293.1" rx="3.5" ry="3.5"/>
<text text-anchor="middle" x="383.6" y="-300.4" font-family="Times,serif" font-size="14.00">map</text>
</g>
<!-- p33&#45;&gt;p35 -->
<g id="edge38" class="edge">
<title>p33&#45;&gt;p35</title>
<path fill="none" stroke="black" d="M397.84,-347.4C398.49,-340.18 400.28,-320.08 401.47,-306.73"/>
<polygon fill="black" stroke="black" points="404.97,-306.92 402.37,-296.64 398,-306.29 404.97,-306.92"/>
</g>
<!-- p36 -->
<g id="node39" class="node">
<title>p36</title>
<ellipse fill="none" stroke="black" cx="468.6" cy="-249.1" rx="3.5" ry="3.5"/>
<text text-anchor="middle" x="424.1" y="-256.4" font-family="Times,serif" font-size="14.00">groupTuple</text>
</g>
<!-- p35&#45;&gt;p36 -->
<g id="edge39" class="edge">
<title>p35&#45;&gt;p36</title>
<path fill="none" stroke="black" d="M405.11,-290.5C413.6,-285.1 441.65,-267.25 457.47,-257.18"/>
<polygon fill="black" stroke="black" points="459.53,-260.02 466.09,-251.7 455.78,-254.11 459.53,-260.02"/>
</g>
<!-- p37 -->
<g id="node40" class="node">
<title>p37</title>
<ellipse fill="none" stroke="black" cx="512.6" cy="-205.1" rx="3.5" ry="3.5"/>
<text text-anchor="middle" x="493.6" y="-212.4" font-family="Times,serif" font-size="14.00">map</text>
</g>
<!-- p36&#45;&gt;p37 -->
<g id="edge40" class="edge">
<title>p36&#45;&gt;p37</title>
<path fill="none" stroke="black" d="M470.72,-246.07C476.46,-240.6 492.54,-225.25 503.03,-215.24"/>
<polygon fill="black" stroke="black" points="505.58,-217.64 510.4,-208.2 500.75,-212.58 505.58,-217.64"/>
</g>
<!-- p38 -->
<g id="node41" class="node">
<title>p38</title>
<ellipse fill="none" stroke="black" cx="523.6" cy="-161.1" rx="3.5" ry="3.5"/>
<text text-anchor="middle" x="495.1" y="-168.4" font-family="Times,serif" font-size="14.00">branch</text>
</g>
<!-- p37&#45;&gt;p38 -->
<g id="edge41" class="edge">
<title>p37&#45;&gt;p38</title>
<path fill="none" stroke="black" d="M513.32,-201.34C514.72,-196.01 517.87,-183.96 520.32,-174.61"/>
<polygon fill="black" stroke="black" points="523.71,-175.48 522.86,-164.92 516.94,-173.71 523.71,-175.48"/>
</g>
<!-- p38&#45;&gt;p43 -->
<g id="edge44" class="edge">
<title>p38&#45;&gt;p43</title>
<path fill="none" stroke="black" d="M525.05,-157.84C528.46,-152.54 537.17,-138.99 543.48,-129.18"/>
<polygon fill="black" stroke="black" points="546.54,-130.88 549.01,-120.58 540.66,-127.1 546.54,-130.88"/>
</g>
<!-- p38&#45;&gt;p40 -->
<g id="edge43" class="edge">
<title>p38&#45;&gt;p40</title>
<path fill="none" stroke="black" d="M526.72,-159.51C549.26,-155.22 687.36,-128.98 731.24,-120.64"/>
<polygon fill="black" stroke="black" points="732.1,-124.04 741.27,-118.73 730.79,-117.16 732.1,-124.04"/>
</g>
<!-- p39 -->
<g id="node42" class="node">
<title>p39</title>
<ellipse fill="black" stroke="black" cx="500.6" cy="-117.1" rx="1.8" ry="1.8"/>
</g>
<!-- p38&#45;&gt;p39 -->
<g id="edge42" class="edge">
<title>p38&#45;&gt;p39</title>
<path fill="none" stroke="black" d="M522.09,-157.34C518.91,-151.53 511.37,-137.76 506.12,-128.19"/>
<polygon fill="black" stroke="black" points="509.19,-126.49 501.31,-119.4 503.05,-129.86 509.19,-126.49"/>
</g>
<!-- p42 -->
<g id="node44" class="node">
<title>p42</title>
<ellipse fill="black" stroke="black" cx="744.6" cy="-1.8" rx="1.8" ry="1.8"/>
</g>
<!-- p41&#45;&gt;p42 -->
<g id="edge46" class="edge">
<title>p41&#45;&gt;p42</title>
<path fill="none" stroke="black" d="M744.6,-40.56C744.6,-31.87 744.6,-21.56 744.6,-13.9"/>
<polygon fill="black" stroke="black" points="748.1,-13.76 744.6,-3.76 741.1,-13.76 748.1,-13.76"/>
</g>
<!-- p45 -->
<g id="node46" class="node">
<title>p45</title>
<ellipse fill="black" stroke="black" cx="550.6" cy="-1.8" rx="1.8" ry="1.8"/>
</g>
<!-- p44&#45;&gt;p45 -->
<g id="edge48" class="edge">
<title>p44&#45;&gt;p45</title>
<path fill="none" stroke="black" d="M550.6,-40.56C550.6,-31.87 550.6,-21.56 550.6,-13.9"/>
<polygon fill="black" stroke="black" points="554.1,-13.76 550.6,-3.76 547.1,-13.76 554.1,-13.76"/>
</g>
</g>
</svg>
