<?xml version="1.0" encoding="UTF-8" standalone="no"?>
<!DOCTYPE svg PUBLIC "-//W3C//DTD SVG 1.1//EN"
 "http://www.w3.org/Graphics/SVG/1.1/DTD/svg11.dtd">
<!-- Generated by graphviz version 2.43.0 (0)
 -->
<!-- Title: dag Pages: 1 -->
<svg width="824pt" height="1861pt"
 viewBox="0.00 0.00 824.24 1860.60" xmlns="http://www.w3.org/2000/svg" xmlns:xlink="http://www.w3.org/1999/xlink">
<g id="graph0" class="graph" transform="scale(1 1) rotate(0) translate(4 1856.6)">
<title>dag</title>
<polygon fill="white" stroke="transparent" points="-4,4 -4,-1856.6 820.24,-1856.6 820.24,4 -4,4"/>
<!-- p0 -->
<g id="node1" class="node">
<title>p0</title>
<ellipse fill="black" stroke="black" cx="158.84" cy="-785" rx="3.6" ry="3.6"/>
<text text-anchor="middle" x="90.24" y="-792.4" font-family="Times,serif" font-size="14.00">Channel.fromPath</text>
</g>
<!-- p2 -->
<g id="node2" class="node">
<title>p2</title>
<ellipse fill="none" stroke="black" cx="167.84" cy="-726.5" rx="3.5" ry="3.5"/>
<text text-anchor="middle" x="140.84" y="-733.8" font-family="Times,serif" font-size="14.00">concat</text>
</g>
<!-- p0&#45;&gt;p2 -->
<g id="edge1" class="edge">
<title>p0&#45;&gt;p2</title>
<path fill="none" stroke="black" d="M159.27,-781.27C160.43,-773.99 163.66,-753.71 165.81,-740.25"/>
<polygon fill="black" stroke="black" points="169.31,-740.49 167.43,-730.07 162.4,-739.39 169.31,-740.49"/>
</g>
<!-- p3 -->
<g id="node4" class="node">
<title>p3</title>
<ellipse fill="none" stroke="black" cx="167.84" cy="-668" rx="3.5" ry="3.5"/>
<text text-anchor="middle" x="140.84" y="-675.3" font-family="Times,serif" font-size="14.00">collect</text>
</g>
<!-- p2&#45;&gt;p3 -->
<g id="edge3" class="edge">
<title>p2&#45;&gt;p3</title>
<path fill="none" stroke="black" d="M167.84,-722.77C167.84,-715.49 167.84,-695.21 167.84,-681.75"/>
<polygon fill="black" stroke="black" points="171.34,-681.57 167.84,-671.57 164.34,-681.57 171.34,-681.57"/>
</g>
<!-- p1 -->
<g id="node3" class="node">
<title>p1</title>
<ellipse fill="black" stroke="black" cx="183.84" cy="-785" rx="3.6" ry="3.6"/>
<text text-anchor="middle" x="141.74" y="-770.2" font-family="Times,serif" font-size="14.00">Channel.of</text>
</g>
<!-- p1&#45;&gt;p2 -->
<g id="edge2" class="edge">
<title>p1&#45;&gt;p2</title>
<path fill="none" stroke="black" d="M183.07,-781.27C180.98,-773.92 175.14,-753.29 171.33,-739.83"/>
<polygon fill="black" stroke="black" points="174.66,-738.74 168.56,-730.07 167.92,-740.64 174.66,-738.74"/>
</g>
<!-- p4 -->
<g id="node5" class="node">
<title>p4</title>
<ellipse fill="none" stroke="black" cx="167.84" cy="-581" rx="59.29" ry="18"/>
<text text-anchor="middle" x="167.84" y="-577.3" font-family="Times,serif" font-size="14.00">spat_lucas</text>
</g>
<!-- p3&#45;&gt;p4 -->
<g id="edge4" class="edge">
<title>p3&#45;&gt;p4</title>
<path fill="none" stroke="black" d="M167.84,-664.17C167.84,-655.68 167.84,-629.75 167.84,-609.27"/>
<polygon fill="black" stroke="black" points="171.34,-609.17 167.84,-599.17 164.34,-609.17 171.34,-609.17"/>
<text text-anchor="middle" x="186.34" y="-620.8" font-family="Times,serif" font-size="14.00">lucas</text>
</g>
<!-- p42 -->
<g id="node6" class="node">
<title>p42</title>
<ellipse fill="none" stroke="black" cx="167.84" cy="-508.5" rx="3.5" ry="3.5"/>
<text text-anchor="middle" x="133.84" y="-515.8" font-family="Times,serif" font-size="14.00">combine</text>
</g>
<!-- p4&#45;&gt;p42 -->
<g id="edge5" class="edge">
<title>p4&#45;&gt;p42</title>
<path fill="none" stroke="black" d="M167.84,-562.93C167.84,-550.38 167.84,-533.59 167.84,-522.2"/>
<polygon fill="black" stroke="black" points="171.34,-522.16 167.84,-512.16 164.34,-522.16 171.34,-522.16"/>
</g>
<!-- p43 -->
<g id="node45" class="node">
<title>p43</title>
<ellipse fill="none" stroke="black" cx="153.84" cy="-450" rx="143.77" ry="18"/>
<text text-anchor="middle" x="153.84" y="-446.3" font-family="Times,serif" font-size="14.00">create_classification_dataset</text>
</g>
<!-- p42&#45;&gt;p43 -->
<g id="edge47" class="edge">
<title>p42&#45;&gt;p43</title>
<path fill="none" stroke="black" d="M167.16,-504.77C165.94,-499.83 163.23,-488.9 160.57,-478.17"/>
<polygon fill="black" stroke="black" points="163.89,-477.02 158.09,-468.15 157.1,-478.7 163.89,-477.02"/>
</g>
<!-- p5 -->
<g id="node7" class="node">
<title>p5</title>
<ellipse fill="black" stroke="black" cx="370.84" cy="-1556.4" rx="3.6" ry="3.6"/>
<text text-anchor="middle" x="328.74" y="-1563.8" font-family="Times,serif" font-size="14.00">Channel.of</text>
</g>
<!-- p8 -->
<g id="node8" class="node">
<title>p8</title>
<ellipse fill="none" stroke="black" cx="157.84" cy="-1483.9" rx="3.5" ry="3.5"/>
<text text-anchor="middle" x="140.84" y="-1491.2" font-family="Times,serif" font-size="14.00">mix</text>
</g>
<!-- p5&#45;&gt;p8 -->
<g id="edge6" class="edge">
<title>p5&#45;&gt;p8</title>
<path fill="none" stroke="black" d="M367.65,-1554.67C353.19,-1551.35 292.3,-1537.01 243.84,-1520.4 217.03,-1511.21 186.58,-1497.95 170.07,-1490.51"/>
<polygon fill="black" stroke="black" points="171.31,-1487.23 160.76,-1486.26 168.4,-1493.59 171.31,-1487.23"/>
<text text-anchor="middle" x="301.34" y="-1509.2" font-family="Times,serif" font-size="14.00">spectral_indices</text>
</g>
<!-- p13 -->
<g id="node15" class="node">
<title>p13</title>
<ellipse fill="none" stroke="black" cx="360.84" cy="-1483.9" rx="3.5" ry="3.5"/>
<text text-anchor="middle" x="343.84" y="-1491.2" font-family="Times,serif" font-size="14.00">mix</text>
</g>
<!-- p5&#45;&gt;p13 -->
<g id="edge13" class="edge">
<title>p5&#45;&gt;p13</title>
<path fill="none" stroke="black" d="M370.46,-1552.72C369.19,-1543.82 365.08,-1514.84 362.66,-1497.77"/>
<polygon fill="black" stroke="black" points="366.09,-1496.99 361.22,-1487.58 359.16,-1497.97 366.09,-1496.99"/>
<text text-anchor="middle" x="423.34" y="-1509.2" font-family="Times,serif" font-size="14.00">spectral_indices</text>
</g>
<!-- p22 -->
<g id="node27" class="node">
<title>p22</title>
<ellipse fill="none" stroke="black" cx="511.84" cy="-1483.9" rx="3.5" ry="3.5"/>
<text text-anchor="middle" x="480.84" y="-1491.2" font-family="Times,serif" font-size="14.00">flatMap</text>
</g>
<!-- p5&#45;&gt;p22 -->
<g id="edge24" class="edge">
<title>p5&#45;&gt;p22</title>
<path fill="none" stroke="black" d="M374.34,-1555.1C389.1,-1553.71 447.14,-1546.7 484.84,-1520.4 493.64,-1514.26 500.83,-1504.35 505.57,-1496.57"/>
<polygon fill="black" stroke="black" points="508.76,-1498.02 510.55,-1487.58 502.64,-1494.63 508.76,-1498.02"/>
<text text-anchor="middle" x="556.34" y="-1509.2" font-family="Times,serif" font-size="14.00">spectral_indices</text>
</g>
<!-- p9 -->
<g id="node12" class="node">
<title>p9</title>
<ellipse fill="none" stroke="black" cx="117.84" cy="-1425.8" rx="3.5" ry="3.5"/>
<text text-anchor="middle" x="86.84" y="-1433.1" font-family="Times,serif" font-size="14.00">flatMap</text>
</g>
<!-- p8&#45;&gt;p9 -->
<g id="edge9" class="edge">
<title>p8&#45;&gt;p9</title>
<path fill="none" stroke="black" d="M156.12,-1480.49C150.93,-1473.21 135.17,-1451.11 125.57,-1437.64"/>
<polygon fill="black" stroke="black" points="128.16,-1435.25 119.5,-1429.14 122.46,-1439.31 128.16,-1435.25"/>
</g>
<!-- p6 -->
<g id="node9" class="node">
<title>p6</title>
<ellipse fill="black" stroke="black" cx="194.84" cy="-1425.8" rx="3.6" ry="3.6"/>
<text text-anchor="middle" x="152.74" y="-1433.2" font-family="Times,serif" font-size="14.00">Channel.of</text>
</g>
<!-- p10 -->
<g id="node10" class="node">
<title>p10</title>
<ellipse fill="none" stroke="black" cx="110.84" cy="-1332.2" rx="3.5" ry="3.5"/>
<text text-anchor="middle" x="76.84" y="-1339.5" font-family="Times,serif" font-size="14.00">combine</text>
</g>
<!-- p6&#45;&gt;p10 -->
<g id="edge7" class="edge">
<title>p6&#45;&gt;p10</title>
<path fill="none" stroke="black" d="M191.47,-1424.27C182.7,-1422.73 158.89,-1417.49 144.84,-1404.2 135.76,-1395.61 122.3,-1363.06 115.35,-1345.17"/>
<polygon fill="black" stroke="black" points="118.6,-1343.86 111.78,-1335.76 112.06,-1346.35 118.6,-1343.86"/>
<text text-anchor="middle" x="188.34" y="-1382.5" font-family="Times,serif" font-size="14.00">stm_choices</text>
</g>
<!-- p37 -->
<g id="node39" class="node">
<title>p37</title>
<ellipse fill="none" stroke="black" cx="257.84" cy="-857.5" rx="3.5" ry="3.5"/>
<text text-anchor="middle" x="223.84" y="-864.8" font-family="Times,serif" font-size="14.00">combine</text>
</g>
<!-- p6&#45;&gt;p37 -->
<g id="edge40" class="edge">
<title>p6&#45;&gt;p37</title>
<path fill="none" stroke="black" d="M198.13,-1423.98C205.47,-1421.98 223.19,-1416.09 231.84,-1404.2 250.75,-1378.19 245.84,-1365.36 245.84,-1333.2 245.84,-1333.2 245.84,-1333.2 245.84,-900.5 245.84,-890.11 249.28,-878.8 252.47,-870.54"/>
<polygon fill="black" stroke="black" points="255.81,-871.65 256.55,-861.08 249.38,-868.88 255.81,-871.65"/>
<text text-anchor="middle" x="289.34" y="-1105.8" font-family="Times,serif" font-size="14.00">stm_choices</text>
</g>
<!-- p11 -->
<g id="node13" class="node">
<title>p11</title>
<ellipse fill="black" stroke="black" cx="44.84" cy="-1259.6" rx="1.8" ry="1.8"/>
</g>
<!-- p10&#45;&gt;p11 -->
<g id="edge11" class="edge">
<title>p10&#45;&gt;p11</title>
<path fill="none" stroke="black" d="M107.64,-1330.63C96.65,-1328.48 60.37,-1319.77 45.84,-1296.2 41.29,-1288.83 41.42,-1278.88 42.47,-1271.37"/>
<polygon fill="black" stroke="black" points="45.89,-1272.08 44.54,-1261.58 39.05,-1270.64 45.89,-1272.08"/>
<text text-anchor="middle" x="138.84" y="-1285" font-family="Times,serif" font-size="14.00">stm_combination_sentinel</text>
</g>
<!-- p7 -->
<g id="node11" class="node">
<title>p7</title>
<ellipse fill="black" stroke="black" cx="157.84" cy="-1556.4" rx="3.6" ry="3.6"/>
<text text-anchor="middle" x="115.74" y="-1563.8" font-family="Times,serif" font-size="14.00">Channel.of</text>
</g>
<!-- p7&#45;&gt;p8 -->
<g id="edge8" class="edge">
<title>p7&#45;&gt;p8</title>
<path fill="none" stroke="black" d="M157.84,-1552.72C157.84,-1543.82 157.84,-1514.84 157.84,-1497.77"/>
<polygon fill="black" stroke="black" points="161.34,-1497.58 157.84,-1487.58 154.34,-1497.58 161.34,-1497.58"/>
</g>
<!-- p9&#45;&gt;p10 -->
<g id="edge10" class="edge">
<title>p9&#45;&gt;p10</title>
<path fill="none" stroke="black" d="M117.63,-1422.16C116.79,-1411.07 113.49,-1367.9 111.82,-1346.04"/>
<polygon fill="black" stroke="black" points="115.31,-1345.74 111.05,-1336.03 108.33,-1346.27 115.31,-1345.74"/>
</g>
<!-- p12 -->
<g id="node14" class="node">
<title>p12</title>
<ellipse fill="black" stroke="black" cx="199.84" cy="-1556.4" rx="3.6" ry="3.6"/>
<text text-anchor="middle" x="157.74" y="-1541.6" font-family="Times,serif" font-size="14.00">Channel.of</text>
</g>
<!-- p12&#45;&gt;p13 -->
<g id="edge12" class="edge">
<title>p12&#45;&gt;p13</title>
<path fill="none" stroke="black" d="M199.66,-1552.59C199.29,-1544.01 199.45,-1517.97 213.84,-1505.4 233.54,-1488.19 314.46,-1485.38 347.1,-1484.96"/>
<polygon fill="black" stroke="black" points="347.31,-1488.46 357.29,-1484.89 347.26,-1481.46 347.31,-1488.46"/>
</g>
<!-- p14 -->
<g id="node16" class="node">
<title>p14</title>
<ellipse fill="none" stroke="black" cx="360.84" cy="-1386.2" rx="3.5" ry="3.5"/>
<text text-anchor="middle" x="329.84" y="-1393.5" font-family="Times,serif" font-size="14.00">flatMap</text>
</g>
<!-- p13&#45;&gt;p14 -->
<g id="edge14" class="edge">
<title>p13&#45;&gt;p14</title>
<path fill="none" stroke="black" d="M360.84,-1480.14C360.84,-1468.46 360.84,-1422.65 360.84,-1400.01"/>
<polygon fill="black" stroke="black" points="364.34,-1399.79 360.84,-1389.79 357.34,-1399.79 364.34,-1399.79"/>
</g>
<!-- p36 -->
<g id="node17" class="node">
<title>p36</title>
<ellipse fill="none" stroke="black" cx="360.84" cy="-901.5" rx="3.5" ry="3.5"/>
<text text-anchor="middle" x="326.84" y="-908.8" font-family="Times,serif" font-size="14.00">combine</text>
</g>
<!-- p14&#45;&gt;p36 -->
<g id="edge15" class="edge">
<title>p14&#45;&gt;p36</title>
<path fill="none" stroke="black" d="M360.84,-1382.54C360.84,-1371.29 360.84,-1326.51 360.84,-1289.7 360.84,-1289.7 360.84,-1289.7 360.84,-958.5 360.84,-943.69 360.84,-926.67 360.84,-915.32"/>
<polygon fill="black" stroke="black" points="364.34,-915.07 360.84,-905.07 357.34,-915.07 364.34,-915.07"/>
<text text-anchor="middle" x="451.34" y="-1138.8" font-family="Times,serif" font-size="14.00">stm_combination_landsat</text>
</g>
<!-- p36&#45;&gt;p37 -->
<g id="edge39" class="edge">
<title>p36&#45;&gt;p37</title>
<path fill="none" stroke="black" d="M357.87,-899.29C345,-894.04 293.67,-873.11 269.96,-863.44"/>
<polygon fill="black" stroke="black" points="271.21,-860.17 260.63,-859.64 268.56,-866.65 271.21,-860.17"/>
</g>
<!-- p15 -->
<g id="node18" class="node">
<title>p15</title>
<ellipse fill="black" stroke="black" cx="657.84" cy="-1834" rx="3.6" ry="3.6"/>
<text text-anchor="middle" x="574.24" y="-1841.4" font-family="Times,serif" font-size="14.00">Channel.fromFilePairs</text>
</g>
<!-- p16 -->
<g id="node19" class="node">
<title>p16</title>
<ellipse fill="none" stroke="black" cx="657.84" cy="-1789.9" rx="3.5" ry="3.5"/>
<text text-anchor="middle" x="638.84" y="-1797.2" font-family="Times,serif" font-size="14.00">map</text>
</g>
<!-- p15&#45;&gt;p16 -->
<g id="edge16" class="edge">
<title>p15&#45;&gt;p16</title>
<path fill="none" stroke="black" d="M657.84,-1830.24C657.84,-1824.95 657.84,-1813.08 657.84,-1803.75"/>
<polygon fill="black" stroke="black" points="661.34,-1803.73 657.84,-1793.73 654.34,-1803.73 661.34,-1803.73"/>
</g>
<!-- p17 -->
<g id="node20" class="node">
<title>p17</title>
<ellipse fill="none" stroke="black" cx="657.84" cy="-1745.9" rx="3.5" ry="3.5"/>
<text text-anchor="middle" x="636.84" y="-1753.2" font-family="Times,serif" font-size="14.00">filter</text>
</g>
<!-- p16&#45;&gt;p17 -->
<g id="edge17" class="edge">
<title>p16&#45;&gt;p17</title>
<path fill="none" stroke="black" d="M657.84,-1786.14C657.84,-1780.87 657.84,-1769.03 657.84,-1759.72"/>
<polygon fill="black" stroke="black" points="661.34,-1759.72 657.84,-1749.72 654.34,-1759.72 661.34,-1759.72"/>
</g>
<!-- p18 -->
<g id="node21" class="node">
<title>p18</title>
<ellipse fill="none" stroke="black" cx="657.84" cy="-1701.9" rx="3.5" ry="3.5"/>
<text text-anchor="middle" x="636.84" y="-1709.2" font-family="Times,serif" font-size="14.00">filter</text>
</g>
<!-- p17&#45;&gt;p18 -->
<g id="edge18" class="edge">
<title>p17&#45;&gt;p18</title>
<path fill="none" stroke="black" d="M657.84,-1742.14C657.84,-1736.87 657.84,-1725.03 657.84,-1715.72"/>
<polygon fill="black" stroke="black" points="661.34,-1715.72 657.84,-1705.72 654.34,-1715.72 661.34,-1715.72"/>
</g>
<!-- p19 -->
<g id="node22" class="node">
<title>p19</title>
<ellipse fill="none" stroke="black" cx="657.84" cy="-1629.4" rx="91.78" ry="18"/>
<text text-anchor="middle" x="657.84" y="-1625.7" font-family="Times,serif" font-size="14.00">mask_layer_stack</text>
</g>
<!-- p18&#45;&gt;p19 -->
<g id="edge19" class="edge">
<title>p18&#45;&gt;p19</title>
<path fill="none" stroke="black" d="M657.84,-1698.22C657.84,-1691.56 657.84,-1673.64 657.84,-1657.89"/>
<polygon fill="black" stroke="black" points="661.34,-1657.5 657.84,-1647.5 654.34,-1657.5 661.34,-1657.5"/>
<text text-anchor="middle" x="690.34" y="-1669.2" font-family="Times,serif" font-size="14.00">ch_dataP</text>
</g>
<!-- p20 -->
<g id="node23" class="node">
<title>p20</title>
<ellipse fill="none" stroke="black" cx="657.84" cy="-1556.4" rx="85.29" ry="18"/>
<text text-anchor="middle" x="657.84" y="-1552.7" font-family="Times,serif" font-size="14.00">set_raster_scale</text>
</g>
<!-- p19&#45;&gt;p20 -->
<g id="edge20" class="edge">
<title>p19&#45;&gt;p20</title>
<path fill="none" stroke="black" d="M657.84,-1611.21C657.84,-1603.19 657.84,-1593.45 657.84,-1584.47"/>
<polygon fill="black" stroke="black" points="661.34,-1584.43 657.84,-1574.43 654.34,-1584.43 661.34,-1584.43"/>
</g>
<!-- p21 -->
<g id="node24" class="node">
<title>p21</title>
<ellipse fill="none" stroke="black" cx="657.84" cy="-1483.9" rx="3.5" ry="3.5"/>
<text text-anchor="middle" x="642.34" y="-1491.2" font-family="Times,serif" font-size="14.00">tap</text>
</g>
<!-- p20&#45;&gt;p21 -->
<g id="edge21" class="edge">
<title>p20&#45;&gt;p21</title>
<path fill="none" stroke="black" d="M657.84,-1538.33C657.84,-1525.78 657.84,-1508.99 657.84,-1497.6"/>
<polygon fill="black" stroke="black" points="661.34,-1497.56 657.84,-1487.56 654.34,-1497.56 661.34,-1497.56"/>
</g>
<!-- p23 -->
<g id="node25" class="node">
<title>p23</title>
<ellipse fill="none" stroke="black" cx="519.84" cy="-1425.8" rx="3.5" ry="3.5"/>
<text text-anchor="middle" x="485.84" y="-1433.1" font-family="Times,serif" font-size="14.00">combine</text>
</g>
<!-- p21&#45;&gt;p23 -->
<g id="edge22" class="edge">
<title>p21&#45;&gt;p23</title>
<path fill="none" stroke="black" d="M654.35,-1482.95C640.63,-1483.01 589.34,-1481.86 553.84,-1462.4 542.88,-1456.39 533.34,-1445.63 527.18,-1437.51"/>
<polygon fill="black" stroke="black" points="529.95,-1435.35 521.33,-1429.18 524.22,-1439.38 529.95,-1435.35"/>
<text text-anchor="middle" x="604.34" y="-1451.2" font-family="Times,serif" font-size="14.00">ch_for_indices</text>
</g>
<!-- p25 -->
<g id="node26" class="node">
<title>p25</title>
<ellipse fill="none" stroke="black" cx="677.84" cy="-1386.2" rx="96.38" ry="18"/>
<text text-anchor="middle" x="677.84" y="-1382.5" font-family="Times,serif" font-size="14.00">explode_base_files</text>
</g>
<!-- p21&#45;&gt;p25 -->
<g id="edge23" class="edge">
<title>p21&#45;&gt;p25</title>
<path fill="none" stroke="black" d="M658.41,-1480.14C660.41,-1470.58 667.18,-1438.19 672.17,-1414.32"/>
<polygon fill="black" stroke="black" points="675.62,-1414.89 674.24,-1404.39 668.77,-1413.46 675.62,-1414.89"/>
<text text-anchor="middle" x="711.34" y="-1451.2" font-family="Times,serif" font-size="14.00">ch_base_files</text>
</g>
<!-- p24 -->
<g id="node28" class="node">
<title>p24</title>
<ellipse fill="none" stroke="black" cx="519.84" cy="-1332.2" rx="131.08" ry="18"/>
<text text-anchor="middle" x="519.84" y="-1328.5" font-family="Times,serif" font-size="14.00">calculate_spectral_indices</text>
</g>
<!-- p23&#45;&gt;p24 -->
<g id="edge26" class="edge">
<title>p23&#45;&gt;p24</title>
<path fill="none" stroke="black" d="M519.84,-1422.16C519.84,-1413.19 519.84,-1383.24 519.84,-1360.54"/>
<polygon fill="black" stroke="black" points="523.34,-1360.42 519.84,-1350.42 516.34,-1360.42 523.34,-1360.42"/>
</g>
<!-- p27 -->
<g id="node29" class="node">
<title>p27</title>
<ellipse fill="none" stroke="black" cx="677.84" cy="-1259.6" rx="3.5" ry="3.5"/>
<text text-anchor="middle" x="660.84" y="-1266.9" font-family="Times,serif" font-size="14.00">mix</text>
</g>
<!-- p25&#45;&gt;p27 -->
<g id="edge28" class="edge">
<title>p25&#45;&gt;p27</title>
<path fill="none" stroke="black" d="M677.84,-1368.14C677.84,-1342.95 677.84,-1296.37 677.84,-1273.69"/>
<polygon fill="black" stroke="black" points="681.34,-1273.44 677.84,-1263.44 674.34,-1273.44 681.34,-1273.44"/>
</g>
<!-- p22&#45;&gt;p23 -->
<g id="edge25" class="edge">
<title>p22&#45;&gt;p23</title>
<path fill="none" stroke="black" d="M512.22,-1480.19C513.25,-1472.96 516.13,-1452.83 518.03,-1439.46"/>
<polygon fill="black" stroke="black" points="521.53,-1439.74 519.47,-1429.35 514.6,-1438.76 521.53,-1439.74"/>
</g>
<!-- p24&#45;&gt;p27 -->
<g id="edge27" class="edge">
<title>p24&#45;&gt;p27</title>
<path fill="none" stroke="black" d="M556.48,-1314.83C591.57,-1299.15 642.49,-1276.4 665.6,-1266.07"/>
<polygon fill="black" stroke="black" points="667.22,-1269.18 674.93,-1261.9 664.37,-1262.79 667.22,-1269.18"/>
</g>
<!-- p29 -->
<g id="node31" class="node">
<title>p29</title>
<ellipse fill="none" stroke="black" cx="677.84" cy="-1215.5" rx="3.5" ry="3.5"/>
<text text-anchor="middle" x="643.84" y="-1222.8" font-family="Times,serif" font-size="14.00">combine</text>
</g>
<!-- p27&#45;&gt;p29 -->
<g id="edge30" class="edge">
<title>p27&#45;&gt;p29</title>
<path fill="none" stroke="black" d="M677.84,-1255.84C677.84,-1250.55 677.84,-1238.68 677.84,-1229.35"/>
<polygon fill="black" stroke="black" points="681.34,-1229.33 677.84,-1219.33 674.34,-1229.33 681.34,-1229.33"/>
</g>
<!-- p26 -->
<g id="node30" class="node">
<title>p26</title>
<ellipse fill="black" stroke="black" cx="710.84" cy="-1332.2" rx="3.6" ry="3.6"/>
<text text-anchor="middle" x="761.74" y="-1339.6" font-family="Times,serif" font-size="14.00">Channel.empty</text>
</g>
<!-- p26&#45;&gt;p27 -->
<g id="edge29" class="edge">
<title>p26&#45;&gt;p27</title>
<path fill="none" stroke="black" d="M710.12,-1328.37C708.09,-1320.57 701.83,-1298.15 692.84,-1281.2 690.93,-1277.6 688.46,-1273.93 686.07,-1270.7"/>
<polygon fill="black" stroke="black" points="688.79,-1268.5 679.82,-1262.87 683.32,-1272.87 688.79,-1268.5"/>
</g>
<!-- p30 -->
<g id="node33" class="node">
<title>p30</title>
<ellipse fill="none" stroke="black" cx="635.84" cy="-1171.5" rx="3.5" ry="3.5"/>
<text text-anchor="middle" x="616.84" y="-1178.8" font-family="Times,serif" font-size="14.00">map</text>
</g>
<!-- p29&#45;&gt;p30 -->
<g id="edge32" class="edge">
<title>p29&#45;&gt;p30</title>
<path fill="none" stroke="black" d="M675.58,-1212.24C669.94,-1206.61 655,-1191.67 645.13,-1181.8"/>
<polygon fill="black" stroke="black" points="647.45,-1179.16 637.91,-1174.57 642.5,-1184.11 647.45,-1179.16"/>
</g>
<!-- p28 -->
<g id="node32" class="node">
<title>p28</title>
<ellipse fill="black" stroke="black" cx="702.84" cy="-1259.6" rx="3.6" ry="3.6"/>
</g>
<!-- p28&#45;&gt;p29 -->
<g id="edge31" class="edge">
<title>p28&#45;&gt;p29</title>
<path fill="none" stroke="black" d="M701.2,-1255.84C697.85,-1250.2 690.07,-1237.11 684.41,-1227.57"/>
<polygon fill="black" stroke="black" points="687.38,-1225.71 679.26,-1218.9 681.36,-1229.28 687.38,-1225.71"/>
</g>
<!-- p31 -->
<g id="node34" class="node">
<title>p31</title>
<ellipse fill="none" stroke="black" cx="634.84" cy="-1109.5" rx="3.5" ry="3.5"/>
<text text-anchor="middle" x="613.84" y="-1116.8" font-family="Times,serif" font-size="14.00">filter</text>
</g>
<!-- p30&#45;&gt;p31 -->
<g id="edge33" class="edge">
<title>p30&#45;&gt;p31</title>
<path fill="none" stroke="black" d="M635.79,-1167.92C635.67,-1160.37 635.29,-1137.89 635.05,-1123.41"/>
<polygon fill="black" stroke="black" points="638.54,-1122.94 634.88,-1113 631.55,-1123.06 638.54,-1122.94"/>
</g>
<!-- p32 -->
<g id="node35" class="node">
<title>p32</title>
<ellipse fill="none" stroke="black" cx="613.84" cy="-1061.5" rx="3.5" ry="3.5"/>
<text text-anchor="middle" x="569.34" y="-1068.8" font-family="Times,serif" font-size="14.00">groupTuple</text>
</g>
<!-- p31&#45;&gt;p32 -->
<g id="edge34" class="edge">
<title>p31&#45;&gt;p32</title>
<path fill="none" stroke="black" d="M633.71,-1106.03C631.06,-1100.22 624.28,-1085.37 619.38,-1074.64"/>
<polygon fill="black" stroke="black" points="622.41,-1072.86 615.08,-1065.21 616.04,-1075.76 622.41,-1072.86"/>
</g>
<!-- p33 -->
<g id="node36" class="node">
<title>p33</title>
<ellipse fill="none" stroke="black" cx="603.84" cy="-1017.5" rx="3.5" ry="3.5"/>
<text text-anchor="middle" x="584.84" y="-1024.8" font-family="Times,serif" font-size="14.00">map</text>
</g>
<!-- p32&#45;&gt;p33 -->
<g id="edge35" class="edge">
<title>p32&#45;&gt;p33</title>
<path fill="none" stroke="black" d="M613.18,-1057.74C611.92,-1052.47 609.1,-1040.63 606.89,-1031.32"/>
<polygon fill="black" stroke="black" points="610.23,-1030.24 604.51,-1021.32 603.42,-1031.86 610.23,-1030.24"/>
</g>
<!-- p34 -->
<g id="node37" class="node">
<title>p34</title>
<ellipse fill="none" stroke="black" cx="598.84" cy="-959.5" rx="3.5" ry="3.5"/>
<text text-anchor="middle" x="583.34" y="-966.8" font-family="Times,serif" font-size="14.00">tap</text>
</g>
<!-- p33&#45;&gt;p34 -->
<g id="edge36" class="edge">
<title>p33&#45;&gt;p34</title>
<path fill="none" stroke="black" d="M603.6,-1013.8C602.95,-1006.58 601.16,-986.48 599.96,-973.13"/>
<polygon fill="black" stroke="black" points="603.44,-972.69 599.06,-963.04 596.47,-973.32 603.44,-972.69"/>
<text text-anchor="middle" x="668.34" y="-984.8" font-family="Times,serif" font-size="14.00">ch_grouped_bands</text>
</g>
<!-- p34&#45;&gt;p36 -->
<g id="edge37" class="edge">
<title>p34&#45;&gt;p36</title>
<path fill="none" stroke="black" d="M595.24,-958.68C576.16,-959.53 485.22,-962.08 416.84,-938 399.39,-931.86 381.79,-919.44 371.1,-911.05"/>
<polygon fill="black" stroke="black" points="373.14,-908.2 363.19,-904.57 368.7,-913.61 373.14,-908.2"/>
<text text-anchor="middle" x="505.84" y="-926.8" font-family="Times,serif" font-size="14.00">ch_group_stacked_raster</text>
</g>
<!-- p35 -->
<g id="node38" class="node">
<title>p35</title>
<ellipse fill="black" stroke="black" cx="598.84" cy="-901.5" rx="1.8" ry="1.8"/>
</g>
<!-- p34&#45;&gt;p35 -->
<g id="edge38" class="edge">
<title>p34&#45;&gt;p35</title>
<path fill="none" stroke="black" d="M598.84,-955.8C598.84,-948.35 598.84,-927.21 598.84,-913.9"/>
<polygon fill="black" stroke="black" points="602.34,-913.55 598.84,-903.55 595.34,-913.55 602.34,-913.55"/>
<text text-anchor="middle" x="663.34" y="-926.8" font-family="Times,serif" font-size="14.00">ch_stacked_raster</text>
</g>
<!-- p38 -->
<g id="node40" class="node">
<title>p38</title>
<ellipse fill="none" stroke="black" cx="257.84" cy="-785" rx="45.49" ry="18"/>
<text text-anchor="middle" x="257.84" y="-781.3" font-family="Times,serif" font-size="14.00">stms_ls</text>
</g>
<!-- p37&#45;&gt;p38 -->
<g id="edge41" class="edge">
<title>p37&#45;&gt;p38</title>
<path fill="none" stroke="black" d="M257.84,-853.82C257.84,-847.16 257.84,-829.24 257.84,-813.49"/>
<polygon fill="black" stroke="black" points="261.34,-813.1 257.84,-803.1 254.34,-813.1 261.34,-813.1"/>
<text text-anchor="middle" x="278.34" y="-824.8" font-family="Times,serif" font-size="14.00">blubb</text>
</g>
<!-- p39 -->
<g id="node41" class="node">
<title>p39</title>
<ellipse fill="none" stroke="black" cx="257.84" cy="-726.5" rx="3.5" ry="3.5"/>
<text text-anchor="middle" x="213.34" y="-733.8" font-family="Times,serif" font-size="14.00">groupTuple</text>
</g>
<!-- p38&#45;&gt;p39 -->
<g id="edge42" class="edge">
<title>p38&#45;&gt;p39</title>
<path fill="none" stroke="black" d="M257.84,-766.74C257.84,-758.16 257.84,-747.97 257.84,-740.12"/>
<polygon fill="black" stroke="black" points="261.34,-740.06 257.84,-730.06 254.34,-740.06 261.34,-740.06"/>
</g>
<!-- p40 -->
<g id="node42" class="node">
<title>p40</title>
<ellipse fill="none" stroke="black" cx="257.84" cy="-668" rx="35.19" ry="18"/>
<text text-anchor="middle" x="257.84" y="-664.3" font-family="Times,serif" font-size="14.00">stack</text>
</g>
<!-- p39&#45;&gt;p40 -->
<g id="edge43" class="edge">
<title>p39&#45;&gt;p40</title>
<path fill="none" stroke="black" d="M257.84,-722.77C257.84,-717.83 257.84,-706.9 257.84,-696.17"/>
<polygon fill="black" stroke="black" points="261.34,-696.15 257.84,-686.15 254.34,-696.15 261.34,-696.15"/>
</g>
<!-- p41 -->
<g id="node43" class="node">
<title>p41</title>
<ellipse fill="none" stroke="black" cx="257.84" cy="-581" rx="3.5" ry="3.5"/>
<text text-anchor="middle" x="242.34" y="-588.3" font-family="Times,serif" font-size="14.00">tap</text>
</g>
<!-- p40&#45;&gt;p41 -->
<g id="edge44" class="edge">
<title>p40&#45;&gt;p41</title>
<path fill="none" stroke="black" d="M257.84,-649.8C257.84,-633.61 257.84,-609.71 257.84,-595.04"/>
<polygon fill="black" stroke="black" points="261.34,-594.64 257.84,-584.64 254.34,-594.64 261.34,-594.64"/>
</g>
<!-- p41&#45;&gt;p42 -->
<g id="edge45" class="edge">
<title>p41&#45;&gt;p42</title>
<path fill="none" stroke="black" d="M255.55,-578.17C251.59,-575.02 243.16,-568.36 235.84,-563 224.49,-554.7 220.99,-553.55 209.84,-545 198.51,-536.32 186.09,-525.67 177.71,-518.31"/>
<polygon fill="black" stroke="black" points="179.85,-515.53 170.05,-511.5 175.2,-520.76 179.85,-515.53"/>
<text text-anchor="middle" x="260.84" y="-533.8" font-family="Times,serif" font-size="14.00">training_stack</text>
</g>
<!-- p47 -->
<g id="node44" class="node">
<title>p47</title>
<ellipse fill="none" stroke="black" cx="265.84" cy="-193.5" rx="3.5" ry="3.5"/>
<text text-anchor="middle" x="231.84" y="-200.8" font-family="Times,serif" font-size="14.00">combine</text>
</g>
<!-- p41&#45;&gt;p47 -->
<g id="edge46" class="edge">
<title>p41&#45;&gt;p47</title>
<path fill="none" stroke="black" d="M260.74,-578.88C269.65,-575.3 296.84,-563.33 311.84,-545 322.58,-531.87 325.84,-526.46 325.84,-509.5 325.84,-509.5 325.84,-509.5 325.84,-251 325.84,-225.19 296.05,-207.7 278.45,-199.62"/>
<polygon fill="black" stroke="black" points="279.31,-196.19 268.73,-195.54 276.6,-202.64 279.31,-196.19"/>
<text text-anchor="middle" x="394.34" y="-383.8" font-family="Times,serif" font-size="14.00">classification_stack</text>
</g>
<!-- p48 -->
<g id="node49" class="node">
<title>p48</title>
<ellipse fill="none" stroke="black" cx="265.84" cy="-135" rx="89.88" ry="18"/>
<text text-anchor="middle" x="265.84" y="-131.3" font-family="Times,serif" font-size="14.00">predict_classifier</text>
</g>
<!-- p47&#45;&gt;p48 -->
<g id="edge52" class="edge">
<title>p47&#45;&gt;p48</title>
<path fill="none" stroke="black" d="M265.84,-189.77C265.84,-184.83 265.84,-173.9 265.84,-163.17"/>
<polygon fill="black" stroke="black" points="269.34,-163.15 265.84,-153.15 262.34,-163.15 269.34,-163.15"/>
</g>
<!-- p44 -->
<g id="node46" class="node">
<title>p44</title>
<ellipse fill="none" stroke="black" cx="150.84" cy="-387.5" rx="3.5" ry="3.5"/>
<text text-anchor="middle" x="123.84" y="-394.8" font-family="Times,serif" font-size="14.00">collect</text>
</g>
<!-- p43&#45;&gt;p44 -->
<g id="edge48" class="edge">
<title>p43&#45;&gt;p44</title>
<path fill="none" stroke="black" d="M152.99,-431.82C152.51,-422.25 151.93,-410.51 151.49,-401.66"/>
<polygon fill="black" stroke="black" points="154.97,-401.19 150.98,-391.37 147.98,-401.53 154.97,-401.19"/>
</g>
<!-- p45 -->
<g id="node47" class="node">
<title>p45</title>
<ellipse fill="none" stroke="black" cx="148.84" cy="-325" rx="148.67" ry="18"/>
<text text-anchor="middle" x="148.84" y="-321.3" font-family="Times,serif" font-size="14.00">merge_classification_datasets</text>
</g>
<!-- p44&#45;&gt;p45 -->
<g id="edge49" class="edge">
<title>p44&#45;&gt;p45</title>
<path fill="none" stroke="black" d="M150.75,-383.9C150.57,-378.55 150.15,-365.77 149.75,-353.58"/>
<polygon fill="black" stroke="black" points="153.23,-353.09 149.41,-343.22 146.24,-353.33 153.23,-353.09"/>
</g>
<!-- p46 -->
<g id="node48" class="node">
<title>p46</title>
<ellipse fill="none" stroke="black" cx="192.84" cy="-252" rx="90.98" ry="18"/>
<text text-anchor="middle" x="192.84" y="-248.3" font-family="Times,serif" font-size="14.00">train_rf_classifier</text>
</g>
<!-- p45&#45;&gt;p46 -->
<g id="edge50" class="edge">
<title>p45&#45;&gt;p46</title>
<path fill="none" stroke="black" d="M159.49,-306.81C164.73,-298.35 171.16,-287.98 176.96,-278.61"/>
<polygon fill="black" stroke="black" points="179.99,-280.37 182.28,-270.03 174.04,-276.69 179.99,-280.37"/>
</g>
<!-- p46&#45;&gt;p47 -->
<g id="edge51" class="edge">
<title>p46&#45;&gt;p47</title>
<path fill="none" stroke="black" d="M214.34,-234.35C227.86,-223.89 244.69,-210.87 255.35,-202.61"/>
<polygon fill="black" stroke="black" points="257.61,-205.29 263.38,-196.4 253.33,-199.76 257.61,-205.29"/>
</g>
<!-- p49 -->
<g id="node50" class="node">
<title>p49</title>
<ellipse fill="none" stroke="black" cx="265.84" cy="-76.5" rx="3.5" ry="3.5"/>
<text text-anchor="middle" x="238.84" y="-83.8" font-family="Times,serif" font-size="14.00">collect</text>
</g>
<!-- p48&#45;&gt;p49 -->
<g id="edge53" class="edge">
<title>p48&#45;&gt;p49</title>
<path fill="none" stroke="black" d="M265.84,-116.74C265.84,-108.16 265.84,-97.97 265.84,-90.12"/>
<polygon fill="black" stroke="black" points="269.34,-90.06 265.84,-80.06 262.34,-90.06 269.34,-90.06"/>
</g>
<!-- p50 -->
<g id="node51" class="node">
<title>p50</title>
<ellipse fill="none" stroke="black" cx="265.84" cy="-18" rx="79.09" ry="18"/>
<text text-anchor="middle" x="265.84" y="-14.3" font-family="Times,serif" font-size="14.00">build_class_vrt</text>
</g>
<!-- p49&#45;&gt;p50 -->
<g id="edge54" class="edge">
<title>p49&#45;&gt;p50</title>
<path fill="none" stroke="black" d="M265.84,-72.77C265.84,-67.83 265.84,-56.9 265.84,-46.17"/>
<polygon fill="black" stroke="black" points="269.34,-46.15 265.84,-36.15 262.34,-46.15 269.34,-46.15"/>
</g>
</g>
</svg>
